{"glyphs":{"0":{"ha":833,"x_min":104,"x_max":729,"o":"m 421 1000 q 587 951 518 1000 q 692 817 656 903 q 729 618 729 731 l 729 354 q 691 149 729 235 q 582 18 653 64 q 414 -28 511 -28 q 283 0 340 -28 q 185 79 225 28 q 125 201 146 131 q 104 354 104 271 l 104 618 q 142 823 104 738 q 251 954 181 908 q 421 1000 322 1000 m 417 935 q 290 901 344 935 q 204 797 235 867 q 174 618 174 726 l 174 354 q 178 283 174 317 q 190 220 182 249 q 210 167 199 192 q 294 70 240 103 q 417 38 347 38 q 544 73 490 38 q 629 178 599 108 q 660 354 660 249 l 660 618 q 650 726 660 678 q 622 811 640 774 q 578 874 604 849 q 506 920 547 906 q 417 935 465 935 m 643 821 l 674 731 l 603 731 l 654 776 q 613 696 636 733 q 566 626 590 658 q 518 565 542 594 q 409 434 464 500 q 299 302 354 368 q 190 169 244 236 l 133 257 l 224 257 l 179 219 q 215 285 197 256 q 256 347 232 314 q 314 422 279 379 q 478 622 396 522 q 643 821 561 722 z "},"1":{"ha":833,"x_min":125,"x_max":764,"o":"m 413 986 q 427 986 419 986 q 442 986 435 986 q 458 986 450 986 q 472 986 465 986 q 485 986 479 986 q 493 984 490 986 q 498 979 496 982 q 500 971 500 976 q 500 917 500 965 q 500 794 500 869 q 500 626 500 718 q 500 440 500 535 q 500 258 500 344 q 500 108 500 172 q 500 14 500 43 l 422 14 l 431 42 q 431 64 431 53 q 431 87 431 75 q 431 108 431 99 q 431 172 431 124 q 431 290 431 219 q 431 442 431 361 q 431 606 431 524 q 431 761 431 689 q 431 885 431 833 q 431 956 431 936 l 461 914 l 390 914 l 438 947 q 393 886 413 911 q 349 837 374 861 q 286 775 325 813 q 218 713 247 739 q 172 674 189 688 q 147 661 154 661 q 140 663 143 661 q 137 669 138 665 q 136 678 136 672 l 136 725 q 207 791 172 758 q 276 857 242 824 q 322 901 300 879 q 367 944 344 922 q 413 986 390 965 m 125 65 q 165 65 129 65 q 255 65 200 65 q 374 65 310 65 q 503 65 439 65 q 623 65 568 65 q 712 65 678 65 q 749 65 746 65 q 760 61 756 65 q 764 50 764 57 q 764 38 764 44 q 764 26 764 32 q 764 13 764 19 q 764 0 764 7 q 724 0 760 0 q 634 0 689 0 q 515 0 579 0 q 385 0 450 0 q 267 0 321 0 q 178 0 213 0 q 140 0 143 0 q 135 1 138 0 q 129 4 132 3 q 126 10 128 7 q 125 15 125 13 q 125 26 125 21 q 125 35 125 31 q 125 45 125 40 q 125 55 125 50 q 125 65 125 60 z "},"2":{"ha":833,"x_min":97,"x_max":736,"o":"m 417 1000 q 549 985 493 1000 q 642 940 606 969 q 697 870 679 911 q 715 779 715 829 l 715 751 q 702 660 715 699 q 660 588 689 621 q 580 516 631 554 q 454 426 529 478 q 305 317 363 363 q 216 229 247 271 q 174 138 185 188 q 163 15 163 88 l 119 57 l 213 57 l 133 49 q 187 58 161 54 q 248 63 213 61 q 338 65 283 65 l 721 65 q 732 61 728 65 q 736 50 736 57 q 736 40 736 44 q 736 30 736 35 q 736 20 736 25 q 736 10 736 15 q 736 0 736 6 q 697 0 732 0 q 607 0 661 0 q 488 0 553 0 q 359 0 424 0 q 240 0 294 0 q 151 0 186 0 q 113 0 117 0 q 105 2 108 0 q 99 7 101 4 q 97 15 97 10 l 97 56 q 131 217 97 150 q 233 344 164 283 q 411 478 303 404 q 535 567 489 531 q 606 631 582 603 q 638 688 631 660 q 646 753 646 717 l 646 768 q 635 831 646 804 q 604 878 624 857 q 534 918 581 906 q 407 931 488 931 q 263 906 326 931 q 138 819 199 881 l 121 819 q 121 833 121 826 q 121 845 121 839 q 121 857 121 851 q 121 867 121 863 q 121 876 121 872 q 123 891 121 886 q 132 903 125 896 q 245 972 175 943 q 417 1000 315 1000 z "},"3":{"ha":833,"x_min":107,"x_max":728,"o":"m 403 1000 q 580 966 511 1000 q 681 878 649 932 q 714 764 714 825 l 714 732 q 689 632 714 681 q 608 547 664 583 q 457 496 551 511 l 496 539 l 496 451 l 457 493 q 619 443 560 479 q 703 359 678 407 q 728 260 728 311 l 728 228 q 690 101 728 160 q 579 8 653 43 q 394 -28 506 -28 q 274 -17 328 -28 q 181 14 221 -6 q 117 57 142 33 q 109 67 111 64 q 107 78 107 71 q 107 85 107 81 q 107 97 107 90 q 107 110 107 103 q 107 125 107 118 q 107 139 107 132 l 124 139 q 203 80 164 103 q 289 47 243 57 q 396 38 335 38 q 527 59 469 38 q 619 123 585 81 q 653 229 653 165 l 653 254 q 624 346 653 307 q 543 410 596 385 q 417 449 490 436 q 256 461 344 461 q 244 465 249 461 q 240 476 240 469 q 240 490 240 483 q 240 502 240 496 q 240 515 240 508 q 240 526 240 521 q 417 542 342 526 q 542 585 492 557 q 616 651 592 613 q 640 738 640 690 l 640 758 q 612 851 640 811 q 531 913 583 890 q 403 935 478 935 q 260 913 318 935 q 138 838 201 890 l 121 838 q 121 850 121 844 q 121 861 121 856 q 121 872 121 867 q 121 884 121 878 q 121 896 121 890 q 122 903 121 900 q 125 907 124 906 q 235 972 163 944 q 403 1000 307 1000 z "},"4":{"ha":833,"x_min":76,"x_max":778,"o":"m 515 972 q 527 972 522 972 q 536 972 532 972 q 544 972 540 972 q 554 972 549 972 q 565 972 560 972 l 565 956 q 482 819 524 888 q 398 683 440 751 q 312 543 356 614 q 223 399 268 472 q 129 246 178 325 l 153 310 l 153 242 l 111 264 q 220 272 167 269 q 331 276 274 275 q 456 278 388 278 l 763 278 q 771 276 768 278 q 776 271 774 274 q 778 263 778 268 q 778 252 778 257 q 778 243 778 247 q 778 234 778 239 q 778 224 778 229 q 778 214 778 219 l 92 214 q 84 216 88 214 q 78 222 81 218 q 76 229 76 225 l 76 278 q 88 297 76 278 q 121 352 100 317 q 172 437 142 388 q 237 545 201 486 q 313 672 272 604 q 399 813 354 739 q 489 961 443 886 q 498 969 493 967 q 508 972 503 971 q 515 972 513 972 m 583 542 q 597 542 590 542 q 610 542 604 542 q 624 542 617 542 q 638 542 631 542 q 646 540 643 542 q 651 535 649 538 q 653 526 653 532 l 653 139 q 653 101 653 122 q 653 60 653 81 q 653 23 653 39 q 653 0 653 7 q 642 0 647 0 q 631 0 636 0 q 621 0 626 0 q 610 0 615 0 q 599 0 604 0 q 588 4 592 0 q 583 15 583 8 q 583 68 583 42 q 583 120 583 94 q 583 172 583 146 q 583 225 583 199 q 583 278 583 251 q 583 341 583 307 q 583 410 583 375 q 583 478 583 444 q 583 542 583 513 z "},"5":{"ha":833,"x_min":107,"x_max":728,"o":"m 175 972 q 210 972 181 972 q 285 972 240 972 q 381 972 329 972 q 483 972 432 972 q 578 972 535 972 q 649 972 622 972 q 679 972 676 972 q 690 968 686 972 q 694 957 694 964 q 694 947 694 951 q 694 938 694 942 q 694 928 694 933 q 694 919 694 924 q 694 908 694 914 q 657 908 692 908 q 570 908 622 908 q 460 908 518 908 q 349 908 401 908 q 264 908 297 908 q 228 908 231 908 q 200 915 213 908 q 181 931 188 921 q 175 951 175 940 q 175 961 175 957 q 175 972 175 965 m 175 972 l 243 972 l 239 957 q 236 937 238 949 q 232 893 235 925 q 218 766 226 839 q 201 619 210 693 q 186 485 193 546 l 174 521 l 249 521 l 163 497 q 285 549 222 533 q 432 564 347 564 q 561 547 506 564 q 653 499 617 531 q 709 421 690 467 q 728 315 728 375 l 728 253 q 706 142 728 193 q 641 53 683 92 q 539 -6 599 15 q 403 -28 479 -28 q 284 -17 340 -28 q 183 15 228 -6 q 111 63 139 35 q 108 67 110 65 q 107 74 107 69 q 107 87 107 81 q 107 100 107 93 q 107 113 107 107 q 107 126 107 119 q 107 139 107 132 l 124 139 q 248 60 186 83 q 403 38 310 38 q 592 99 525 38 q 658 265 658 160 l 658 293 q 635 406 658 360 q 560 475 611 451 q 428 499 510 499 q 303 488 364 499 q 185 456 242 476 l 132 456 q 122 460 126 456 q 118 475 117 465 q 126 547 121 503 q 138 644 132 590 q 151 755 144 697 q 163 869 157 813 q 175 972 169 925 z "},"6":{"ha":833,"x_min":104,"x_max":733,"o":"m 460 1000 q 600 979 542 1000 q 689 931 658 958 q 696 922 694 925 q 697 911 697 918 q 697 901 697 906 q 697 890 697 896 q 697 878 697 885 q 697 867 697 872 q 697 854 697 861 l 681 854 q 576 917 628 899 q 456 935 525 935 q 344 917 390 935 q 261 865 297 900 q 196 754 218 822 q 174 593 174 686 l 174 386 q 182 256 174 313 q 208 158 190 199 q 251 89 225 117 q 322 47 281 60 q 417 33 363 33 q 598 90 532 33 q 664 268 664 146 l 664 311 q 653 401 664 368 q 619 457 643 435 q 542 503 590 488 q 425 518 494 518 q 285 494 349 518 q 158 415 221 469 l 122 504 l 228 504 l 160 475 q 277 556 211 529 q 429 583 343 583 q 592 555 524 583 q 697 472 660 526 q 733 338 733 418 l 733 251 q 694 106 733 169 q 586 8 656 43 q 424 -28 517 -28 q 240 16 311 -28 q 137 151 169 60 q 104 385 104 242 l 104 592 q 119 733 104 669 q 165 847 135 797 q 238 931 194 897 q 336 983 281 965 q 460 1000 392 1000 z "},"7":{"ha":833,"x_min":97,"x_max":750,"o":"m 97 972 q 119 972 108 972 q 138 968 129 971 q 153 962 147 965 q 163 954 160 958 q 167 943 167 950 q 167 887 167 918 q 167 823 167 856 q 167 763 167 790 q 167 716 167 735 q 167 694 167 697 q 156 694 161 694 q 144 694 150 694 q 134 694 139 694 q 124 694 129 694 q 113 694 118 694 q 101 699 106 694 q 97 710 97 703 q 97 744 97 717 q 97 808 97 771 q 97 881 97 844 q 97 942 97 917 q 97 972 97 968 m 388 0 q 377 0 382 0 q 367 0 372 0 q 357 0 363 0 q 347 -1 351 0 q 336 -1 342 -1 q 325 3 329 -1 q 321 14 321 7 q 327 38 321 19 q 352 103 333 56 q 408 243 371 151 q 506 486 444 335 q 546 584 525 532 q 590 693 567 636 q 642 813 614 750 q 700 947 669 876 l 678 863 l 678 954 l 719 918 q 632 911 672 914 q 556 908 592 908 q 485 907 519 907 l 126 907 q 118 911 122 907 q 110 922 114 915 q 103 938 106 929 q 99 955 100 946 q 97 972 97 964 l 735 972 q 743 970 740 972 q 748 965 746 968 q 750 957 750 963 l 750 907 q 743 885 750 904 q 722 830 736 865 q 688 744 708 794 q 642 630 668 694 q 585 486 617 565 q 542 381 564 436 q 494 264 519 325 q 443 137 469 203 q 388 0 417 71 z "},"8":{"ha":833,"x_min":90,"x_max":743,"o":"m 421 1000 q 583 972 514 1001 q 690 889 651 942 q 729 765 729 836 l 729 742 q 696 628 729 681 q 605 538 663 575 q 474 489 547 501 l 525 526 l 525 463 l 401 506 q 587 602 515 542 q 658 740 658 663 l 658 756 q 647 824 658 793 q 611 878 635 856 q 531 922 581 907 q 413 936 482 938 q 289 910 342 935 q 207 844 236 886 q 178 747 178 801 l 178 736 q 194 662 178 696 q 254 598 211 628 q 378 539 297 568 l 496 496 q 601 447 556 474 q 679 390 647 421 q 727 325 711 360 q 743 251 743 290 l 743 217 q 703 84 743 139 q 589 1 663 29 q 417 -28 515 -28 q 248 1 322 -28 q 132 83 174 29 q 90 214 90 138 l 90 236 q 117 351 90 296 q 201 445 144 407 q 347 492 258 483 l 297 456 l 297 513 l 417 469 q 288 427 346 457 q 194 349 229 397 q 160 233 160 301 l 160 222 q 192 121 160 163 q 281 58 224 79 q 417 36 339 36 q 607 81 540 36 q 674 225 674 126 l 674 236 q 657 311 674 278 q 598 374 640 344 q 481 431 556 403 l 361 475 q 214 545 269 510 q 133 626 158 581 q 108 732 108 671 l 108 758 q 146 880 108 825 q 253 967 183 935 q 421 1000 324 1000 z "},"9":{"ha":833,"x_min":106,"x_max":735,"o":"m 410 1000 q 558 977 496 1000 q 658 906 619 954 q 716 781 697 857 q 735 601 735 706 l 735 381 q 711 206 735 282 q 642 78 688 131 q 531 -1 597 26 q 379 -28 465 -28 q 274 -18 322 -28 q 190 8 225 -8 q 132 46 154 25 q 129 51 131 49 q 128 57 128 53 q 128 68 128 63 q 128 80 128 74 q 128 92 128 86 q 128 106 128 99 q 128 118 128 113 l 144 118 q 256 54 201 71 q 379 38 311 38 q 496 56 444 38 q 582 113 547 75 q 644 223 624 156 q 665 379 665 290 l 665 600 q 647 774 665 704 q 590 882 629 843 q 518 925 560 911 q 419 939 476 939 q 240 878 306 939 q 175 701 175 817 l 175 638 q 186 554 175 586 q 219 499 197 522 q 297 455 249 469 q 414 440 346 440 q 554 465 490 440 q 681 543 618 489 l 681 454 l 624 454 l 674 486 q 564 402 639 429 q 410 375 489 375 q 247 404 315 375 q 142 492 179 433 q 106 638 106 550 l 106 701 q 144 861 106 794 q 251 964 182 928 q 410 1000 319 1000 z "}," ":{"ha":417,"x_min":0,"x_max":0,"o":""}," ":{"ha":417,"x_min":0,"x_max":0,"o":"z "}," ":{"ha":833,"x_min":0,"x_max":0,"o":""}," ":{"ha":417,"x_min":0,"x_max":0,"o":""}," ":{"ha":69,"x_min":0,"x_max":0,"o":""}," ":{"ha":69,"x_min":0,"x_max":0,"o":""},"A":{"ha":903,"x_min":56,"x_max":847,"o":"m 204 385 l 610 385 q 632 385 621 385 q 653 385 643 385 l 683 399 l 692 357 l 699 319 l 219 319 q 212 322 215 319 q 206 327 208 324 q 204 335 204 331 l 204 385 m 124 0 q 97 0 110 0 q 68 0 83 0 q 60 3 64 0 q 56 10 57 6 q 57 19 56 14 q 105 158 81 89 q 153 296 129 226 q 201 434 176 365 q 249 572 225 503 q 297 710 274 640 q 345 848 321 779 q 393 986 369 917 q 458 986 424 986 q 514 986 492 986 q 523 984 519 986 q 528 978 526 982 q 531 971 529 975 q 603 749 567 860 q 675 527 639 638 q 747 306 711 417 q 819 83 783 194 q 833 42 826 63 q 847 0 840 21 q 817 0 832 0 q 786 0 801 0 q 777 2 781 0 q 772 10 774 4 q 765 25 769 15 q 713 187 743 94 q 649 382 683 279 q 582 588 615 485 q 519 781 549 690 q 468 936 490 871 l 490 919 l 428 919 l 450 935 q 397 785 426 869 q 333 602 367 700 q 263 401 299 504 q 191 195 226 297 q 124 0 156 93 z "},"À":{"ha":903,"x_min":56,"x_max":847,"o":"m 204 385 l 610 385 q 632 385 621 385 q 653 385 643 385 l 683 399 l 692 357 l 699 319 l 219 319 q 212 322 215 319 q 206 327 208 324 q 204 335 204 331 l 204 385 m 124 0 q 97 0 110 0 q 68 0 83 0 q 60 3 64 0 q 56 10 57 6 q 57 19 56 14 q 105 158 81 89 q 153 296 129 226 q 201 434 176 365 q 249 572 225 503 q 297 710 274 640 q 345 848 321 779 q 393 986 369 917 q 458 986 424 986 q 514 986 492 986 q 523 984 519 986 q 528 978 526 982 q 531 971 529 975 q 603 749 567 860 q 675 527 639 638 q 747 306 711 417 q 819 83 783 194 q 833 42 826 63 q 847 0 840 21 q 817 0 832 0 q 786 0 801 0 q 777 2 781 0 q 772 10 774 4 q 765 25 769 15 q 713 187 743 94 q 649 382 683 279 q 582 588 615 485 q 519 781 549 690 q 468 936 490 871 l 490 919 l 428 919 l 450 935 q 397 785 426 869 q 333 602 367 700 q 263 401 299 504 q 191 195 226 297 q 124 0 156 93 m 333 1311 q 388 1231 363 1268 q 438 1156 413 1193 q 489 1078 463 1119 q 472 1078 481 1078 q 453 1078 463 1078 q 433 1078 443 1078 q 419 1081 425 1078 q 410 1089 413 1085 q 361 1149 381 1125 q 326 1194 342 1174 q 292 1237 310 1214 q 249 1290 274 1260 q 247 1304 243 1297 q 258 1311 250 1311 q 283 1311 272 1311 q 306 1311 293 1311 q 333 1311 318 1311 z "},"Á":{"ha":903,"x_min":56,"x_max":847,"o":"m 204 385 l 610 385 q 632 385 621 385 q 653 385 643 385 l 683 399 l 692 357 l 699 319 l 219 319 q 212 322 215 319 q 206 327 208 324 q 204 335 204 331 l 204 385 m 124 0 q 97 0 110 0 q 68 0 83 0 q 60 3 64 0 q 56 10 57 6 q 57 19 56 14 q 105 158 81 89 q 153 296 129 226 q 201 434 176 365 q 249 572 225 503 q 297 710 274 640 q 345 848 321 779 q 393 986 369 917 q 458 986 424 986 q 514 986 492 986 q 523 984 519 986 q 528 978 526 982 q 531 971 529 975 q 603 749 567 860 q 675 527 639 638 q 747 306 711 417 q 819 83 783 194 q 833 42 826 63 q 847 0 840 21 q 817 0 832 0 q 786 0 801 0 q 777 2 781 0 q 772 10 774 4 q 765 25 769 15 q 713 187 743 94 q 649 382 683 279 q 582 588 615 485 q 519 781 549 690 q 468 936 490 871 l 490 919 l 428 919 l 450 935 q 397 785 426 869 q 333 602 367 700 q 263 401 299 504 q 191 195 226 297 q 124 0 156 93 m 578 1310 q 603 1310 594 1310 q 620 1310 613 1310 q 642 1310 628 1310 q 654 1303 650 1310 q 651 1289 658 1296 q 608 1235 626 1258 q 574 1192 590 1213 q 539 1148 558 1172 q 490 1088 519 1124 q 481 1080 488 1083 q 467 1076 475 1076 q 449 1076 457 1076 q 434 1076 442 1076 q 418 1076 426 1076 q 472 1155 447 1118 q 523 1229 497 1192 q 578 1310 549 1267 z "},"Â":{"ha":903,"x_min":56,"x_max":847,"o":"m 204 385 l 610 385 q 632 385 621 385 q 653 385 643 385 l 683 399 l 692 357 l 699 319 l 219 319 q 212 322 215 319 q 206 327 208 324 q 204 335 204 331 l 204 385 m 124 0 q 97 0 110 0 q 68 0 83 0 q 60 3 64 0 q 56 10 57 6 q 57 19 56 14 q 105 158 81 89 q 153 296 129 226 q 201 434 176 365 q 249 572 225 503 q 297 710 274 640 q 345 848 321 779 q 393 986 369 917 q 458 986 424 986 q 514 986 492 986 q 523 984 519 986 q 528 978 526 982 q 531 971 529 975 q 603 749 567 860 q 675 527 639 638 q 747 306 711 417 q 819 83 783 194 q 833 42 826 63 q 847 0 840 21 q 817 0 832 0 q 786 0 801 0 q 777 2 781 0 q 772 10 774 4 q 765 25 769 15 q 713 187 743 94 q 649 382 683 279 q 582 588 615 485 q 519 781 549 690 q 468 936 490 871 l 490 919 l 428 919 l 450 935 q 397 785 426 869 q 333 602 367 700 q 263 401 299 504 q 191 195 226 297 q 124 0 156 93 m 415 1311 q 432 1311 424 1311 q 449 1311 440 1311 q 465 1311 457 1311 q 485 1306 476 1311 q 515 1282 493 1301 q 553 1248 526 1272 q 615 1194 581 1224 q 685 1133 650 1164 q 750 1078 721 1103 q 719 1078 733 1079 q 688 1078 704 1078 q 665 1080 672 1078 q 647 1092 658 1082 q 563 1159 624 1111 q 418 1274 503 1207 l 493 1247 q 449 1247 471 1247 q 404 1247 426 1247 l 479 1274 q 336 1160 394 1207 q 233 1078 278 1114 l 179 1078 q 169 1079 172 1078 q 164 1083 165 1081 q 163 1088 163 1085 q 169 1099 163 1093 q 197 1125 175 1106 q 245 1165 215 1140 q 308 1219 275 1190 q 370 1272 342 1247 q 415 1311 399 1297 z "},"Ã":{"ha":903,"x_min":56,"x_max":847,"o":"m 204 385 l 610 385 q 632 385 621 385 q 653 385 643 385 l 683 399 l 692 357 l 699 319 l 219 319 q 212 322 215 319 q 206 327 208 324 q 204 335 204 331 l 204 385 m 124 0 q 97 0 110 0 q 68 0 83 0 q 60 3 64 0 q 56 10 57 6 q 57 19 56 14 q 105 158 81 89 q 153 296 129 226 q 201 434 176 365 q 249 572 225 503 q 297 710 274 640 q 345 848 321 779 q 393 986 369 917 q 458 986 424 986 q 514 986 492 986 q 523 984 519 986 q 528 978 526 982 q 531 971 529 975 q 603 749 567 860 q 675 527 639 638 q 747 306 711 417 q 819 83 783 194 q 833 42 826 63 q 847 0 840 21 q 817 0 832 0 q 786 0 801 0 q 777 2 781 0 q 772 10 774 4 q 765 25 769 15 q 713 187 743 94 q 649 382 683 279 q 582 588 615 485 q 519 781 549 690 q 468 936 490 871 l 490 919 l 428 919 l 450 935 q 397 785 426 869 q 333 602 367 700 q 263 401 299 504 q 191 195 226 297 q 124 0 156 93 m 569 1178 q 629 1194 606 1178 q 682 1242 653 1210 l 697 1242 q 697 1215 697 1229 q 697 1186 697 1201 q 696 1177 697 1182 q 688 1165 694 1172 q 639 1128 665 1143 q 571 1114 613 1114 q 506 1128 536 1114 q 447 1159 475 1142 q 390 1190 418 1176 q 333 1204 363 1204 q 274 1188 297 1204 q 221 1140 250 1172 l 206 1140 q 206 1167 206 1153 q 206 1196 206 1182 q 207 1204 206 1199 q 215 1217 208 1210 q 264 1253 238 1239 q 332 1268 290 1268 q 398 1254 367 1268 q 458 1223 429 1240 q 513 1192 486 1206 q 569 1178 540 1178 z "},"Ä":{"ha":903,"x_min":56,"x_max":847,"o":"m 204 385 l 610 385 q 632 385 621 385 q 653 385 643 385 l 683 399 l 692 357 l 699 319 l 219 319 q 212 322 215 319 q 206 327 208 324 q 204 335 204 331 l 204 385 m 124 0 q 97 0 110 0 q 68 0 83 0 q 60 3 64 0 q 56 10 57 6 q 57 19 56 14 q 105 158 81 89 q 153 296 129 226 q 201 434 176 365 q 249 572 225 503 q 297 710 274 640 q 345 848 321 779 q 393 986 369 917 q 458 986 424 986 q 514 986 492 986 q 523 984 519 986 q 528 978 526 982 q 531 971 529 975 q 603 749 567 860 q 675 527 639 638 q 747 306 711 417 q 819 83 783 194 q 833 42 826 63 q 847 0 840 21 q 817 0 832 0 q 786 0 801 0 q 777 2 781 0 q 772 10 774 4 q 765 25 769 15 q 713 187 743 94 q 649 382 683 279 q 582 588 615 485 q 519 781 549 690 q 468 936 490 871 l 490 919 l 428 919 l 450 935 q 397 785 426 869 q 333 602 367 700 q 263 401 299 504 q 191 195 226 297 q 124 0 156 93 m 257 1233 q 305 1233 281 1233 q 353 1233 329 1233 q 361 1231 358 1233 q 366 1226 364 1229 q 368 1218 368 1224 l 368 1122 q 320 1122 344 1122 q 272 1122 296 1122 q 265 1124 268 1122 q 259 1130 261 1126 q 257 1138 257 1133 l 257 1233 m 535 1233 q 583 1233 558 1233 q 631 1233 607 1233 q 639 1231 636 1233 q 644 1226 642 1229 q 646 1218 646 1224 l 646 1122 q 598 1122 622 1122 q 550 1122 574 1122 q 542 1124 546 1122 q 537 1130 539 1126 q 535 1138 535 1133 l 535 1233 z "},"Å":{"ha":903,"x_min":56,"x_max":847,"o":"m 204 385 l 610 385 q 632 385 621 385 q 653 385 643 385 l 683 399 l 692 357 l 699 319 l 219 319 q 212 322 215 319 q 206 327 208 324 q 204 335 204 331 l 204 385 m 124 0 q 97 0 110 0 q 68 0 83 0 q 60 3 64 0 q 56 10 57 6 q 57 19 56 14 q 105 158 81 89 q 153 296 129 226 q 201 434 176 365 q 249 572 225 503 q 297 710 274 640 q 345 848 321 779 q 393 986 369 917 q 458 986 424 986 q 514 986 492 986 q 523 984 519 986 q 528 978 526 982 q 531 971 529 975 q 603 749 567 860 q 675 527 639 638 q 747 306 711 417 q 819 83 783 194 q 833 42 826 63 q 847 0 840 21 q 817 0 832 0 q 786 0 801 0 q 777 2 781 0 q 772 10 774 4 q 765 25 769 15 q 713 187 743 94 q 649 382 683 279 q 582 588 615 485 q 519 781 549 690 q 468 936 490 871 l 490 919 l 428 919 l 450 935 q 397 785 426 869 q 333 602 367 700 q 263 401 299 504 q 191 195 226 297 q 124 0 156 93 m 451 1244 q 554 1228 511 1244 q 622 1181 597 1211 q 646 1110 646 1151 l 646 1074 q 622 1002 646 1032 q 554 956 597 972 q 451 939 511 939 q 348 956 392 939 q 280 1002 304 972 q 256 1074 256 1032 l 256 1110 q 280 1181 256 1151 q 348 1228 304 1211 q 451 1244 392 1244 m 451 1183 q 360 1164 393 1183 q 326 1108 326 1144 l 326 1075 q 335 1045 326 1058 q 358 1021 343 1032 q 399 1006 375 1011 q 451 1001 422 1001 q 543 1021 510 1001 q 576 1075 576 1040 l 576 1108 q 569 1138 576 1125 q 547 1161 563 1151 q 508 1178 532 1172 q 451 1183 483 1183 z "},"Ā":{"ha":903,"x_min":56,"x_max":847,"o":"m 204 385 l 610 385 q 632 385 621 385 q 653 385 643 385 l 683 399 l 692 357 l 699 319 l 219 319 q 212 322 215 319 q 206 327 208 324 q 204 335 204 331 l 204 385 m 124 0 q 97 0 110 0 q 68 0 83 0 q 60 3 64 0 q 56 10 57 6 q 57 19 56 14 q 105 158 81 89 q 153 296 129 226 q 201 434 176 365 q 249 572 225 503 q 297 710 274 640 q 345 848 321 779 q 393 986 369 917 q 458 986 424 986 q 514 986 492 986 q 523 984 519 986 q 528 978 526 982 q 531 971 529 975 q 603 749 567 860 q 675 527 639 638 q 747 306 711 417 q 819 83 783 194 q 833 42 826 63 q 847 0 840 21 q 817 0 832 0 q 786 0 801 0 q 777 2 781 0 q 772 10 774 4 q 765 25 769 15 q 713 187 743 94 q 649 382 683 279 q 582 588 615 485 q 519 781 549 690 q 468 936 490 871 l 490 919 l 428 919 l 450 935 q 397 785 426 869 q 333 602 367 700 q 263 401 299 504 q 191 195 226 297 q 124 0 156 93 m 210 1197 l 678 1197 q 689 1193 685 1197 q 693 1182 693 1189 q 693 1155 693 1168 q 693 1128 693 1142 l 225 1128 q 217 1130 221 1128 q 212 1135 214 1132 q 210 1143 210 1139 q 210 1170 210 1157 q 210 1197 210 1183 z "},"Ă":{"ha":903,"x_min":56,"x_max":847,"o":"m 204 385 l 610 385 q 632 385 621 385 q 653 385 643 385 l 683 399 l 692 357 l 699 319 l 219 319 q 212 322 215 319 q 206 327 208 324 q 204 335 204 331 l 204 385 m 124 0 q 97 0 110 0 q 68 0 83 0 q 60 3 64 0 q 56 10 57 6 q 57 19 56 14 q 105 158 81 89 q 153 296 129 226 q 201 434 176 365 q 249 572 225 503 q 297 710 274 640 q 345 848 321 779 q 393 986 369 917 q 458 986 424 986 q 514 986 492 986 q 523 984 519 986 q 528 978 526 982 q 531 971 529 975 q 603 749 567 860 q 675 527 639 638 q 747 306 711 417 q 819 83 783 194 q 833 42 826 63 q 847 0 840 21 q 817 0 832 0 q 786 0 801 0 q 777 2 781 0 q 772 10 774 4 q 765 25 769 15 q 713 187 743 94 q 649 382 683 279 q 582 588 615 485 q 519 781 549 690 q 468 936 490 871 l 490 919 l 428 919 l 450 935 q 397 785 426 869 q 333 602 367 700 q 263 401 299 504 q 191 195 226 297 q 124 0 156 93 m 631 1299 q 652 1299 642 1299 q 674 1299 663 1299 q 691 1290 688 1299 q 689 1267 694 1282 q 640 1188 674 1221 q 562 1136 607 1154 q 461 1118 517 1118 l 442 1118 q 342 1136 388 1118 q 263 1188 296 1154 q 214 1267 231 1221 q 212 1290 208 1282 q 229 1299 215 1299 q 251 1299 240 1299 q 272 1299 261 1299 q 343 1208 300 1235 q 451 1182 386 1182 q 560 1208 517 1182 q 631 1299 603 1235 z "},"Ą":{"ha":903,"x_min":56,"x_max":847,"o":"m 204 385 l 610 385 q 632 385 621 385 q 653 385 643 385 l 683 399 l 692 357 l 699 319 l 219 319 q 212 322 215 319 q 206 327 208 324 q 204 335 204 331 l 204 385 m 124 0 q 97 0 110 0 q 68 0 83 0 q 60 3 64 0 q 56 10 57 6 q 57 19 56 14 q 105 158 81 89 q 153 296 129 226 q 201 434 176 365 q 249 572 225 503 q 297 710 274 640 q 345 848 321 779 q 393 986 369 917 q 458 986 424 986 q 514 986 492 986 q 523 984 519 986 q 528 978 526 982 q 531 971 529 975 q 603 749 567 860 q 675 527 639 638 q 747 306 711 417 q 819 83 783 194 q 833 42 826 63 q 847 0 840 21 q 817 0 832 0 q 786 0 801 0 q 777 2 781 0 q 772 10 774 4 q 765 25 769 15 q 713 187 743 94 q 649 382 683 279 q 582 588 615 485 q 519 781 549 690 q 468 936 490 871 l 490 919 l 428 919 l 450 935 q 397 785 426 869 q 333 602 367 700 q 263 401 299 504 q 191 195 226 297 q 124 0 156 93 m 774 26 q 803 23 786 29 q 847 0 821 17 q 844 -9 847 -6 q 832 -15 842 -12 q 675 -92 715 -46 q 635 -189 635 -137 q 662 -259 635 -236 q 728 -282 689 -282 q 782 -274 760 -282 q 826 -250 804 -267 l 843 -250 q 843 -266 843 -257 q 843 -283 843 -275 q 843 -301 843 -292 q 813 -331 843 -315 q 731 -347 782 -347 q 608 -308 653 -347 q 564 -200 564 -268 q 595 -90 564 -136 q 674 -14 626 -43 q 774 26 722 15 z "},"Ǻ":{"ha":903,"x_min":56,"x_max":847,"o":"m 451 1244 q 554 1228 511 1244 q 622 1181 597 1211 q 646 1110 646 1151 l 646 1074 q 622 1002 646 1032 q 554 956 597 972 q 451 939 511 939 q 348 956 392 939 q 280 1002 304 972 q 256 1074 256 1032 l 256 1110 q 280 1181 256 1151 q 348 1228 304 1211 q 451 1244 392 1244 m 451 1183 q 360 1164 393 1183 q 326 1108 326 1144 l 326 1075 q 335 1045 326 1058 q 358 1021 343 1032 q 399 1006 375 1011 q 451 1001 422 1001 q 543 1021 510 1001 q 576 1075 576 1040 l 576 1108 q 569 1138 576 1125 q 547 1161 563 1151 q 508 1178 532 1172 q 451 1183 483 1183 m 578 1421 q 603 1421 594 1421 q 621 1421 613 1421 q 642 1421 629 1421 q 654 1414 650 1421 q 651 1400 658 1407 q 608 1347 626 1369 q 574 1303 590 1324 q 539 1259 558 1283 q 490 1199 519 1235 q 481 1191 488 1194 q 467 1188 475 1188 q 449 1188 457 1188 q 434 1188 442 1188 q 418 1188 426 1188 q 472 1266 447 1229 q 523 1340 497 1303 q 578 1421 549 1378 m 204 385 l 610 385 q 632 385 621 385 q 653 385 643 385 l 683 399 l 692 357 l 699 319 l 219 319 q 212 322 215 319 q 206 327 208 324 q 204 335 204 331 l 204 385 m 124 0 q 97 0 110 0 q 68 0 83 0 q 60 3 64 0 q 56 10 57 6 q 57 19 56 14 q 105 158 81 89 q 153 296 129 226 q 201 434 176 365 q 249 572 225 503 q 297 710 274 640 q 345 848 321 779 q 393 986 369 917 q 458 986 424 986 q 514 986 492 986 q 523 984 519 986 q 528 978 526 982 q 531 971 529 975 q 603 749 567 860 q 675 527 639 638 q 747 306 711 417 q 819 83 783 194 q 833 42 826 63 q 847 0 840 21 q 817 0 832 0 q 786 0 801 0 q 777 2 781 0 q 772 10 774 4 q 765 25 769 15 q 713 187 743 94 q 649 382 683 279 q 582 588 615 485 q 519 781 549 690 q 468 936 490 871 l 490 919 l 428 919 l 450 935 q 397 785 426 869 q 333 602 367 700 q 263 401 299 504 q 191 195 226 297 q 124 0 156 93 z "},"Ȁ":{"ha":903,"x_min":56,"x_max":847,"o":"m 236 1310 q 290 1229 265 1267 q 340 1155 315 1192 q 392 1076 365 1118 q 374 1076 383 1076 q 356 1076 365 1076 q 336 1076 346 1076 q 322 1080 328 1076 q 313 1088 315 1083 q 264 1148 283 1124 q 228 1192 244 1172 q 194 1235 213 1213 q 151 1289 176 1258 q 149 1303 146 1296 q 161 1310 153 1310 q 185 1310 175 1310 q 208 1310 196 1310 q 236 1310 221 1310 m 472 1310 q 526 1229 501 1267 q 576 1155 551 1192 q 628 1076 601 1118 q 610 1076 619 1076 q 592 1076 601 1076 q 572 1076 582 1076 q 558 1080 564 1076 q 549 1088 551 1083 q 500 1148 519 1124 q 465 1192 481 1172 q 431 1235 449 1213 q 388 1289 413 1258 q 385 1303 382 1296 q 397 1310 389 1310 q 422 1310 411 1310 q 444 1310 432 1310 q 472 1310 457 1310 m 204 385 l 610 385 q 632 385 621 385 q 653 385 643 385 l 683 399 l 692 357 l 699 319 l 219 319 q 212 322 215 319 q 206 327 208 324 q 204 335 204 331 l 204 385 m 124 0 q 97 0 110 0 q 68 0 83 0 q 60 3 64 0 q 56 10 57 6 q 57 19 56 14 q 105 158 81 89 q 153 296 129 226 q 201 434 176 365 q 249 572 225 503 q 297 710 274 640 q 345 848 321 779 q 393 986 369 917 q 458 986 424 986 q 514 986 492 986 q 523 984 519 986 q 528 978 526 982 q 531 971 529 975 q 603 749 567 860 q 675 527 639 638 q 747 306 711 417 q 819 83 783 194 q 833 42 826 63 q 847 0 840 21 q 817 0 832 0 q 786 0 801 0 q 777 2 781 0 q 772 10 774 4 q 765 25 769 15 q 713 187 743 94 q 649 382 683 279 q 582 588 615 485 q 519 781 549 690 q 468 936 490 871 l 490 919 l 428 919 l 450 935 q 397 785 426 869 q 333 602 367 700 q 263 401 299 504 q 191 195 226 297 q 124 0 156 93 z "},"Ȃ":{"ha":903,"x_min":56,"x_max":847,"o":"m 272 1104 q 251 1104 261 1104 q 229 1104 240 1104 q 212 1113 215 1104 q 214 1136 208 1121 q 263 1216 231 1183 q 342 1267 296 1249 q 442 1285 388 1285 l 461 1285 q 562 1267 517 1285 q 640 1216 607 1249 q 689 1136 674 1183 q 691 1113 694 1121 q 674 1104 688 1104 q 652 1104 663 1104 q 631 1104 642 1104 q 560 1194 603 1168 q 451 1221 517 1221 q 343 1194 386 1221 q 272 1104 300 1168 m 204 385 l 610 385 q 632 385 621 385 q 653 385 643 385 l 683 399 l 692 357 l 699 319 l 219 319 q 212 322 215 319 q 206 327 208 324 q 204 335 204 331 l 204 385 m 124 0 q 97 0 110 0 q 68 0 83 0 q 60 3 64 0 q 56 10 57 6 q 57 19 56 14 q 105 158 81 89 q 153 296 129 226 q 201 434 176 365 q 249 572 225 503 q 297 710 274 640 q 345 848 321 779 q 393 986 369 917 q 458 986 424 986 q 514 986 492 986 q 523 984 519 986 q 528 978 526 982 q 531 971 529 975 q 603 749 567 860 q 675 527 639 638 q 747 306 711 417 q 819 83 783 194 q 833 42 826 63 q 847 0 840 21 q 817 0 832 0 q 786 0 801 0 q 777 2 781 0 q 772 10 774 4 q 765 25 769 15 q 713 187 743 94 q 649 382 683 279 q 582 588 615 485 q 519 781 549 690 q 468 936 490 871 l 490 919 l 428 919 l 450 935 q 397 785 426 869 q 333 602 367 700 q 263 401 299 504 q 191 195 226 297 q 124 0 156 93 z "},"Ạ":{"ha":903,"x_min":56,"x_max":847,"o":"m 204 385 l 610 385 q 632 385 621 385 q 653 385 643 385 l 683 399 l 692 357 l 699 319 l 219 319 q 212 322 215 319 q 206 327 208 324 q 204 335 204 331 l 204 385 m 124 0 q 97 0 110 0 q 68 0 83 0 q 60 3 64 0 q 56 10 57 6 q 57 19 56 14 q 105 158 81 89 q 153 296 129 226 q 201 434 176 365 q 249 572 225 503 q 297 710 274 640 q 345 848 321 779 q 393 986 369 917 q 458 986 424 986 q 514 986 492 986 q 523 984 519 986 q 528 978 526 982 q 531 971 529 975 q 603 749 567 860 q 675 527 639 638 q 747 306 711 417 q 819 83 783 194 q 833 42 826 63 q 847 0 840 21 q 817 0 832 0 q 786 0 801 0 q 777 2 781 0 q 772 10 774 4 q 765 25 769 15 q 713 187 743 94 q 649 382 683 279 q 582 588 615 485 q 519 781 549 690 q 468 936 490 871 l 490 919 l 428 919 l 450 935 q 397 785 426 869 q 333 602 367 700 q 263 401 299 504 q 191 195 226 297 q 124 0 156 93 m 396 -142 q 420 -142 408 -142 q 444 -142 432 -142 q 467 -142 456 -142 q 492 -142 479 -142 q 503 -146 499 -142 q 507 -157 507 -150 l 507 -253 q 483 -253 494 -253 q 459 -253 471 -253 q 435 -253 447 -253 q 411 -253 424 -253 q 400 -249 404 -253 q 396 -237 396 -244 l 396 -142 z "},"Ả":{"ha":903,"x_min":56,"x_max":847,"o":"m 204 385 l 610 385 q 632 385 621 385 q 653 385 643 385 l 683 399 l 692 357 l 699 319 l 219 319 q 212 322 215 319 q 206 327 208 324 q 204 335 204 331 l 204 385 m 124 0 q 97 0 110 0 q 68 0 83 0 q 60 3 64 0 q 56 10 57 6 q 57 19 56 14 q 105 158 81 89 q 153 296 129 226 q 201 434 176 365 q 249 572 225 503 q 297 710 274 640 q 345 848 321 779 q 393 986 369 917 q 458 986 424 986 q 514 986 492 986 q 523 984 519 986 q 528 978 526 982 q 531 971 529 975 q 603 749 567 860 q 675 527 639 638 q 747 306 711 417 q 819 83 783 194 q 833 42 826 63 q 847 0 840 21 q 817 0 832 0 q 786 0 801 0 q 777 2 781 0 q 772 10 774 4 q 765 25 769 15 q 713 187 743 94 q 649 382 683 279 q 582 588 615 485 q 519 781 549 690 q 468 936 490 871 l 490 919 l 428 919 l 450 935 q 397 785 426 869 q 333 602 367 700 q 263 401 299 504 q 191 195 226 297 q 124 0 156 93 m 419 1079 q 443 1115 431 1097 q 467 1150 456 1132 q 483 1176 475 1163 q 500 1204 492 1190 q 500 1211 500 1207 q 500 1221 500 1215 q 476 1221 490 1221 q 449 1221 461 1221 q 407 1221 436 1221 q 360 1221 378 1221 l 329 1221 q 329 1242 329 1236 q 329 1264 329 1249 q 333 1275 329 1271 q 344 1279 338 1279 q 392 1279 364 1279 q 451 1279 419 1279 q 515 1279 483 1279 q 575 1279 547 1279 q 584 1278 581 1279 q 590 1273 588 1276 q 592 1264 592 1269 l 592 1226 q 576 1201 592 1225 q 540 1146 561 1178 q 509 1101 525 1124 q 481 1061 493 1079 q 462 1061 471 1061 q 444 1061 453 1061 q 424 1061 435 1061 q 414 1067 414 1061 q 419 1079 414 1072 z "},"Ấ":{"ha":903,"x_min":56,"x_max":847,"o":"m 204 385 l 610 385 q 632 385 621 385 q 653 385 643 385 l 683 399 l 692 357 l 699 319 l 219 319 q 212 322 215 319 q 206 327 208 324 q 204 335 204 331 l 204 385 m 124 0 q 97 0 110 0 q 68 0 83 0 q 60 3 64 0 q 56 10 57 6 q 57 19 56 14 q 105 158 81 89 q 153 296 129 226 q 201 434 176 365 q 249 572 225 503 q 297 710 274 640 q 345 848 321 779 q 393 986 369 917 q 458 986 424 986 q 514 986 492 986 q 523 984 519 986 q 528 978 526 982 q 531 971 529 975 q 603 749 567 860 q 675 527 639 638 q 747 306 711 417 q 819 83 783 194 q 833 42 826 63 q 847 0 840 21 q 817 0 832 0 q 786 0 801 0 q 777 2 781 0 q 772 10 774 4 q 765 25 769 15 q 713 187 743 94 q 649 382 683 279 q 582 588 615 485 q 519 781 549 690 q 468 936 490 871 l 490 919 l 428 919 l 450 935 q 397 785 426 869 q 333 602 367 700 q 263 401 299 504 q 191 195 226 297 q 124 0 156 93 m 415 1311 q 432 1311 424 1311 q 449 1311 440 1311 q 465 1311 457 1311 q 485 1306 476 1311 q 515 1282 493 1301 q 553 1248 526 1272 q 615 1194 581 1224 q 685 1133 650 1164 q 750 1078 721 1103 q 719 1078 733 1079 q 688 1078 704 1078 q 665 1080 672 1078 q 647 1092 658 1082 q 563 1159 624 1111 q 418 1274 503 1207 l 493 1247 q 449 1247 471 1247 q 404 1247 426 1247 l 479 1274 q 336 1160 394 1207 q 233 1078 278 1114 l 179 1078 q 169 1079 172 1078 q 164 1083 165 1081 q 163 1088 163 1085 q 169 1099 163 1093 q 197 1125 175 1106 q 245 1165 215 1140 q 308 1219 275 1190 q 370 1272 342 1247 q 415 1311 399 1297 m 753 1468 q 778 1468 769 1468 q 796 1468 788 1468 q 817 1468 804 1468 q 828 1462 825 1468 q 826 1447 832 1456 q 789 1384 804 1410 q 759 1333 774 1358 q 724 1274 744 1308 q 715 1265 719 1268 q 700 1263 711 1263 q 683 1263 690 1263 q 667 1263 675 1263 q 651 1263 660 1263 q 687 1334 672 1304 q 717 1394 701 1364 q 753 1468 732 1425 z "},"Ầ":{"ha":903,"x_min":56,"x_max":847,"o":"m 204 385 l 610 385 q 632 385 621 385 q 653 385 643 385 l 683 399 l 692 357 l 699 319 l 219 319 q 212 322 215 319 q 206 327 208 324 q 204 335 204 331 l 204 385 m 124 0 q 97 0 110 0 q 68 0 83 0 q 60 3 64 0 q 56 10 57 6 q 57 19 56 14 q 105 158 81 89 q 153 296 129 226 q 201 434 176 365 q 249 572 225 503 q 297 710 274 640 q 345 848 321 779 q 393 986 369 917 q 458 986 424 986 q 514 986 492 986 q 523 984 519 986 q 528 978 526 982 q 531 971 529 975 q 603 749 567 860 q 675 527 639 638 q 747 306 711 417 q 819 83 783 194 q 833 42 826 63 q 847 0 840 21 q 817 0 832 0 q 786 0 801 0 q 777 2 781 0 q 772 10 774 4 q 765 25 769 15 q 713 187 743 94 q 649 382 683 279 q 582 588 615 485 q 519 781 549 690 q 468 936 490 871 l 490 919 l 428 919 l 450 935 q 397 785 426 869 q 333 602 367 700 q 263 401 299 504 q 191 195 226 297 q 124 0 156 93 m 415 1311 q 432 1311 424 1311 q 449 1311 440 1311 q 465 1311 457 1311 q 485 1306 476 1311 q 515 1282 493 1301 q 553 1248 526 1272 q 615 1194 581 1224 q 685 1133 650 1164 q 750 1078 721 1103 q 719 1078 733 1079 q 688 1078 704 1078 q 665 1080 672 1078 q 647 1092 658 1082 q 563 1159 624 1111 q 418 1274 503 1207 l 493 1247 q 449 1247 471 1247 q 404 1247 426 1247 l 479 1274 q 336 1160 394 1207 q 233 1078 278 1114 l 179 1078 q 169 1079 172 1078 q 164 1083 165 1081 q 163 1088 163 1085 q 169 1099 163 1093 q 197 1125 175 1106 q 245 1165 215 1140 q 308 1219 275 1190 q 370 1272 342 1247 q 415 1311 399 1297 m 617 1468 q 653 1394 639 1425 q 683 1334 668 1364 q 718 1263 699 1304 q 702 1263 710 1263 q 687 1263 694 1263 q 669 1263 679 1263 q 655 1265 660 1263 q 646 1274 650 1268 q 611 1333 626 1308 q 581 1384 596 1358 q 543 1447 565 1410 q 541 1462 538 1456 q 553 1468 544 1468 q 574 1468 567 1468 q 592 1468 582 1468 q 617 1468 601 1468 z "},"Ẩ":{"ha":903,"x_min":56,"x_max":847,"o":"m 204 385 l 610 385 q 632 385 621 385 q 653 385 643 385 l 683 399 l 692 357 l 699 319 l 219 319 q 212 322 215 319 q 206 327 208 324 q 204 335 204 331 l 204 385 m 124 0 q 97 0 110 0 q 68 0 83 0 q 60 3 64 0 q 56 10 57 6 q 57 19 56 14 q 105 158 81 89 q 153 296 129 226 q 201 434 176 365 q 249 572 225 503 q 297 710 274 640 q 345 848 321 779 q 393 986 369 917 q 458 986 424 986 q 514 986 492 986 q 523 984 519 986 q 528 978 526 982 q 531 971 529 975 q 603 749 567 860 q 675 527 639 638 q 747 306 711 417 q 819 83 783 194 q 833 42 826 63 q 847 0 840 21 q 817 0 832 0 q 786 0 801 0 q 777 2 781 0 q 772 10 774 4 q 765 25 769 15 q 713 187 743 94 q 649 382 683 279 q 582 588 615 485 q 519 781 549 690 q 468 936 490 871 l 490 919 l 428 919 l 450 935 q 397 785 426 869 q 333 602 367 700 q 263 401 299 504 q 191 195 226 297 q 124 0 156 93 m 415 1311 q 432 1311 424 1311 q 449 1311 440 1311 q 465 1311 457 1311 q 485 1306 476 1311 q 515 1282 493 1301 q 553 1248 526 1272 q 615 1194 581 1224 q 685 1133 650 1164 q 750 1078 721 1103 q 719 1078 733 1079 q 688 1078 704 1078 q 665 1080 672 1078 q 647 1092 658 1082 q 563 1159 624 1111 q 418 1274 503 1207 l 493 1247 q 449 1247 471 1247 q 404 1247 426 1247 l 479 1274 q 336 1160 394 1207 q 233 1078 278 1114 l 179 1078 q 169 1079 172 1078 q 164 1083 165 1081 q 163 1088 163 1085 q 169 1099 163 1093 q 197 1125 175 1106 q 245 1165 215 1140 q 308 1219 275 1190 q 370 1272 342 1247 q 415 1311 399 1297 m 653 1253 q 676 1288 664 1271 q 700 1324 689 1306 q 717 1350 708 1336 q 733 1378 725 1364 q 733 1385 733 1381 q 733 1394 733 1389 q 709 1394 724 1394 q 682 1394 694 1394 q 640 1394 669 1394 q 593 1394 611 1394 l 563 1394 q 563 1416 563 1410 q 563 1438 563 1422 q 567 1449 563 1444 q 578 1453 571 1453 q 625 1453 597 1453 q 685 1453 653 1453 q 749 1453 717 1453 q 808 1453 781 1453 q 817 1451 814 1453 q 823 1447 821 1450 q 825 1438 825 1443 l 825 1400 q 810 1375 825 1399 q 774 1319 794 1351 q 742 1275 758 1297 q 714 1235 726 1253 q 695 1235 704 1235 q 677 1235 686 1235 q 657 1235 668 1235 q 647 1240 647 1235 q 653 1253 647 1246 z "},"Ẫ":{"ha":903,"x_min":56,"x_max":847,"o":"m 204 385 l 610 385 q 632 385 621 385 q 653 385 643 385 l 683 399 l 692 357 l 699 319 l 219 319 q 212 322 215 319 q 206 327 208 324 q 204 335 204 331 l 204 385 m 124 0 q 97 0 110 0 q 68 0 83 0 q 60 3 64 0 q 56 10 57 6 q 57 19 56 14 q 105 158 81 89 q 153 296 129 226 q 201 434 176 365 q 249 572 225 503 q 297 710 274 640 q 345 848 321 779 q 393 986 369 917 q 458 986 424 986 q 514 986 492 986 q 523 984 519 986 q 528 978 526 982 q 531 971 529 975 q 603 749 567 860 q 675 527 639 638 q 747 306 711 417 q 819 83 783 194 q 833 42 826 63 q 847 0 840 21 q 817 0 832 0 q 786 0 801 0 q 777 2 781 0 q 772 10 774 4 q 765 25 769 15 q 713 187 743 94 q 649 382 683 279 q 582 588 615 485 q 519 781 549 690 q 468 936 490 871 l 490 919 l 428 919 l 450 935 q 397 785 426 869 q 333 602 367 700 q 263 401 299 504 q 191 195 226 297 q 124 0 156 93 m 415 1311 q 432 1311 424 1311 q 449 1311 440 1311 q 465 1311 457 1311 q 485 1306 476 1311 q 515 1282 493 1301 q 553 1248 526 1272 q 615 1194 581 1224 q 685 1133 650 1164 q 750 1078 721 1103 q 719 1078 733 1079 q 688 1078 704 1078 q 665 1080 672 1078 q 647 1092 658 1082 q 563 1159 624 1111 q 418 1274 503 1207 l 493 1247 q 449 1247 471 1247 q 404 1247 426 1247 l 479 1274 q 336 1160 394 1207 q 233 1078 278 1114 l 179 1078 q 169 1079 172 1078 q 164 1083 165 1081 q 163 1088 163 1085 q 169 1099 163 1093 q 197 1125 175 1106 q 245 1165 215 1140 q 308 1219 275 1190 q 370 1272 342 1247 q 415 1311 399 1297 m 551 1407 q 592 1416 575 1407 q 626 1454 608 1425 l 642 1454 q 642 1424 642 1442 q 642 1392 642 1407 q 640 1383 642 1388 q 632 1371 639 1379 q 599 1344 618 1351 q 553 1336 581 1336 q 496 1350 522 1336 q 445 1381 469 1364 q 398 1413 421 1399 q 350 1426 375 1426 q 310 1415 328 1426 q 276 1379 293 1403 l 261 1379 q 261 1410 261 1392 q 261 1442 261 1428 q 263 1450 261 1444 q 271 1463 264 1456 q 308 1489 289 1481 q 354 1497 328 1497 q 408 1483 383 1497 q 457 1452 433 1469 q 503 1421 481 1435 q 551 1407 526 1407 z "},"Ậ":{"ha":903,"x_min":56,"x_max":847,"o":"m 396 -142 q 420 -142 408 -142 q 444 -142 432 -142 q 467 -142 456 -142 q 492 -142 479 -142 q 503 -146 499 -142 q 507 -157 507 -150 l 507 -253 q 483 -253 494 -253 q 459 -253 471 -253 q 435 -253 447 -253 q 411 -253 424 -253 q 400 -249 404 -253 q 396 -237 396 -244 l 396 -142 m 204 385 l 610 385 q 632 385 621 385 q 653 385 643 385 l 683 399 l 692 357 l 699 319 l 219 319 q 212 322 215 319 q 206 327 208 324 q 204 335 204 331 l 204 385 m 124 0 q 97 0 110 0 q 68 0 83 0 q 60 3 64 0 q 56 10 57 6 q 57 19 56 14 q 105 158 81 89 q 153 296 129 226 q 201 434 176 365 q 249 572 225 503 q 297 710 274 640 q 345 848 321 779 q 393 986 369 917 q 458 986 424 986 q 514 986 492 986 q 523 984 519 986 q 528 978 526 982 q 531 971 529 975 q 603 749 567 860 q 675 527 639 638 q 747 306 711 417 q 819 83 783 194 q 833 42 826 63 q 847 0 840 21 q 817 0 832 0 q 786 0 801 0 q 777 2 781 0 q 772 10 774 4 q 765 25 769 15 q 713 187 743 94 q 649 382 683 279 q 582 588 615 485 q 519 781 549 690 q 468 936 490 871 l 490 919 l 428 919 l 450 935 q 397 785 426 869 q 333 602 367 700 q 263 401 299 504 q 191 195 226 297 q 124 0 156 93 m 415 1311 q 432 1311 424 1311 q 449 1311 440 1311 q 465 1311 457 1311 q 485 1306 476 1311 q 515 1282 493 1301 q 553 1248 526 1272 q 615 1194 581 1224 q 685 1133 650 1164 q 750 1078 721 1103 q 719 1078 733 1079 q 688 1078 704 1078 q 665 1080 672 1078 q 647 1092 658 1082 q 563 1159 624 1111 q 418 1274 503 1207 l 493 1247 q 449 1247 471 1247 q 404 1247 426 1247 l 479 1274 q 336 1160 394 1207 q 233 1078 278 1114 l 179 1078 q 169 1079 172 1078 q 164 1083 165 1081 q 163 1088 163 1085 q 169 1099 163 1093 q 197 1125 175 1106 q 245 1165 215 1140 q 308 1219 275 1190 q 370 1272 342 1247 q 415 1311 399 1297 z "},"Ắ":{"ha":903,"x_min":56,"x_max":847,"o":"m 204 385 l 610 385 q 632 385 621 385 q 653 385 643 385 l 683 399 l 692 357 l 699 319 l 219 319 q 212 322 215 319 q 206 327 208 324 q 204 335 204 331 l 204 385 m 124 0 q 97 0 110 0 q 68 0 83 0 q 60 3 64 0 q 56 10 57 6 q 57 19 56 14 q 105 158 81 89 q 153 296 129 226 q 201 434 176 365 q 249 572 225 503 q 297 710 274 640 q 345 848 321 779 q 393 986 369 917 q 458 986 424 986 q 514 986 492 986 q 523 984 519 986 q 528 978 526 982 q 531 971 529 975 q 603 749 567 860 q 675 527 639 638 q 747 306 711 417 q 819 83 783 194 q 833 42 826 63 q 847 0 840 21 q 817 0 832 0 q 786 0 801 0 q 777 2 781 0 q 772 10 774 4 q 765 25 769 15 q 713 187 743 94 q 649 382 683 279 q 582 588 615 485 q 519 781 549 690 q 468 936 490 871 l 490 919 l 428 919 l 450 935 q 397 785 426 869 q 333 602 367 700 q 263 401 299 504 q 191 195 226 297 q 124 0 156 93 m 631 1299 q 652 1299 642 1299 q 674 1299 663 1299 q 691 1290 688 1299 q 689 1267 694 1282 q 640 1188 674 1221 q 562 1136 607 1154 q 461 1118 517 1118 l 442 1118 q 342 1136 388 1118 q 263 1188 296 1154 q 214 1267 231 1221 q 212 1290 208 1282 q 229 1299 215 1299 q 251 1299 240 1299 q 272 1299 261 1299 q 343 1208 300 1235 q 451 1182 386 1182 q 560 1208 517 1182 q 631 1299 603 1235 m 519 1532 q 545 1532 536 1532 q 563 1532 554 1532 q 583 1532 571 1532 q 595 1526 592 1532 q 593 1511 599 1519 q 556 1448 571 1474 q 526 1397 540 1422 q 490 1338 511 1372 q 482 1329 486 1332 q 467 1326 478 1326 q 449 1326 457 1326 q 434 1326 442 1326 q 418 1326 426 1326 q 453 1398 439 1368 q 483 1458 468 1428 q 519 1532 499 1489 z "},"Ằ":{"ha":903,"x_min":56,"x_max":847,"o":"m 204 385 l 610 385 q 632 385 621 385 q 653 385 643 385 l 683 399 l 692 357 l 699 319 l 219 319 q 212 322 215 319 q 206 327 208 324 q 204 335 204 331 l 204 385 m 124 0 q 97 0 110 0 q 68 0 83 0 q 60 3 64 0 q 56 10 57 6 q 57 19 56 14 q 105 158 81 89 q 153 296 129 226 q 201 434 176 365 q 249 572 225 503 q 297 710 274 640 q 345 848 321 779 q 393 986 369 917 q 458 986 424 986 q 514 986 492 986 q 523 984 519 986 q 528 978 526 982 q 531 971 529 975 q 603 749 567 860 q 675 527 639 638 q 747 306 711 417 q 819 83 783 194 q 833 42 826 63 q 847 0 840 21 q 817 0 832 0 q 786 0 801 0 q 777 2 781 0 q 772 10 774 4 q 765 25 769 15 q 713 187 743 94 q 649 382 683 279 q 582 588 615 485 q 519 781 549 690 q 468 936 490 871 l 490 919 l 428 919 l 450 935 q 397 785 426 869 q 333 602 367 700 q 263 401 299 504 q 191 195 226 297 q 124 0 156 93 m 631 1299 q 652 1299 642 1299 q 674 1299 663 1299 q 691 1290 688 1299 q 689 1267 694 1282 q 640 1188 674 1221 q 562 1136 607 1154 q 461 1118 517 1118 l 442 1118 q 342 1136 388 1118 q 263 1188 296 1154 q 214 1267 231 1221 q 212 1290 208 1282 q 229 1299 215 1299 q 251 1299 240 1299 q 272 1299 261 1299 q 343 1208 300 1235 q 451 1182 386 1182 q 560 1208 517 1182 q 631 1299 603 1235 m 383 1532 q 420 1458 406 1489 q 450 1398 435 1428 q 485 1326 465 1368 q 469 1326 476 1326 q 453 1326 461 1326 q 436 1326 446 1326 q 422 1329 426 1326 q 413 1338 417 1332 q 378 1397 393 1372 q 347 1448 363 1422 q 310 1511 332 1474 q 308 1526 304 1519 q 319 1532 311 1532 q 341 1532 333 1532 q 358 1532 349 1532 q 383 1532 368 1532 z "},"Ẳ":{"ha":903,"x_min":56,"x_max":847,"o":"m 204 385 l 610 385 q 632 385 621 385 q 653 385 643 385 l 683 399 l 692 357 l 699 319 l 219 319 q 212 322 215 319 q 206 327 208 324 q 204 335 204 331 l 204 385 m 124 0 q 97 0 110 0 q 68 0 83 0 q 60 3 64 0 q 56 10 57 6 q 57 19 56 14 q 105 158 81 89 q 153 296 129 226 q 201 434 176 365 q 249 572 225 503 q 297 710 274 640 q 345 848 321 779 q 393 986 369 917 q 458 986 424 986 q 514 986 492 986 q 523 984 519 986 q 528 978 526 982 q 531 971 529 975 q 603 749 567 860 q 675 527 639 638 q 747 306 711 417 q 819 83 783 194 q 833 42 826 63 q 847 0 840 21 q 817 0 832 0 q 786 0 801 0 q 777 2 781 0 q 772 10 774 4 q 765 25 769 15 q 713 187 743 94 q 649 382 683 279 q 582 588 615 485 q 519 781 549 690 q 468 936 490 871 l 490 919 l 428 919 l 450 935 q 397 785 426 869 q 333 602 367 700 q 263 401 299 504 q 191 195 226 297 q 124 0 156 93 m 631 1299 q 652 1299 642 1299 q 674 1299 663 1299 q 691 1290 688 1299 q 689 1267 694 1282 q 640 1188 674 1221 q 562 1136 607 1154 q 461 1118 517 1118 l 442 1118 q 342 1136 388 1118 q 263 1188 296 1154 q 214 1267 231 1221 q 212 1290 208 1282 q 229 1299 215 1299 q 251 1299 240 1299 q 272 1299 261 1299 q 343 1208 300 1235 q 451 1182 386 1182 q 560 1208 517 1182 q 631 1299 603 1235 m 419 1328 q 443 1363 431 1346 q 467 1399 456 1381 q 483 1425 475 1411 q 500 1453 492 1439 q 500 1460 500 1456 q 500 1469 500 1464 q 476 1469 490 1469 q 449 1469 461 1469 q 407 1469 436 1469 q 360 1469 378 1469 l 329 1469 q 329 1491 329 1485 q 329 1513 329 1497 q 333 1524 329 1519 q 344 1528 338 1528 q 392 1528 364 1528 q 451 1528 419 1528 q 515 1528 483 1528 q 575 1528 547 1528 q 584 1526 581 1528 q 590 1522 588 1525 q 592 1513 592 1518 l 592 1475 q 576 1450 592 1474 q 540 1394 561 1426 q 509 1350 525 1372 q 481 1310 493 1328 q 462 1310 471 1310 q 444 1310 453 1310 q 424 1310 435 1310 q 414 1315 414 1310 q 419 1328 414 1321 z "},"Ẵ":{"ha":903,"x_min":56,"x_max":847,"o":"m 204 385 l 610 385 q 632 385 621 385 q 653 385 643 385 l 683 399 l 692 357 l 699 319 l 219 319 q 212 322 215 319 q 206 327 208 324 q 204 335 204 331 l 204 385 m 124 0 q 97 0 110 0 q 68 0 83 0 q 60 3 64 0 q 56 10 57 6 q 57 19 56 14 q 105 158 81 89 q 153 296 129 226 q 201 434 176 365 q 249 572 225 503 q 297 710 274 640 q 345 848 321 779 q 393 986 369 917 q 458 986 424 986 q 514 986 492 986 q 523 984 519 986 q 528 978 526 982 q 531 971 529 975 q 603 749 567 860 q 675 527 639 638 q 747 306 711 417 q 819 83 783 194 q 833 42 826 63 q 847 0 840 21 q 817 0 832 0 q 786 0 801 0 q 777 2 781 0 q 772 10 774 4 q 765 25 769 15 q 713 187 743 94 q 649 382 683 279 q 582 588 615 485 q 519 781 549 690 q 468 936 490 871 l 490 919 l 428 919 l 450 935 q 397 785 426 869 q 333 602 367 700 q 263 401 299 504 q 191 195 226 297 q 124 0 156 93 m 631 1299 q 652 1299 642 1299 q 674 1299 663 1299 q 691 1290 688 1299 q 689 1267 694 1282 q 640 1188 674 1221 q 562 1136 607 1154 q 461 1118 517 1118 l 442 1118 q 342 1136 388 1118 q 263 1188 296 1154 q 214 1267 231 1221 q 212 1290 208 1282 q 229 1299 215 1299 q 251 1299 240 1299 q 272 1299 261 1299 q 343 1208 300 1235 q 451 1182 386 1182 q 560 1208 517 1182 q 631 1299 603 1235 m 551 1435 q 592 1444 575 1435 q 626 1482 608 1453 l 642 1482 q 642 1452 642 1469 q 642 1419 642 1435 q 640 1411 642 1415 q 632 1399 639 1407 q 599 1372 618 1379 q 553 1364 581 1364 q 496 1378 522 1364 q 445 1409 469 1392 q 398 1440 421 1426 q 350 1454 375 1454 q 310 1442 328 1454 q 276 1407 293 1431 l 261 1407 q 261 1438 261 1419 q 261 1469 261 1456 q 263 1478 261 1472 q 271 1490 264 1483 q 308 1517 289 1508 q 354 1525 328 1525 q 408 1511 383 1525 q 457 1480 433 1497 q 503 1449 481 1463 q 551 1435 526 1435 z "},"Ặ":{"ha":903,"x_min":56,"x_max":847,"o":"m 396 -142 q 420 -142 408 -142 q 444 -142 432 -142 q 467 -142 456 -142 q 492 -142 479 -142 q 503 -146 499 -142 q 507 -157 507 -150 l 507 -253 q 483 -253 494 -253 q 459 -253 471 -253 q 435 -253 447 -253 q 411 -253 424 -253 q 400 -249 404 -253 q 396 -237 396 -244 l 396 -142 m 204 385 l 610 385 q 632 385 621 385 q 653 385 643 385 l 683 399 l 692 357 l 699 319 l 219 319 q 212 322 215 319 q 206 327 208 324 q 204 335 204 331 l 204 385 m 124 0 q 97 0 110 0 q 68 0 83 0 q 60 3 64 0 q 56 10 57 6 q 57 19 56 14 q 105 158 81 89 q 153 296 129 226 q 201 434 176 365 q 249 572 225 503 q 297 710 274 640 q 345 848 321 779 q 393 986 369 917 q 458 986 424 986 q 514 986 492 986 q 523 984 519 986 q 528 978 526 982 q 531 971 529 975 q 603 749 567 860 q 675 527 639 638 q 747 306 711 417 q 819 83 783 194 q 833 42 826 63 q 847 0 840 21 q 817 0 832 0 q 786 0 801 0 q 777 2 781 0 q 772 10 774 4 q 765 25 769 15 q 713 187 743 94 q 649 382 683 279 q 582 588 615 485 q 519 781 549 690 q 468 936 490 871 l 490 919 l 428 919 l 450 935 q 397 785 426 869 q 333 602 367 700 q 263 401 299 504 q 191 195 226 297 q 124 0 156 93 m 631 1299 q 652 1299 642 1299 q 674 1299 663 1299 q 691 1290 688 1299 q 689 1267 694 1282 q 640 1188 674 1221 q 562 1136 607 1154 q 461 1118 517 1118 l 442 1118 q 342 1136 388 1118 q 263 1188 296 1154 q 214 1267 231 1221 q 212 1290 208 1282 q 229 1299 215 1299 q 251 1299 240 1299 q 272 1299 261 1299 q 343 1208 300 1235 q 451 1182 386 1182 q 560 1208 517 1182 q 631 1299 603 1235 z "},"B":{"ha":833,"x_min":42,"x_max":728,"o":"m 464 0 q 377 0 425 0 q 282 0 329 0 q 200 0 235 0 q 154 0 165 0 q 143 4 147 0 q 139 15 139 8 q 139 247 139 133 q 139 473 139 361 q 139 699 139 585 q 139 931 139 813 l 217 931 l 208 913 q 208 786 208 843 q 208 660 208 729 q 208 510 208 585 q 208 363 208 436 q 208 215 208 289 q 208 65 208 140 q 287 65 251 65 q 358 65 322 65 q 435 65 393 65 q 562 88 513 65 q 635 154 611 111 q 658 257 658 197 l 658 293 q 635 378 658 340 q 551 440 611 417 q 382 463 492 463 l 183 463 l 183 514 l 561 514 l 561 494 q 687 422 646 474 q 728 292 728 369 l 728 257 q 695 115 728 172 q 603 28 663 57 q 464 0 543 0 m 42 972 q 236 972 139 972 q 431 972 333 972 q 554 957 501 972 q 641 913 607 942 q 692 842 675 883 q 708 749 708 800 l 708 714 q 688 612 708 656 q 627 538 668 568 q 524 492 586 507 q 375 476 461 476 q 284 476 329 476 q 193 476 239 476 l 183 469 l 183 528 q 283 528 233 528 q 382 528 332 528 q 544 551 489 528 q 619 617 599 575 q 639 713 639 660 l 639 749 q 630 810 639 783 q 600 857 621 838 q 535 894 576 881 q 431 907 493 907 q 306 907 368 907 q 182 907 244 907 q 57 907 119 907 q 46 911 50 907 q 42 922 42 915 q 42 947 42 935 q 42 972 42 960 z "},"C":{"ha":833,"x_min":104,"x_max":728,"o":"m 451 -28 q 303 -3 368 -28 q 194 69 239 22 q 127 183 150 117 q 104 335 104 250 l 104 638 q 127 789 104 722 q 194 903 150 856 q 303 975 239 950 q 451 1000 368 1000 q 571 988 519 1000 q 660 953 622 975 q 722 907 697 932 q 726 903 725 906 q 727 897 726 900 q 728 893 728 894 q 728 794 728 844 q 728 694 728 743 q 701 694 714 694 q 674 694 688 694 q 663 699 667 694 q 658 710 658 703 q 658 781 658 746 q 658 852 658 817 q 658 922 658 888 l 690 851 q 583 915 640 896 q 451 935 526 935 q 303 900 365 935 q 209 798 242 865 q 176 631 176 731 l 176 342 q 195 210 176 269 q 257 107 214 151 q 342 54 293 71 q 451 38 392 38 q 593 64 533 38 q 711 139 653 90 l 728 139 q 728 124 728 132 q 728 109 728 117 q 728 95 728 101 q 728 85 728 89 q 726 77 728 81 q 722 71 725 74 q 649 17 690 39 q 558 -16 608 -4 q 451 -28 508 -28 z "},"Ç":{"ha":833,"x_min":104,"x_max":728,"o":"m 451 -28 q 303 -3 368 -28 q 194 69 239 22 q 127 183 150 117 q 104 335 104 250 l 104 638 q 127 789 104 722 q 194 903 150 856 q 303 975 239 950 q 451 1000 368 1000 q 571 988 519 1000 q 660 953 622 975 q 722 907 697 932 q 726 903 725 906 q 727 897 726 900 q 728 893 728 894 q 728 794 728 844 q 728 694 728 743 q 701 694 714 694 q 674 694 688 694 q 663 699 667 694 q 658 710 658 703 q 658 781 658 746 q 658 852 658 817 q 658 922 658 888 l 690 851 q 583 915 640 896 q 451 935 526 935 q 303 900 365 935 q 209 798 242 865 q 176 631 176 731 l 176 342 q 195 210 176 269 q 257 107 214 151 q 342 54 293 71 q 451 38 392 38 q 593 64 533 38 q 711 139 653 90 l 728 139 q 728 124 728 132 q 728 109 728 117 q 728 95 728 101 q 728 85 728 89 q 726 77 728 81 q 722 71 725 74 q 649 17 690 39 q 558 -16 608 -4 q 451 -28 508 -28 m 597 -172 q 554 -267 597 -229 q 433 -306 511 -306 q 374 -299 397 -306 q 338 -283 350 -293 q 326 -267 326 -274 q 326 -248 326 -256 q 326 -233 326 -240 q 326 -219 326 -226 l 343 -219 q 378 -240 358 -233 q 436 -247 397 -247 q 508 -228 481 -247 q 535 -174 535 -208 q 515 -126 535 -142 q 432 -108 494 -110 q 421 -104 425 -108 q 417 -93 417 -100 q 422 -66 419 -79 q 426 -40 424 -53 q 431 -14 429 -26 q 436 13 433 -1 q 442 26 438 22 q 460 30 447 29 q 501 31 474 31 q 498 13 500 22 q 494 -5 496 4 q 491 -23 493 -14 q 488 -40 489 -32 l 483 -58 q 567 -90 536 -61 q 597 -172 597 -119 z "},"Ć":{"ha":833,"x_min":104,"x_max":728,"o":"m 451 -28 q 303 -3 368 -28 q 194 69 239 22 q 127 183 150 117 q 104 335 104 250 l 104 638 q 127 789 104 722 q 194 903 150 856 q 303 975 239 950 q 451 1000 368 1000 q 571 988 519 1000 q 660 953 622 975 q 722 907 697 932 q 726 903 725 906 q 727 897 726 900 q 728 893 728 894 q 728 794 728 844 q 728 694 728 743 q 701 694 714 694 q 674 694 688 694 q 663 699 667 694 q 658 710 658 703 q 658 781 658 746 q 658 852 658 817 q 658 922 658 888 l 690 851 q 583 915 640 896 q 451 935 526 935 q 303 900 365 935 q 209 798 242 865 q 176 631 176 731 l 176 342 q 195 210 176 269 q 257 107 214 151 q 342 54 293 71 q 451 38 392 38 q 593 64 533 38 q 711 139 653 90 l 728 139 q 728 124 728 132 q 728 109 728 117 q 728 95 728 101 q 728 85 728 89 q 726 77 728 81 q 722 71 725 74 q 649 17 690 39 q 558 -16 608 -4 q 451 -28 508 -28 m 592 1310 q 617 1310 608 1310 q 634 1310 626 1310 q 656 1310 642 1310 q 668 1303 664 1310 q 665 1289 672 1296 q 622 1235 640 1258 q 588 1192 604 1213 q 553 1148 572 1172 q 504 1088 533 1124 q 495 1080 501 1083 q 481 1076 489 1076 q 463 1076 471 1076 q 448 1076 456 1076 q 432 1076 440 1076 q 486 1155 461 1118 q 537 1229 511 1192 q 592 1310 563 1267 z "},"Ĉ":{"ha":833,"x_min":104,"x_max":764,"o":"m 451 -28 q 303 -3 368 -28 q 194 69 239 22 q 127 183 150 117 q 104 335 104 250 l 104 638 q 127 789 104 722 q 194 903 150 856 q 303 975 239 950 q 451 1000 368 1000 q 571 988 519 1000 q 660 953 622 975 q 722 907 697 932 q 726 903 725 906 q 727 897 726 900 q 728 893 728 894 q 728 794 728 844 q 728 694 728 743 q 701 694 714 694 q 674 694 688 694 q 663 699 667 694 q 658 710 658 703 q 658 781 658 746 q 658 852 658 817 q 658 922 658 888 l 690 851 q 583 915 640 896 q 451 935 526 935 q 303 900 365 935 q 209 798 242 865 q 176 631 176 731 l 176 342 q 195 210 176 269 q 257 107 214 151 q 342 54 293 71 q 451 38 392 38 q 593 64 533 38 q 711 139 653 90 l 728 139 q 728 124 728 132 q 728 109 728 117 q 728 95 728 101 q 728 85 728 89 q 726 77 728 81 q 722 71 725 74 q 649 17 690 39 q 558 -16 608 -4 q 451 -28 508 -28 m 429 1311 q 446 1311 438 1311 q 463 1311 454 1311 q 479 1311 471 1311 q 499 1306 490 1311 q 529 1282 507 1301 q 567 1248 540 1272 q 629 1194 594 1224 q 699 1133 664 1164 q 764 1078 735 1103 q 733 1078 747 1079 q 701 1078 718 1078 q 679 1080 686 1078 q 661 1092 672 1082 q 577 1159 638 1111 q 432 1274 517 1207 l 507 1247 q 463 1247 485 1247 q 418 1247 440 1247 l 493 1274 q 350 1160 408 1207 q 247 1078 292 1114 l 193 1078 q 183 1079 186 1078 q 178 1083 179 1081 q 176 1088 176 1085 q 183 1099 176 1093 q 211 1125 189 1106 q 259 1165 229 1140 q 322 1219 289 1190 q 384 1272 356 1247 q 429 1311 413 1297 z "},"Ċ":{"ha":833,"x_min":104,"x_max":728,"o":"m 410 1233 q 434 1233 422 1233 q 458 1233 446 1233 q 481 1233 469 1233 q 506 1233 493 1233 q 517 1229 513 1233 q 521 1218 521 1225 l 521 1122 q 497 1122 508 1122 q 473 1122 485 1122 q 449 1122 461 1122 q 425 1122 438 1122 q 414 1126 418 1122 q 410 1138 410 1131 l 410 1233 m 451 -28 q 303 -3 368 -28 q 194 69 239 22 q 127 183 150 117 q 104 335 104 250 l 104 638 q 127 789 104 722 q 194 903 150 856 q 303 975 239 950 q 451 1000 368 1000 q 571 988 519 1000 q 660 953 622 975 q 722 907 697 932 q 726 903 725 906 q 727 897 726 900 q 728 893 728 894 q 728 794 728 844 q 728 694 728 743 q 701 694 714 694 q 674 694 688 694 q 663 699 667 694 q 658 710 658 703 q 658 781 658 746 q 658 852 658 817 q 658 922 658 888 l 690 851 q 583 915 640 896 q 451 935 526 935 q 303 900 365 935 q 209 798 242 865 q 176 631 176 731 l 176 342 q 195 210 176 269 q 257 107 214 151 q 342 54 293 71 q 451 38 392 38 q 593 64 533 38 q 711 139 653 90 l 728 139 q 728 124 728 132 q 728 109 728 117 q 728 95 728 101 q 728 85 728 89 q 726 77 728 81 q 722 71 725 74 q 649 17 690 39 q 558 -16 608 -4 q 451 -28 508 -28 z "},"Č":{"ha":833,"x_min":104,"x_max":753,"o":"m 500 1078 q 483 1078 492 1078 q 467 1078 475 1078 q 450 1078 458 1078 q 432 1083 440 1078 q 400 1107 424 1089 q 362 1142 389 1118 q 300 1195 335 1165 q 230 1256 265 1225 q 165 1311 194 1286 q 197 1310 182 1310 q 228 1311 211 1311 q 250 1309 243 1311 q 268 1297 257 1307 q 352 1231 292 1279 q 497 1115 413 1182 l 422 1142 q 467 1142 444 1142 q 511 1142 489 1142 l 436 1115 q 581 1229 522 1182 q 682 1311 639 1276 l 736 1311 q 747 1310 743 1311 q 751 1306 750 1308 q 753 1301 753 1304 q 747 1290 753 1296 q 718 1264 742 1283 q 670 1224 700 1249 q 607 1170 640 1199 q 545 1117 574 1142 q 500 1078 517 1092 m 451 -28 q 303 -3 368 -28 q 194 69 239 22 q 127 183 150 117 q 104 335 104 250 l 104 638 q 127 789 104 722 q 194 903 150 856 q 303 975 239 950 q 451 1000 368 1000 q 571 988 519 1000 q 660 953 622 975 q 722 907 697 932 q 726 903 725 906 q 727 897 726 900 q 728 893 728 894 q 728 794 728 844 q 728 694 728 743 q 701 694 714 694 q 674 694 688 694 q 663 699 667 694 q 658 710 658 703 q 658 781 658 746 q 658 852 658 817 q 658 922 658 888 l 690 851 q 583 915 640 896 q 451 935 526 935 q 303 900 365 935 q 209 798 242 865 q 176 631 176 731 l 176 342 q 195 210 176 269 q 257 107 214 151 q 342 54 293 71 q 451 38 392 38 q 593 64 533 38 q 711 139 653 90 l 728 139 q 728 124 728 132 q 728 109 728 117 q 728 95 728 101 q 728 85 728 89 q 726 77 728 81 q 722 71 725 74 q 649 17 690 39 q 558 -16 608 -4 q 451 -28 508 -28 z "},"Ḉ":{"ha":833,"x_min":104,"x_max":728,"o":"m 451 -28 q 303 -3 368 -28 q 194 69 239 22 q 127 183 150 117 q 104 335 104 250 l 104 638 q 127 789 104 722 q 194 903 150 856 q 303 975 239 950 q 451 1000 368 1000 q 571 988 519 1000 q 660 953 622 975 q 722 907 697 932 q 726 903 725 906 q 727 897 726 900 q 728 893 728 894 q 728 794 728 844 q 728 694 728 743 q 701 694 714 694 q 674 694 688 694 q 663 699 667 694 q 658 710 658 703 q 658 781 658 746 q 658 852 658 817 q 658 922 658 888 l 690 851 q 583 915 640 896 q 451 935 526 935 q 303 900 365 935 q 209 798 242 865 q 176 631 176 731 l 176 342 q 195 210 176 269 q 257 107 214 151 q 342 54 293 71 q 451 38 392 38 q 593 64 533 38 q 711 139 653 90 l 728 139 q 728 124 728 132 q 728 109 728 117 q 728 95 728 101 q 728 85 728 89 q 726 77 728 81 q 722 71 725 74 q 649 17 690 39 q 558 -16 608 -4 q 451 -28 508 -28 m 597 -172 q 554 -267 597 -229 q 433 -306 511 -306 q 374 -299 397 -306 q 338 -283 350 -293 q 326 -267 326 -274 q 326 -248 326 -256 q 326 -233 326 -240 q 326 -219 326 -226 l 343 -219 q 378 -240 358 -233 q 436 -247 397 -247 q 508 -228 481 -247 q 535 -174 535 -208 q 515 -126 535 -142 q 432 -108 494 -110 q 421 -104 425 -108 q 417 -93 417 -100 q 422 -66 419 -79 q 426 -40 424 -53 q 431 -14 429 -26 q 436 13 433 -1 q 442 26 438 22 q 460 30 447 29 q 501 31 474 31 q 498 13 500 22 q 494 -5 496 4 q 491 -23 493 -14 q 488 -40 489 -32 l 483 -58 q 567 -90 536 -61 q 597 -172 597 -119 m 592 1310 q 617 1310 608 1310 q 634 1310 626 1310 q 656 1310 642 1310 q 668 1303 664 1310 q 665 1289 672 1296 q 622 1235 640 1258 q 588 1192 604 1213 q 553 1148 572 1172 q 504 1088 533 1124 q 495 1080 501 1083 q 481 1076 489 1076 q 463 1076 471 1076 q 448 1076 456 1076 q 432 1076 440 1076 q 486 1155 461 1118 q 537 1229 511 1192 q 592 1310 563 1267 z "},"D":{"ha":903,"x_min":42,"x_max":799,"o":"m 799 340 q 771 184 799 249 q 692 79 743 119 q 572 19 640 39 q 419 0 503 0 q 355 0 385 0 q 299 0 325 0 q 247 0 272 0 q 199 0 222 0 q 154 0 176 0 q 144 5 149 0 q 139 15 139 10 q 139 248 139 132 q 139 480 139 364 q 139 712 139 596 q 139 944 139 828 l 221 944 l 211 929 q 211 851 211 890 q 211 772 211 813 q 211 597 211 685 q 211 419 211 508 q 211 242 211 331 q 211 65 211 154 q 268 65 239 65 q 333 65 297 65 q 415 65 368 65 q 593 94 524 65 q 696 185 663 124 q 729 346 729 247 l 729 626 q 721 720 729 679 q 695 793 713 761 q 650 847 678 825 q 588 884 621 871 q 510 902 554 897 q 404 907 465 907 q 307 907 353 907 q 219 907 261 907 q 137 907 176 907 q 57 907 97 907 q 49 909 53 907 q 44 915 46 911 q 42 922 42 918 q 42 947 42 935 q 42 972 42 960 q 126 972 83 972 q 216 972 169 972 q 316 972 263 972 q 433 972 369 972 q 585 953 518 972 q 701 893 653 933 q 774 788 749 853 q 799 632 799 724 l 799 340 z "},"Ď":{"ha":903,"x_min":42,"x_max":799,"o":"m 799 340 q 771 184 799 249 q 692 79 743 119 q 572 19 640 39 q 419 0 503 0 q 355 0 385 0 q 299 0 325 0 q 247 0 272 0 q 199 0 222 0 q 154 0 176 0 q 144 5 149 0 q 139 15 139 10 q 139 248 139 132 q 139 480 139 364 q 139 712 139 596 q 139 944 139 828 l 221 944 l 211 929 q 211 851 211 890 q 211 772 211 813 q 211 597 211 685 q 211 419 211 508 q 211 242 211 331 q 211 65 211 154 q 268 65 239 65 q 333 65 297 65 q 415 65 368 65 q 593 94 524 65 q 696 185 663 124 q 729 346 729 247 l 729 626 q 721 720 729 679 q 695 793 713 761 q 650 847 678 825 q 588 884 621 871 q 510 902 554 897 q 404 907 465 907 q 307 907 353 907 q 219 907 261 907 q 137 907 176 907 q 57 907 97 907 q 49 909 53 907 q 44 915 46 911 q 42 922 42 918 q 42 947 42 935 q 42 972 42 960 q 126 972 83 972 q 216 972 169 972 q 316 972 263 972 q 433 972 369 972 q 585 953 518 972 q 701 893 653 933 q 774 788 749 853 q 799 632 799 724 l 799 340 m 454 1078 q 438 1078 446 1078 q 421 1078 429 1078 q 404 1078 413 1078 q 386 1083 394 1078 q 354 1107 378 1089 q 316 1142 343 1118 q 254 1195 289 1165 q 184 1256 219 1225 q 119 1311 149 1286 q 151 1310 136 1310 q 182 1311 165 1311 q 204 1309 197 1311 q 222 1297 211 1307 q 306 1231 246 1279 q 451 1115 367 1182 l 376 1142 q 421 1142 399 1142 q 465 1142 443 1142 l 390 1115 q 535 1229 476 1182 q 636 1311 593 1276 l 690 1311 q 701 1310 697 1311 q 706 1306 704 1308 q 707 1301 707 1304 q 701 1290 707 1296 q 672 1264 696 1283 q 624 1224 654 1249 q 561 1170 594 1199 q 499 1117 528 1142 q 454 1078 471 1092 z "},"Ḍ":{"ha":903,"x_min":42,"x_max":799,"o":"m 375 -142 q 399 -142 388 -142 q 423 -142 411 -142 q 447 -142 435 -142 q 471 -142 458 -142 q 482 -146 478 -142 q 486 -157 486 -150 l 486 -253 q 462 -253 474 -253 q 438 -253 450 -253 q 415 -253 426 -253 q 390 -253 403 -253 q 379 -249 383 -253 q 375 -237 375 -244 l 375 -142 m 799 340 q 771 184 799 249 q 692 79 743 119 q 572 19 640 39 q 419 0 503 0 q 355 0 385 0 q 299 0 325 0 q 247 0 272 0 q 199 0 222 0 q 154 0 176 0 q 144 5 149 0 q 139 15 139 10 q 139 248 139 132 q 139 480 139 364 q 139 712 139 596 q 139 944 139 828 l 221 944 l 211 929 q 211 851 211 890 q 211 772 211 813 q 211 597 211 685 q 211 419 211 508 q 211 242 211 331 q 211 65 211 154 q 268 65 239 65 q 333 65 297 65 q 415 65 368 65 q 593 94 524 65 q 696 185 663 124 q 729 346 729 247 l 729 626 q 721 720 729 679 q 695 793 713 761 q 650 847 678 825 q 588 884 621 871 q 510 902 554 897 q 404 907 465 907 q 307 907 353 907 q 219 907 261 907 q 137 907 176 907 q 57 907 97 907 q 49 909 53 907 q 44 915 46 911 q 42 922 42 918 q 42 947 42 935 q 42 972 42 960 q 126 972 83 972 q 216 972 169 972 q 316 972 263 972 q 433 972 369 972 q 585 953 518 972 q 701 893 653 933 q 774 788 749 853 q 799 632 799 724 l 799 340 z "},"Ḏ":{"ha":903,"x_min":42,"x_max":799,"o":"m 189 -125 l 657 -125 q 668 -129 664 -125 q 672 -140 672 -133 q 672 -158 672 -149 q 672 -176 672 -167 q 672 -194 672 -185 l 204 -194 q 197 -192 200 -194 q 191 -187 193 -190 q 189 -179 189 -183 q 189 -160 189 -169 q 189 -142 189 -151 q 189 -125 189 -133 m 799 340 q 771 184 799 249 q 692 79 743 119 q 572 19 640 39 q 419 0 503 0 q 355 0 385 0 q 299 0 325 0 q 247 0 272 0 q 199 0 222 0 q 154 0 176 0 q 144 5 149 0 q 139 15 139 10 q 139 248 139 132 q 139 480 139 364 q 139 712 139 596 q 139 944 139 828 l 221 944 l 211 929 q 211 851 211 890 q 211 772 211 813 q 211 597 211 685 q 211 419 211 508 q 211 242 211 331 q 211 65 211 154 q 268 65 239 65 q 333 65 297 65 q 415 65 368 65 q 593 94 524 65 q 696 185 663 124 q 729 346 729 247 l 729 626 q 721 720 729 679 q 695 793 713 761 q 650 847 678 825 q 588 884 621 871 q 510 902 554 897 q 404 907 465 907 q 307 907 353 907 q 219 907 261 907 q 137 907 176 907 q 57 907 97 907 q 49 909 53 907 q 44 915 46 911 q 42 922 42 918 q 42 947 42 935 q 42 972 42 960 q 126 972 83 972 q 216 972 169 972 q 316 972 263 972 q 433 972 369 972 q 585 953 518 972 q 701 893 653 933 q 774 788 749 853 q 799 632 799 724 l 799 340 z "},"E":{"ha":764,"x_min":28,"x_max":681,"o":"m 28 972 l 665 972 q 674 970 671 972 q 678 965 676 968 q 681 957 681 961 q 681 932 681 943 q 681 907 681 921 l 43 907 q 35 909 39 907 q 30 915 32 911 q 28 922 28 918 q 28 947 28 936 q 28 972 28 958 m 153 528 l 596 528 q 603 526 600 528 q 609 521 607 524 q 611 513 611 518 q 611 496 611 504 q 611 480 611 488 q 611 463 611 472 l 153 463 l 153 528 m 140 0 q 135 1 138 0 q 130 5 132 3 q 126 10 128 7 q 125 15 125 13 q 125 204 125 110 q 125 393 125 299 q 125 581 125 488 q 125 769 125 675 q 125 958 125 864 l 201 958 l 194 943 q 194 889 194 917 q 194 829 194 861 q 194 652 194 747 q 194 457 194 557 q 194 257 194 357 q 194 65 194 157 l 665 65 q 676 61 672 65 q 681 50 681 57 q 681 25 681 38 q 681 0 681 13 l 140 0 z "},"È":{"ha":764,"x_min":28,"x_max":681,"o":"m 28 972 l 665 972 q 674 970 671 972 q 678 965 676 968 q 681 957 681 961 q 681 932 681 943 q 681 907 681 921 l 43 907 q 35 909 39 907 q 30 915 32 911 q 28 922 28 918 q 28 947 28 936 q 28 972 28 958 m 153 528 l 596 528 q 603 526 600 528 q 609 521 607 524 q 611 513 611 518 q 611 496 611 504 q 611 480 611 488 q 611 463 611 472 l 153 463 l 153 528 m 140 0 q 135 1 138 0 q 130 5 132 3 q 126 10 128 7 q 125 15 125 13 q 125 204 125 110 q 125 393 125 299 q 125 581 125 488 q 125 769 125 675 q 125 958 125 864 l 201 958 l 194 943 q 194 889 194 917 q 194 829 194 861 q 194 652 194 747 q 194 457 194 557 q 194 257 194 357 q 194 65 194 157 l 665 65 q 676 61 672 65 q 681 50 681 57 q 681 25 681 38 q 681 0 681 13 l 140 0 m 264 1311 q 318 1231 293 1268 q 368 1156 343 1193 q 419 1078 393 1119 q 402 1078 411 1078 q 383 1078 393 1078 q 364 1078 374 1078 q 349 1081 356 1078 q 340 1089 343 1085 q 292 1149 311 1125 q 256 1194 272 1174 q 222 1237 240 1214 q 179 1290 204 1260 q 177 1304 174 1297 q 189 1311 181 1311 q 213 1311 203 1311 q 236 1311 224 1311 q 264 1311 249 1311 z "},"É":{"ha":764,"x_min":28,"x_max":681,"o":"m 28 972 l 665 972 q 674 970 671 972 q 678 965 676 968 q 681 957 681 961 q 681 932 681 943 q 681 907 681 921 l 43 907 q 35 909 39 907 q 30 915 32 911 q 28 922 28 918 q 28 947 28 936 q 28 972 28 958 m 153 528 l 596 528 q 603 526 600 528 q 609 521 607 524 q 611 513 611 518 q 611 496 611 504 q 611 480 611 488 q 611 463 611 472 l 153 463 l 153 528 m 140 0 q 135 1 138 0 q 130 5 132 3 q 126 10 128 7 q 125 15 125 13 q 125 204 125 110 q 125 393 125 299 q 125 581 125 488 q 125 769 125 675 q 125 958 125 864 l 201 958 l 194 943 q 194 889 194 917 q 194 829 194 861 q 194 652 194 747 q 194 457 194 557 q 194 257 194 357 q 194 65 194 157 l 665 65 q 676 61 672 65 q 681 50 681 57 q 681 25 681 38 q 681 0 681 13 l 140 0 m 508 1310 q 534 1310 525 1310 q 551 1310 543 1310 q 572 1310 558 1310 q 585 1303 581 1310 q 582 1289 589 1296 q 539 1235 557 1258 q 505 1192 521 1213 q 469 1148 489 1172 q 421 1088 450 1124 q 412 1080 418 1083 q 397 1076 406 1076 q 380 1076 388 1076 q 365 1076 372 1076 q 349 1076 357 1076 q 403 1155 378 1118 q 453 1229 428 1192 q 508 1310 479 1267 z "},"Ê":{"ha":764,"x_min":28,"x_max":681,"o":"m 28 972 l 665 972 q 674 970 671 972 q 678 965 676 968 q 681 957 681 961 q 681 932 681 943 q 681 907 681 921 l 43 907 q 35 909 39 907 q 30 915 32 911 q 28 922 28 918 q 28 947 28 936 q 28 972 28 958 m 153 528 l 596 528 q 603 526 600 528 q 609 521 607 524 q 611 513 611 518 q 611 496 611 504 q 611 480 611 488 q 611 463 611 472 l 153 463 l 153 528 m 140 0 q 135 1 138 0 q 130 5 132 3 q 126 10 128 7 q 125 15 125 13 q 125 204 125 110 q 125 393 125 299 q 125 581 125 488 q 125 769 125 675 q 125 958 125 864 l 201 958 l 194 943 q 194 889 194 917 q 194 829 194 861 q 194 652 194 747 q 194 457 194 557 q 194 257 194 357 q 194 65 194 157 l 665 65 q 676 61 672 65 q 681 50 681 57 q 681 25 681 38 q 681 0 681 13 l 140 0 m 346 1311 q 363 1311 354 1311 q 379 1311 371 1311 q 396 1311 388 1311 q 415 1306 407 1311 q 446 1282 424 1301 q 484 1248 457 1272 q 546 1194 511 1224 q 616 1133 581 1164 q 681 1078 651 1103 q 649 1078 664 1079 q 618 1078 635 1078 q 596 1080 603 1078 q 578 1092 589 1082 q 494 1159 554 1111 q 349 1274 433 1207 l 424 1247 q 379 1247 401 1247 q 335 1247 357 1247 l 410 1274 q 267 1160 325 1207 q 164 1078 208 1114 l 110 1078 q 99 1079 103 1078 q 94 1083 96 1081 q 93 1088 93 1085 q 99 1099 93 1093 q 128 1125 106 1106 q 176 1165 146 1140 q 239 1219 206 1190 q 301 1272 272 1247 q 346 1311 329 1297 z "},"Ë":{"ha":764,"x_min":28,"x_max":681,"o":"m 28 972 l 665 972 q 674 970 671 972 q 678 965 676 968 q 681 957 681 961 q 681 932 681 943 q 681 907 681 921 l 43 907 q 35 909 39 907 q 30 915 32 911 q 28 922 28 918 q 28 947 28 936 q 28 972 28 958 m 153 528 l 596 528 q 603 526 600 528 q 609 521 607 524 q 611 513 611 518 q 611 496 611 504 q 611 480 611 488 q 611 463 611 472 l 153 463 l 153 528 m 140 0 q 135 1 138 0 q 130 5 132 3 q 126 10 128 7 q 125 15 125 13 q 125 204 125 110 q 125 393 125 299 q 125 581 125 488 q 125 769 125 675 q 125 958 125 864 l 201 958 l 194 943 q 194 889 194 917 q 194 829 194 861 q 194 652 194 747 q 194 457 194 557 q 194 257 194 357 q 194 65 194 157 l 665 65 q 676 61 672 65 q 681 50 681 57 q 681 25 681 38 q 681 0 681 13 l 140 0 m 188 1233 q 235 1233 211 1233 q 283 1233 260 1233 q 292 1231 289 1233 q 297 1226 294 1229 q 299 1218 299 1224 l 299 1122 q 251 1122 275 1122 q 203 1122 226 1122 q 195 1124 199 1122 q 190 1130 192 1126 q 188 1138 188 1133 l 188 1233 m 465 1233 q 513 1233 489 1233 q 561 1233 538 1233 q 569 1231 567 1233 q 574 1226 572 1229 q 576 1218 576 1224 l 576 1122 q 528 1122 553 1122 q 481 1122 504 1122 q 473 1124 476 1122 q 467 1130 469 1126 q 465 1138 465 1133 l 465 1233 z "},"Ē":{"ha":764,"x_min":28,"x_max":681,"o":"m 28 972 l 665 972 q 674 970 671 972 q 678 965 676 968 q 681 957 681 961 q 681 932 681 943 q 681 907 681 921 l 43 907 q 35 909 39 907 q 30 915 32 911 q 28 922 28 918 q 28 947 28 936 q 28 972 28 958 m 153 528 l 596 528 q 603 526 600 528 q 609 521 607 524 q 611 513 611 518 q 611 496 611 504 q 611 480 611 488 q 611 463 611 472 l 153 463 l 153 528 m 140 0 q 135 1 138 0 q 130 5 132 3 q 126 10 128 7 q 125 15 125 13 q 125 204 125 110 q 125 393 125 299 q 125 581 125 488 q 125 769 125 675 q 125 958 125 864 l 201 958 l 194 943 q 194 889 194 917 q 194 829 194 861 q 194 652 194 747 q 194 457 194 557 q 194 257 194 357 q 194 65 194 157 l 665 65 q 676 61 672 65 q 681 50 681 57 q 681 25 681 38 q 681 0 681 13 l 140 0 m 140 1197 l 608 1197 q 619 1193 615 1197 q 624 1182 624 1189 q 624 1155 624 1168 q 624 1128 624 1142 l 156 1128 q 148 1130 151 1128 q 142 1135 144 1132 q 140 1143 140 1139 q 140 1170 140 1157 q 140 1197 140 1183 z "},"Ĕ":{"ha":764,"x_min":28,"x_max":681,"o":"m 28 972 l 665 972 q 674 970 671 972 q 678 965 676 968 q 681 957 681 961 q 681 932 681 943 q 681 907 681 921 l 43 907 q 35 909 39 907 q 30 915 32 911 q 28 922 28 918 q 28 947 28 936 q 28 972 28 958 m 153 528 l 596 528 q 603 526 600 528 q 609 521 607 524 q 611 513 611 518 q 611 496 611 504 q 611 480 611 488 q 611 463 611 472 l 153 463 l 153 528 m 140 0 q 135 1 138 0 q 130 5 132 3 q 126 10 128 7 q 125 15 125 13 q 125 204 125 110 q 125 393 125 299 q 125 581 125 488 q 125 769 125 675 q 125 958 125 864 l 201 958 l 194 943 q 194 889 194 917 q 194 829 194 861 q 194 652 194 747 q 194 457 194 557 q 194 257 194 357 q 194 65 194 157 l 665 65 q 676 61 672 65 q 681 50 681 57 q 681 25 681 38 q 681 0 681 13 l 140 0 m 561 1299 q 583 1299 572 1299 q 604 1299 593 1299 q 622 1290 618 1299 q 619 1267 625 1282 q 571 1188 604 1221 q 492 1136 538 1154 q 392 1118 447 1118 l 372 1118 q 272 1136 318 1118 q 194 1188 226 1154 q 144 1267 161 1221 q 142 1290 139 1282 q 160 1299 146 1299 q 181 1299 171 1299 q 203 1299 192 1299 q 274 1208 231 1235 q 382 1182 317 1182 q 490 1208 447 1182 q 561 1299 533 1235 z "},"Ė":{"ha":764,"x_min":28,"x_max":681,"o":"m 326 1233 q 351 1233 339 1233 q 374 1233 363 1233 q 398 1233 386 1233 q 422 1233 410 1233 q 433 1229 429 1233 q 438 1218 438 1225 l 438 1122 q 413 1122 425 1122 q 390 1122 401 1122 q 366 1122 378 1122 q 342 1122 354 1122 q 331 1126 335 1122 q 326 1138 326 1131 l 326 1233 m 28 972 l 665 972 q 674 970 671 972 q 678 965 676 968 q 681 957 681 961 q 681 932 681 943 q 681 907 681 921 l 43 907 q 35 909 39 907 q 30 915 32 911 q 28 922 28 918 q 28 947 28 936 q 28 972 28 958 m 153 528 l 596 528 q 603 526 600 528 q 609 521 607 524 q 611 513 611 518 q 611 496 611 504 q 611 480 611 488 q 611 463 611 472 l 153 463 l 153 528 m 140 0 q 135 1 138 0 q 130 5 132 3 q 126 10 128 7 q 125 15 125 13 q 125 204 125 110 q 125 393 125 299 q 125 581 125 488 q 125 769 125 675 q 125 958 125 864 l 201 958 l 194 943 q 194 889 194 917 q 194 829 194 861 q 194 652 194 747 q 194 457 194 557 q 194 257 194 357 q 194 65 194 157 l 665 65 q 676 61 672 65 q 681 50 681 57 q 681 25 681 38 q 681 0 681 13 l 140 0 z "},"Ę":{"ha":764,"x_min":28,"x_max":681,"o":"m 28 972 l 665 972 q 674 970 671 972 q 678 965 676 968 q 681 957 681 961 q 681 932 681 943 q 681 907 681 921 l 43 907 q 35 909 39 907 q 30 915 32 911 q 28 922 28 918 q 28 947 28 936 q 28 972 28 958 m 153 528 l 596 528 q 603 526 600 528 q 609 521 607 524 q 611 513 611 518 q 611 496 611 504 q 611 480 611 488 q 611 463 611 472 l 153 463 l 153 528 m 140 0 q 135 1 138 0 q 130 5 132 3 q 126 10 128 7 q 125 15 125 13 q 125 204 125 110 q 125 393 125 299 q 125 581 125 488 q 125 769 125 675 q 125 958 125 864 l 201 958 l 194 943 q 194 889 194 917 q 194 829 194 861 q 194 652 194 747 q 194 457 194 557 q 194 257 194 357 q 194 65 194 157 l 665 65 q 676 61 672 65 q 681 50 681 57 q 681 25 681 38 q 681 0 681 13 l 140 0 m 607 26 q 637 23 619 29 q 681 0 654 17 q 678 -9 681 -6 q 665 -15 675 -12 q 508 -92 549 -46 q 468 -189 468 -137 q 495 -259 468 -236 q 561 -282 522 -282 q 615 -274 593 -282 q 660 -250 638 -267 l 676 -250 q 676 -266 676 -257 q 676 -283 676 -275 q 676 -301 676 -292 q 646 -331 676 -315 q 564 -347 615 -347 q 442 -308 486 -347 q 397 -200 397 -268 q 428 -90 397 -136 q 508 -14 460 -43 q 607 26 556 15 z "},"Ě":{"ha":764,"x_min":28,"x_max":681,"o":"m 417 1078 q 400 1078 408 1078 q 383 1078 392 1078 q 367 1078 375 1078 q 349 1083 357 1078 q 317 1107 340 1089 q 278 1142 306 1118 q 217 1195 251 1165 q 147 1256 182 1225 q 82 1311 111 1286 q 113 1310 99 1310 q 144 1311 128 1311 q 167 1309 160 1311 q 185 1297 174 1307 q 269 1231 208 1279 q 414 1115 329 1182 l 339 1142 q 383 1142 361 1142 q 428 1142 406 1142 l 353 1115 q 497 1229 439 1182 q 599 1311 556 1276 l 653 1311 q 663 1310 660 1311 q 668 1306 667 1308 q 669 1301 669 1304 q 664 1290 669 1296 q 635 1264 658 1283 q 587 1224 617 1249 q 524 1170 557 1199 q 462 1117 490 1142 q 417 1078 433 1092 m 28 972 l 665 972 q 674 970 671 972 q 678 965 676 968 q 681 957 681 961 q 681 932 681 943 q 681 907 681 921 l 43 907 q 35 909 39 907 q 30 915 32 911 q 28 922 28 918 q 28 947 28 936 q 28 972 28 958 m 153 528 l 596 528 q 603 526 600 528 q 609 521 607 524 q 611 513 611 518 q 611 496 611 504 q 611 480 611 488 q 611 463 611 472 l 153 463 l 153 528 m 140 0 q 135 1 138 0 q 130 5 132 3 q 126 10 128 7 q 125 15 125 13 q 125 204 125 110 q 125 393 125 299 q 125 581 125 488 q 125 769 125 675 q 125 958 125 864 l 201 958 l 194 943 q 194 889 194 917 q 194 829 194 861 q 194 652 194 747 q 194 457 194 557 q 194 257 194 357 q 194 65 194 157 l 665 65 q 676 61 672 65 q 681 50 681 57 q 681 25 681 38 q 681 0 681 13 l 140 0 z "},"Ȅ":{"ha":764,"x_min":28,"x_max":681,"o":"m 167 1310 q 221 1229 196 1267 q 271 1155 246 1192 q 322 1076 296 1118 q 305 1076 314 1076 q 286 1076 296 1076 q 267 1076 276 1076 q 252 1080 258 1076 q 243 1088 246 1083 q 194 1148 214 1124 q 159 1192 175 1172 q 125 1235 143 1213 q 82 1289 107 1258 q 80 1303 76 1296 q 92 1310 83 1310 q 116 1310 106 1310 q 139 1310 126 1310 q 167 1310 151 1310 m 403 1310 q 457 1229 432 1267 q 507 1155 482 1192 q 558 1076 532 1118 q 541 1076 550 1076 q 522 1076 532 1076 q 503 1076 513 1076 q 488 1080 494 1076 q 479 1088 482 1083 q 431 1148 450 1124 q 395 1192 411 1172 q 361 1235 379 1213 q 318 1289 343 1258 q 316 1303 313 1296 q 328 1310 319 1310 q 352 1310 342 1310 q 375 1310 363 1310 q 403 1310 388 1310 m 28 972 l 665 972 q 674 970 671 972 q 678 965 676 968 q 681 957 681 961 q 681 932 681 943 q 681 907 681 921 l 43 907 q 35 909 39 907 q 30 915 32 911 q 28 922 28 918 q 28 947 28 936 q 28 972 28 958 m 153 528 l 596 528 q 603 526 600 528 q 609 521 607 524 q 611 513 611 518 q 611 496 611 504 q 611 480 611 488 q 611 463 611 472 l 153 463 l 153 528 m 140 0 q 135 1 138 0 q 130 5 132 3 q 126 10 128 7 q 125 15 125 13 q 125 204 125 110 q 125 393 125 299 q 125 581 125 488 q 125 769 125 675 q 125 958 125 864 l 201 958 l 194 943 q 194 889 194 917 q 194 829 194 861 q 194 652 194 747 q 194 457 194 557 q 194 257 194 357 q 194 65 194 157 l 665 65 q 676 61 672 65 q 681 50 681 57 q 681 25 681 38 q 681 0 681 13 l 140 0 z "},"Ȇ":{"ha":764,"x_min":28,"x_max":681,"o":"m 28 972 l 665 972 q 674 970 671 972 q 678 965 676 968 q 681 957 681 961 q 681 932 681 943 q 681 907 681 921 l 43 907 q 35 909 39 907 q 30 915 32 911 q 28 922 28 918 q 28 947 28 936 q 28 972 28 958 m 153 528 l 596 528 q 603 526 600 528 q 609 521 607 524 q 611 513 611 518 q 611 496 611 504 q 611 480 611 488 q 611 463 611 472 l 153 463 l 153 528 m 140 0 q 135 1 138 0 q 130 5 132 3 q 126 10 128 7 q 125 15 125 13 q 125 204 125 110 q 125 393 125 299 q 125 581 125 488 q 125 769 125 675 q 125 958 125 864 l 201 958 l 194 943 q 194 889 194 917 q 194 829 194 861 q 194 652 194 747 q 194 457 194 557 q 194 257 194 357 q 194 65 194 157 l 665 65 q 676 61 672 65 q 681 50 681 57 q 681 25 681 38 q 681 0 681 13 l 140 0 m 203 1104 q 181 1104 192 1104 q 160 1104 171 1104 q 142 1113 146 1104 q 144 1136 139 1121 q 194 1216 161 1183 q 272 1267 226 1249 q 372 1285 318 1285 l 392 1285 q 492 1267 447 1285 q 571 1216 538 1249 q 619 1136 604 1183 q 622 1113 625 1121 q 604 1104 618 1104 q 583 1104 593 1104 q 561 1104 572 1104 q 490 1194 533 1168 q 382 1221 447 1221 q 274 1194 317 1221 q 203 1104 231 1168 z "},"Ḕ":{"ha":764,"x_min":28,"x_max":681,"o":"m 28 972 l 665 972 q 674 970 671 972 q 678 965 676 968 q 681 957 681 961 q 681 932 681 943 q 681 907 681 921 l 43 907 q 35 909 39 907 q 30 915 32 911 q 28 922 28 918 q 28 947 28 936 q 28 972 28 958 m 153 528 l 596 528 q 603 526 600 528 q 609 521 607 524 q 611 513 611 518 q 611 496 611 504 q 611 480 611 488 q 611 463 611 472 l 153 463 l 153 528 m 140 0 q 135 1 138 0 q 130 5 132 3 q 126 10 128 7 q 125 15 125 13 q 125 204 125 110 q 125 393 125 299 q 125 581 125 488 q 125 769 125 675 q 125 958 125 864 l 201 958 l 194 943 q 194 889 194 917 q 194 829 194 861 q 194 652 194 747 q 194 457 194 557 q 194 257 194 357 q 194 65 194 157 l 665 65 q 676 61 672 65 q 681 50 681 57 q 681 25 681 38 q 681 0 681 13 l 140 0 m 140 1197 l 608 1197 q 619 1193 615 1197 q 624 1182 624 1189 q 624 1155 624 1168 q 624 1128 624 1142 l 156 1128 q 148 1130 151 1128 q 142 1135 144 1132 q 140 1143 140 1139 q 140 1170 140 1157 q 140 1197 140 1183 m 264 1485 q 318 1404 293 1442 q 368 1330 343 1367 q 419 1251 393 1293 q 402 1251 411 1251 q 383 1251 393 1251 q 364 1251 374 1251 q 349 1255 356 1251 q 340 1263 343 1258 q 292 1323 311 1299 q 256 1367 272 1347 q 222 1410 240 1388 q 179 1464 204 1433 q 177 1478 174 1471 q 189 1485 181 1485 q 213 1485 203 1485 q 236 1485 224 1485 q 264 1485 249 1485 z "},"Ḗ":{"ha":764,"x_min":28,"x_max":681,"o":"m 28 972 l 665 972 q 674 970 671 972 q 678 965 676 968 q 681 957 681 961 q 681 932 681 943 q 681 907 681 921 l 43 907 q 35 909 39 907 q 30 915 32 911 q 28 922 28 918 q 28 947 28 936 q 28 972 28 958 m 153 528 l 596 528 q 603 526 600 528 q 609 521 607 524 q 611 513 611 518 q 611 496 611 504 q 611 480 611 488 q 611 463 611 472 l 153 463 l 153 528 m 140 0 q 135 1 138 0 q 130 5 132 3 q 126 10 128 7 q 125 15 125 13 q 125 204 125 110 q 125 393 125 299 q 125 581 125 488 q 125 769 125 675 q 125 958 125 864 l 201 958 l 194 943 q 194 889 194 917 q 194 829 194 861 q 194 652 194 747 q 194 457 194 557 q 194 257 194 357 q 194 65 194 157 l 665 65 q 676 61 672 65 q 681 50 681 57 q 681 25 681 38 q 681 0 681 13 l 140 0 m 140 1197 l 608 1197 q 619 1193 615 1197 q 624 1182 624 1189 q 624 1155 624 1168 q 624 1128 624 1142 l 156 1128 q 148 1130 151 1128 q 142 1135 144 1132 q 140 1143 140 1139 q 140 1170 140 1157 q 140 1197 140 1183 m 508 1483 q 534 1483 525 1483 q 551 1483 543 1483 q 572 1483 558 1483 q 585 1476 581 1483 q 582 1463 589 1469 q 539 1409 557 1432 q 505 1366 521 1386 q 469 1322 489 1346 q 421 1261 450 1297 q 412 1253 418 1257 q 397 1250 406 1250 q 380 1250 388 1250 q 365 1250 372 1250 q 349 1250 357 1250 q 403 1328 378 1292 q 453 1403 428 1365 q 508 1483 479 1440 z "},"Ḝ":{"ha":764,"x_min":28,"x_max":681,"o":"m 28 972 l 665 972 q 674 970 671 972 q 678 965 676 968 q 681 957 681 961 q 681 932 681 943 q 681 907 681 921 l 43 907 q 35 909 39 907 q 30 915 32 911 q 28 922 28 918 q 28 947 28 936 q 28 972 28 958 m 153 528 l 596 528 q 603 526 600 528 q 609 521 607 524 q 611 513 611 518 q 611 496 611 504 q 611 480 611 488 q 611 463 611 472 l 153 463 l 153 528 m 140 0 q 135 1 138 0 q 130 5 132 3 q 126 10 128 7 q 125 15 125 13 q 125 204 125 110 q 125 393 125 299 q 125 581 125 488 q 125 769 125 675 q 125 958 125 864 l 201 958 l 194 943 q 194 889 194 917 q 194 829 194 861 q 194 652 194 747 q 194 457 194 557 q 194 257 194 357 q 194 65 194 157 l 665 65 q 676 61 672 65 q 681 50 681 57 q 681 25 681 38 q 681 0 681 13 l 140 0 m 540 -172 q 497 -267 540 -229 q 376 -306 454 -306 q 317 -299 340 -306 q 281 -283 293 -293 q 269 -267 269 -274 q 269 -248 269 -256 q 269 -233 269 -240 q 269 -219 269 -226 l 286 -219 q 321 -240 301 -233 q 379 -247 340 -247 q 451 -228 424 -247 q 478 -174 478 -208 q 458 -126 478 -142 q 375 -108 438 -110 q 364 -104 368 -108 q 360 -93 360 -100 q 365 -66 363 -79 q 369 -40 367 -53 q 374 -14 372 -26 q 379 13 376 -1 q 385 26 381 22 q 403 30 390 29 q 444 31 417 31 q 441 13 443 22 q 438 -5 439 4 q 434 -23 436 -14 q 431 -40 432 -32 l 426 -58 q 510 -90 479 -61 q 540 -172 540 -119 m 561 1299 q 583 1299 572 1299 q 604 1299 593 1299 q 622 1290 618 1299 q 619 1267 625 1282 q 571 1188 604 1221 q 492 1136 538 1154 q 392 1118 447 1118 l 372 1118 q 272 1136 318 1118 q 194 1188 226 1154 q 144 1267 161 1221 q 142 1290 139 1282 q 160 1299 146 1299 q 181 1299 171 1299 q 203 1299 192 1299 q 274 1208 231 1235 q 382 1182 317 1182 q 490 1208 447 1182 q 561 1299 533 1235 z "},"Ẹ":{"ha":764,"x_min":28,"x_max":681,"o":"m 28 972 l 665 972 q 674 970 671 972 q 678 965 676 968 q 681 957 681 961 q 681 932 681 943 q 681 907 681 921 l 43 907 q 35 909 39 907 q 30 915 32 911 q 28 922 28 918 q 28 947 28 936 q 28 972 28 958 m 153 528 l 596 528 q 603 526 600 528 q 609 521 607 524 q 611 513 611 518 q 611 496 611 504 q 611 480 611 488 q 611 463 611 472 l 153 463 l 153 528 m 140 0 q 135 1 138 0 q 130 5 132 3 q 126 10 128 7 q 125 15 125 13 q 125 204 125 110 q 125 393 125 299 q 125 581 125 488 q 125 769 125 675 q 125 958 125 864 l 201 958 l 194 943 q 194 889 194 917 q 194 829 194 861 q 194 652 194 747 q 194 457 194 557 q 194 257 194 357 q 194 65 194 157 l 665 65 q 676 61 672 65 q 681 50 681 57 q 681 25 681 38 q 681 0 681 13 l 140 0 m 353 -142 q 377 -142 365 -142 q 401 -142 389 -142 q 424 -142 413 -142 q 449 -142 436 -142 q 460 -146 456 -142 q 464 -157 464 -150 l 464 -253 q 440 -253 451 -253 q 416 -253 428 -253 q 392 -253 404 -253 q 368 -253 381 -253 q 357 -249 361 -253 q 353 -237 353 -244 l 353 -142 z "},"Ẻ":{"ha":764,"x_min":28,"x_max":681,"o":"m 28 972 l 665 972 q 674 970 671 972 q 678 965 676 968 q 681 957 681 961 q 681 932 681 943 q 681 907 681 921 l 43 907 q 35 909 39 907 q 30 915 32 911 q 28 922 28 918 q 28 947 28 936 q 28 972 28 958 m 153 528 l 596 528 q 603 526 600 528 q 609 521 607 524 q 611 513 611 518 q 611 496 611 504 q 611 480 611 488 q 611 463 611 472 l 153 463 l 153 528 m 140 0 q 135 1 138 0 q 130 5 132 3 q 126 10 128 7 q 125 15 125 13 q 125 204 125 110 q 125 393 125 299 q 125 581 125 488 q 125 769 125 675 q 125 958 125 864 l 201 958 l 194 943 q 194 889 194 917 q 194 829 194 861 q 194 652 194 747 q 194 457 194 557 q 194 257 194 357 q 194 65 194 157 l 665 65 q 676 61 672 65 q 681 50 681 57 q 681 25 681 38 q 681 0 681 13 l 140 0 m 350 1079 q 374 1115 361 1097 q 397 1150 386 1132 q 414 1176 406 1163 q 431 1204 422 1190 q 431 1211 431 1207 q 431 1221 431 1215 q 406 1221 421 1221 q 379 1221 392 1221 q 338 1221 367 1221 q 290 1221 308 1221 l 260 1221 q 260 1242 260 1236 q 260 1264 260 1249 q 264 1275 260 1271 q 275 1279 268 1279 q 322 1279 294 1279 q 382 1279 350 1279 q 446 1279 414 1279 q 506 1279 478 1279 q 515 1278 511 1279 q 520 1273 518 1276 q 522 1264 522 1269 l 522 1226 q 507 1201 522 1225 q 471 1146 492 1178 q 440 1101 456 1124 q 411 1061 424 1079 q 392 1061 401 1061 q 374 1061 383 1061 q 354 1061 365 1061 q 344 1067 344 1061 q 350 1079 344 1072 z "},"Ẽ":{"ha":764,"x_min":28,"x_max":681,"o":"m 28 972 l 665 972 q 674 970 671 972 q 678 965 676 968 q 681 957 681 961 q 681 932 681 943 q 681 907 681 921 l 43 907 q 35 909 39 907 q 30 915 32 911 q 28 922 28 918 q 28 947 28 936 q 28 972 28 958 m 153 528 l 596 528 q 603 526 600 528 q 609 521 607 524 q 611 513 611 518 q 611 496 611 504 q 611 480 611 488 q 611 463 611 472 l 153 463 l 153 528 m 140 0 q 135 1 138 0 q 130 5 132 3 q 126 10 128 7 q 125 15 125 13 q 125 204 125 110 q 125 393 125 299 q 125 581 125 488 q 125 769 125 675 q 125 958 125 864 l 201 958 l 194 943 q 194 889 194 917 q 194 829 194 861 q 194 652 194 747 q 194 457 194 557 q 194 257 194 357 q 194 65 194 157 l 665 65 q 676 61 672 65 q 681 50 681 57 q 681 25 681 38 q 681 0 681 13 l 140 0 m 500 1178 q 560 1194 536 1178 q 613 1242 583 1210 l 628 1242 q 628 1215 628 1229 q 628 1186 628 1201 q 626 1177 628 1182 q 618 1165 625 1172 q 569 1128 596 1143 q 501 1114 543 1114 q 436 1128 467 1114 q 377 1159 406 1142 q 321 1190 349 1176 q 264 1204 293 1204 q 204 1188 228 1204 q 151 1140 181 1172 l 136 1140 q 136 1167 136 1153 q 136 1196 136 1182 q 138 1204 136 1199 q 146 1217 139 1210 q 194 1253 168 1239 q 263 1268 221 1268 q 328 1254 297 1268 q 388 1223 360 1240 q 444 1192 417 1206 q 500 1178 471 1178 z "},"Ế":{"ha":764,"x_min":28,"x_max":763,"o":"m 28 972 l 665 972 q 674 970 671 972 q 678 965 676 968 q 681 957 681 961 q 681 932 681 943 q 681 907 681 921 l 43 907 q 35 909 39 907 q 30 915 32 911 q 28 922 28 918 q 28 947 28 936 q 28 972 28 958 m 153 528 l 596 528 q 603 526 600 528 q 609 521 607 524 q 611 513 611 518 q 611 496 611 504 q 611 480 611 488 q 611 463 611 472 l 153 463 l 153 528 m 140 0 q 135 1 138 0 q 130 5 132 3 q 126 10 128 7 q 125 15 125 13 q 125 204 125 110 q 125 393 125 299 q 125 581 125 488 q 125 769 125 675 q 125 958 125 864 l 201 958 l 194 943 q 194 889 194 917 q 194 829 194 861 q 194 652 194 747 q 194 457 194 557 q 194 257 194 357 q 194 65 194 157 l 665 65 q 676 61 672 65 q 681 50 681 57 q 681 25 681 38 q 681 0 681 13 l 140 0 m 346 1311 q 363 1311 354 1311 q 379 1311 371 1311 q 396 1311 388 1311 q 415 1306 407 1311 q 446 1282 424 1301 q 484 1248 457 1272 q 546 1194 511 1224 q 616 1133 581 1164 q 681 1078 651 1103 q 649 1078 664 1079 q 618 1078 635 1078 q 596 1080 603 1078 q 578 1092 589 1082 q 494 1159 554 1111 q 349 1274 433 1207 l 424 1247 q 379 1247 401 1247 q 335 1247 357 1247 l 410 1274 q 267 1160 325 1207 q 164 1078 208 1114 l 110 1078 q 99 1079 103 1078 q 94 1083 96 1081 q 93 1088 93 1085 q 99 1099 93 1093 q 128 1125 106 1106 q 176 1165 146 1140 q 239 1219 206 1190 q 301 1272 272 1247 q 346 1311 329 1297 m 683 1468 q 709 1468 700 1468 q 726 1468 718 1468 q 747 1468 735 1468 q 759 1462 756 1468 q 757 1447 763 1456 q 719 1384 735 1410 q 690 1333 704 1358 q 654 1274 675 1308 q 646 1265 650 1268 q 631 1263 642 1263 q 613 1263 621 1263 q 598 1263 606 1263 q 582 1263 590 1263 q 617 1334 603 1304 q 647 1394 632 1364 q 683 1468 663 1425 z "},"Ề":{"ha":764,"x_min":28,"x_max":681,"o":"m 28 972 l 665 972 q 674 970 671 972 q 678 965 676 968 q 681 957 681 961 q 681 932 681 943 q 681 907 681 921 l 43 907 q 35 909 39 907 q 30 915 32 911 q 28 922 28 918 q 28 947 28 936 q 28 972 28 958 m 153 528 l 596 528 q 603 526 600 528 q 609 521 607 524 q 611 513 611 518 q 611 496 611 504 q 611 480 611 488 q 611 463 611 472 l 153 463 l 153 528 m 140 0 q 135 1 138 0 q 130 5 132 3 q 126 10 128 7 q 125 15 125 13 q 125 204 125 110 q 125 393 125 299 q 125 581 125 488 q 125 769 125 675 q 125 958 125 864 l 201 958 l 194 943 q 194 889 194 917 q 194 829 194 861 q 194 652 194 747 q 194 457 194 557 q 194 257 194 357 q 194 65 194 157 l 665 65 q 676 61 672 65 q 681 50 681 57 q 681 25 681 38 q 681 0 681 13 l 140 0 m 346 1311 q 363 1311 354 1311 q 379 1311 371 1311 q 396 1311 388 1311 q 415 1306 407 1311 q 446 1282 424 1301 q 484 1248 457 1272 q 546 1194 511 1224 q 616 1133 581 1164 q 681 1078 651 1103 q 649 1078 664 1079 q 618 1078 635 1078 q 596 1080 603 1078 q 578 1092 589 1082 q 494 1159 554 1111 q 349 1274 433 1207 l 424 1247 q 379 1247 401 1247 q 335 1247 357 1247 l 410 1274 q 267 1160 325 1207 q 164 1078 208 1114 l 110 1078 q 99 1079 103 1078 q 94 1083 96 1081 q 93 1088 93 1085 q 99 1099 93 1093 q 128 1125 106 1106 q 176 1165 146 1140 q 239 1219 206 1190 q 301 1272 272 1247 q 346 1311 329 1297 m 547 1468 q 584 1394 569 1425 q 614 1334 599 1364 q 649 1263 629 1304 q 633 1263 640 1263 q 617 1263 625 1263 q 600 1263 610 1263 q 585 1265 590 1263 q 576 1274 581 1268 q 542 1333 557 1308 q 511 1384 526 1358 q 474 1447 496 1410 q 472 1462 468 1456 q 483 1468 475 1468 q 505 1468 497 1468 q 522 1468 513 1468 q 547 1468 532 1468 z "},"Ể":{"ha":764,"x_min":28,"x_max":756,"o":"m 28 972 l 665 972 q 674 970 671 972 q 678 965 676 968 q 681 957 681 961 q 681 932 681 943 q 681 907 681 921 l 43 907 q 35 909 39 907 q 30 915 32 911 q 28 922 28 918 q 28 947 28 936 q 28 972 28 958 m 153 528 l 596 528 q 603 526 600 528 q 609 521 607 524 q 611 513 611 518 q 611 496 611 504 q 611 480 611 488 q 611 463 611 472 l 153 463 l 153 528 m 140 0 q 135 1 138 0 q 130 5 132 3 q 126 10 128 7 q 125 15 125 13 q 125 204 125 110 q 125 393 125 299 q 125 581 125 488 q 125 769 125 675 q 125 958 125 864 l 201 958 l 194 943 q 194 889 194 917 q 194 829 194 861 q 194 652 194 747 q 194 457 194 557 q 194 257 194 357 q 194 65 194 157 l 665 65 q 676 61 672 65 q 681 50 681 57 q 681 25 681 38 q 681 0 681 13 l 140 0 m 346 1311 q 363 1311 354 1311 q 379 1311 371 1311 q 396 1311 388 1311 q 415 1306 407 1311 q 446 1282 424 1301 q 484 1248 457 1272 q 546 1194 511 1224 q 616 1133 581 1164 q 681 1078 651 1103 q 649 1078 664 1079 q 618 1078 635 1078 q 596 1080 603 1078 q 578 1092 589 1082 q 494 1159 554 1111 q 349 1274 433 1207 l 424 1247 q 379 1247 401 1247 q 335 1247 357 1247 l 410 1274 q 267 1160 325 1207 q 164 1078 208 1114 l 110 1078 q 99 1079 103 1078 q 94 1083 96 1081 q 93 1088 93 1085 q 99 1099 93 1093 q 128 1125 106 1106 q 176 1165 146 1140 q 239 1219 206 1190 q 301 1272 272 1247 q 346 1311 329 1297 m 583 1253 q 607 1288 594 1271 q 631 1324 619 1306 q 647 1350 639 1336 q 664 1378 656 1364 q 664 1385 664 1381 q 664 1394 664 1389 q 640 1394 654 1394 q 613 1394 625 1394 q 571 1394 600 1394 q 524 1394 542 1394 l 493 1394 q 493 1416 493 1410 q 493 1438 493 1422 q 497 1449 493 1444 q 508 1453 501 1453 q 556 1453 528 1453 q 615 1453 583 1453 q 679 1453 647 1453 q 739 1453 711 1453 q 748 1451 744 1453 q 753 1447 751 1450 q 756 1438 756 1443 l 756 1400 q 740 1375 756 1399 q 704 1319 725 1351 q 673 1275 689 1297 q 644 1235 657 1253 q 626 1235 635 1235 q 608 1235 617 1235 q 588 1235 599 1235 q 578 1240 578 1235 q 583 1253 578 1246 z "},"Ễ":{"ha":764,"x_min":28,"x_max":681,"o":"m 28 972 l 665 972 q 674 970 671 972 q 678 965 676 968 q 681 957 681 961 q 681 932 681 943 q 681 907 681 921 l 43 907 q 35 909 39 907 q 30 915 32 911 q 28 922 28 918 q 28 947 28 936 q 28 972 28 958 m 153 528 l 596 528 q 603 526 600 528 q 609 521 607 524 q 611 513 611 518 q 611 496 611 504 q 611 480 611 488 q 611 463 611 472 l 153 463 l 153 528 m 140 0 q 135 1 138 0 q 130 5 132 3 q 126 10 128 7 q 125 15 125 13 q 125 204 125 110 q 125 393 125 299 q 125 581 125 488 q 125 769 125 675 q 125 958 125 864 l 201 958 l 194 943 q 194 889 194 917 q 194 829 194 861 q 194 652 194 747 q 194 457 194 557 q 194 257 194 357 q 194 65 194 157 l 665 65 q 676 61 672 65 q 681 50 681 57 q 681 25 681 38 q 681 0 681 13 l 140 0 m 346 1311 q 363 1311 354 1311 q 379 1311 371 1311 q 396 1311 388 1311 q 415 1306 407 1311 q 446 1282 424 1301 q 484 1248 457 1272 q 546 1194 511 1224 q 616 1133 581 1164 q 681 1078 651 1103 q 649 1078 664 1079 q 618 1078 635 1078 q 596 1080 603 1078 q 578 1092 589 1082 q 494 1159 554 1111 q 349 1274 433 1207 l 424 1247 q 379 1247 401 1247 q 335 1247 357 1247 l 410 1274 q 267 1160 325 1207 q 164 1078 208 1114 l 110 1078 q 99 1079 103 1078 q 94 1083 96 1081 q 93 1088 93 1085 q 99 1099 93 1093 q 128 1125 106 1106 q 176 1165 146 1140 q 239 1219 206 1190 q 301 1272 272 1247 q 346 1311 329 1297 m 482 1407 q 522 1416 506 1407 q 557 1454 539 1425 l 572 1454 q 572 1424 572 1442 q 572 1392 572 1407 q 571 1383 572 1388 q 563 1371 569 1379 q 530 1344 549 1351 q 483 1336 511 1336 q 426 1350 453 1336 q 376 1381 400 1364 q 328 1413 351 1399 q 281 1426 306 1426 q 241 1415 258 1426 q 207 1379 224 1403 l 192 1379 q 192 1410 192 1392 q 192 1442 192 1428 q 193 1450 192 1444 q 201 1463 194 1456 q 239 1489 219 1481 q 285 1497 258 1497 q 339 1483 314 1497 q 388 1452 364 1469 q 434 1421 411 1435 q 482 1407 457 1407 z "},"Ệ":{"ha":764,"x_min":28,"x_max":681,"o":"m 353 -142 q 377 -142 365 -142 q 401 -142 389 -142 q 424 -142 413 -142 q 449 -142 436 -142 q 460 -146 456 -142 q 464 -157 464 -150 l 464 -253 q 440 -253 451 -253 q 416 -253 428 -253 q 392 -253 404 -253 q 368 -253 381 -253 q 357 -249 361 -253 q 353 -237 353 -244 l 353 -142 m 28 972 l 665 972 q 674 970 671 972 q 678 965 676 968 q 681 957 681 961 q 681 932 681 943 q 681 907 681 921 l 43 907 q 35 909 39 907 q 30 915 32 911 q 28 922 28 918 q 28 947 28 936 q 28 972 28 958 m 153 528 l 596 528 q 603 526 600 528 q 609 521 607 524 q 611 513 611 518 q 611 496 611 504 q 611 480 611 488 q 611 463 611 472 l 153 463 l 153 528 m 140 0 q 135 1 138 0 q 130 5 132 3 q 126 10 128 7 q 125 15 125 13 q 125 204 125 110 q 125 393 125 299 q 125 581 125 488 q 125 769 125 675 q 125 958 125 864 l 201 958 l 194 943 q 194 889 194 917 q 194 829 194 861 q 194 652 194 747 q 194 457 194 557 q 194 257 194 357 q 194 65 194 157 l 665 65 q 676 61 672 65 q 681 50 681 57 q 681 25 681 38 q 681 0 681 13 l 140 0 m 346 1311 q 363 1311 354 1311 q 379 1311 371 1311 q 396 1311 388 1311 q 415 1306 407 1311 q 446 1282 424 1301 q 484 1248 457 1272 q 546 1194 511 1224 q 616 1133 581 1164 q 681 1078 651 1103 q 649 1078 664 1079 q 618 1078 635 1078 q 596 1080 603 1078 q 578 1092 589 1082 q 494 1159 554 1111 q 349 1274 433 1207 l 424 1247 q 379 1247 401 1247 q 335 1247 357 1247 l 410 1274 q 267 1160 325 1207 q 164 1078 208 1114 l 110 1078 q 99 1079 103 1078 q 94 1083 96 1081 q 93 1088 93 1085 q 99 1099 93 1093 q 128 1125 106 1106 q 176 1165 146 1140 q 239 1219 206 1190 q 301 1272 272 1247 q 346 1311 329 1297 z "},"F":{"ha":764,"x_min":56,"x_max":681,"o":"m 222 0 q 195 0 208 0 q 168 0 182 0 q 160 2 164 0 q 155 8 157 4 q 153 15 153 11 q 153 251 153 132 q 153 488 153 369 q 153 723 153 606 q 153 954 153 840 l 231 954 l 222 940 q 222 883 222 913 q 222 825 222 854 q 222 577 222 703 q 222 338 222 451 q 222 136 222 224 q 222 72 222 106 q 222 0 222 38 m 56 972 l 665 972 q 674 970 671 972 q 678 965 676 968 q 681 957 681 961 q 681 940 681 949 q 681 924 681 932 q 681 907 681 917 l 71 907 q 63 909 67 907 q 58 915 60 911 q 56 922 56 918 q 56 947 56 936 q 56 972 56 958 m 181 500 l 596 500 q 607 496 603 500 q 611 485 611 492 q 611 468 611 476 q 611 452 611 460 q 611 435 611 444 l 181 435 l 181 500 z "},"G":{"ha":903,"x_min":106,"x_max":863,"o":"m 474 472 l 847 472 q 855 470 851 472 q 860 465 858 468 q 863 457 863 461 l 863 407 l 489 407 q 482 408 485 407 q 477 412 479 410 q 474 417 475 414 q 474 422 474 419 q 474 447 474 436 q 474 472 474 458 m 489 1000 q 596 993 547 1000 q 682 974 644 986 q 747 944 719 961 q 793 908 775 928 q 797 901 796 906 q 799 894 799 897 q 799 828 799 863 q 799 761 799 794 q 799 694 799 728 q 772 694 785 694 q 744 694 758 694 q 733 699 738 694 q 729 710 729 703 q 729 781 729 746 q 729 852 729 817 q 729 922 729 888 l 761 851 q 648 917 717 900 q 481 935 579 935 q 353 915 410 935 q 258 853 297 894 q 199 749 219 813 q 178 599 178 686 l 178 332 q 199 208 178 263 q 260 113 219 153 q 348 58 294 78 q 478 38 401 38 q 615 59 560 38 q 699 105 671 81 q 728 136 728 129 q 728 241 728 193 q 728 338 728 289 q 728 442 728 386 l 803 442 l 797 426 q 797 274 797 343 q 797 121 797 204 q 796 112 797 115 q 790 103 794 108 q 715 35 763 65 q 606 -11 667 6 q 481 -28 546 -28 q 322 -3 392 -28 q 204 68 253 22 q 131 179 156 114 q 106 325 106 244 l 106 606 q 131 775 106 701 q 205 899 156 849 q 326 974 254 949 q 489 1000 397 1000 z "},"Ĝ":{"ha":903,"x_min":106,"x_max":863,"o":"m 474 472 l 847 472 q 855 470 851 472 q 860 465 858 468 q 863 457 863 461 l 863 407 l 489 407 q 482 408 485 407 q 477 412 479 410 q 474 417 475 414 q 474 422 474 419 q 474 447 474 436 q 474 472 474 458 m 489 1000 q 596 993 547 1000 q 682 974 644 986 q 747 944 719 961 q 793 908 775 928 q 797 901 796 906 q 799 894 799 897 q 799 828 799 863 q 799 761 799 794 q 799 694 799 728 q 772 694 785 694 q 744 694 758 694 q 733 699 738 694 q 729 710 729 703 q 729 781 729 746 q 729 852 729 817 q 729 922 729 888 l 761 851 q 648 917 717 900 q 481 935 579 935 q 353 915 410 935 q 258 853 297 894 q 199 749 219 813 q 178 599 178 686 l 178 332 q 199 208 178 263 q 260 113 219 153 q 348 58 294 78 q 478 38 401 38 q 615 59 560 38 q 699 105 671 81 q 728 136 728 129 q 728 241 728 193 q 728 338 728 289 q 728 442 728 386 l 803 442 l 797 426 q 797 274 797 343 q 797 121 797 204 q 796 112 797 115 q 790 103 794 108 q 715 35 763 65 q 606 -11 667 6 q 481 -28 546 -28 q 322 -3 392 -28 q 204 68 253 22 q 131 179 156 114 q 106 325 106 244 l 106 606 q 131 775 106 701 q 205 899 156 849 q 326 974 254 949 q 489 1000 397 1000 m 447 1311 q 464 1311 456 1311 q 481 1311 472 1311 q 497 1311 489 1311 q 517 1306 508 1311 q 547 1282 525 1301 q 585 1248 558 1272 q 647 1194 613 1224 q 717 1133 682 1164 q 782 1078 753 1103 q 751 1078 765 1079 q 719 1078 736 1078 q 697 1080 704 1078 q 679 1092 690 1082 q 595 1159 656 1111 q 450 1274 535 1207 l 525 1247 q 481 1247 503 1247 q 436 1247 458 1247 l 511 1274 q 368 1160 426 1207 q 265 1078 310 1114 l 211 1078 q 201 1079 204 1078 q 196 1083 197 1081 q 194 1088 194 1085 q 201 1099 194 1093 q 229 1125 207 1106 q 277 1165 247 1140 q 340 1219 307 1190 q 402 1272 374 1247 q 447 1311 431 1297 z "},"Ğ":{"ha":903,"x_min":106,"x_max":863,"o":"m 474 472 l 847 472 q 855 470 851 472 q 860 465 858 468 q 863 457 863 461 l 863 407 l 489 407 q 482 408 485 407 q 477 412 479 410 q 474 417 475 414 q 474 422 474 419 q 474 447 474 436 q 474 472 474 458 m 489 1000 q 596 993 547 1000 q 682 974 644 986 q 747 944 719 961 q 793 908 775 928 q 797 901 796 906 q 799 894 799 897 q 799 828 799 863 q 799 761 799 794 q 799 694 799 728 q 772 694 785 694 q 744 694 758 694 q 733 699 738 694 q 729 710 729 703 q 729 781 729 746 q 729 852 729 817 q 729 922 729 888 l 761 851 q 648 917 717 900 q 481 935 579 935 q 353 915 410 935 q 258 853 297 894 q 199 749 219 813 q 178 599 178 686 l 178 332 q 199 208 178 263 q 260 113 219 153 q 348 58 294 78 q 478 38 401 38 q 615 59 560 38 q 699 105 671 81 q 728 136 728 129 q 728 241 728 193 q 728 338 728 289 q 728 442 728 386 l 803 442 l 797 426 q 797 274 797 343 q 797 121 797 204 q 796 112 797 115 q 790 103 794 108 q 715 35 763 65 q 606 -11 667 6 q 481 -28 546 -28 q 322 -3 392 -28 q 204 68 253 22 q 131 179 156 114 q 106 325 106 244 l 106 606 q 131 775 106 701 q 205 899 156 849 q 326 974 254 949 q 489 1000 397 1000 m 663 1299 q 684 1299 674 1299 q 706 1299 694 1299 q 723 1290 719 1299 q 721 1267 726 1282 q 672 1188 706 1221 q 594 1136 639 1154 q 493 1118 549 1118 l 474 1118 q 374 1136 419 1118 q 295 1188 328 1154 q 246 1267 263 1221 q 244 1290 240 1282 q 261 1299 247 1299 q 283 1299 272 1299 q 304 1299 293 1299 q 375 1208 332 1235 q 483 1182 418 1182 q 592 1208 549 1182 q 663 1299 635 1235 z "},"Ġ":{"ha":903,"x_min":106,"x_max":863,"o":"m 428 1233 q 452 1233 440 1233 q 476 1233 464 1233 q 499 1233 488 1233 q 524 1233 511 1233 q 535 1229 531 1233 q 539 1218 539 1225 l 539 1122 q 515 1122 526 1122 q 491 1122 503 1122 q 467 1122 479 1122 q 443 1122 456 1122 q 432 1126 436 1122 q 428 1138 428 1131 l 428 1233 m 474 472 l 847 472 q 855 470 851 472 q 860 465 858 468 q 863 457 863 461 l 863 407 l 489 407 q 482 408 485 407 q 477 412 479 410 q 474 417 475 414 q 474 422 474 419 q 474 447 474 436 q 474 472 474 458 m 489 1000 q 596 993 547 1000 q 682 974 644 986 q 747 944 719 961 q 793 908 775 928 q 797 901 796 906 q 799 894 799 897 q 799 828 799 863 q 799 761 799 794 q 799 694 799 728 q 772 694 785 694 q 744 694 758 694 q 733 699 738 694 q 729 710 729 703 q 729 781 729 746 q 729 852 729 817 q 729 922 729 888 l 761 851 q 648 917 717 900 q 481 935 579 935 q 353 915 410 935 q 258 853 297 894 q 199 749 219 813 q 178 599 178 686 l 178 332 q 199 208 178 263 q 260 113 219 153 q 348 58 294 78 q 478 38 401 38 q 615 59 560 38 q 699 105 671 81 q 728 136 728 129 q 728 241 728 193 q 728 338 728 289 q 728 442 728 386 l 803 442 l 797 426 q 797 274 797 343 q 797 121 797 204 q 796 112 797 115 q 790 103 794 108 q 715 35 763 65 q 606 -11 667 6 q 481 -28 546 -28 q 322 -3 392 -28 q 204 68 253 22 q 131 179 156 114 q 106 325 106 244 l 106 606 q 131 775 106 701 q 205 899 156 849 q 326 974 254 949 q 489 1000 397 1000 z "},"Ģ":{"ha":903,"x_min":106,"x_max":863,"o":"m 474 472 l 847 472 q 855 470 851 472 q 860 465 858 468 q 863 457 863 461 l 863 407 l 489 407 q 482 408 485 407 q 477 412 479 410 q 474 417 475 414 q 474 422 474 419 q 474 447 474 436 q 474 472 474 458 m 489 1000 q 596 993 547 1000 q 682 974 644 986 q 747 944 719 961 q 793 908 775 928 q 797 901 796 906 q 799 894 799 897 q 799 828 799 863 q 799 761 799 794 q 799 694 799 728 q 772 694 785 694 q 744 694 758 694 q 733 699 738 694 q 729 710 729 703 q 729 781 729 746 q 729 852 729 817 q 729 922 729 888 l 761 851 q 648 917 717 900 q 481 935 579 935 q 353 915 410 935 q 258 853 297 894 q 199 749 219 813 q 178 599 178 686 l 178 332 q 199 208 178 263 q 260 113 219 153 q 348 58 294 78 q 478 38 401 38 q 615 59 560 38 q 699 105 671 81 q 728 136 728 129 q 728 241 728 193 q 728 338 728 289 q 728 442 728 386 l 803 442 l 797 426 q 797 274 797 343 q 797 121 797 204 q 796 112 797 115 q 790 103 794 108 q 715 35 763 65 q 606 -11 667 6 q 481 -28 546 -28 q 322 -3 392 -28 q 204 68 253 22 q 131 179 156 114 q 106 325 106 244 l 106 606 q 131 775 106 701 q 205 899 156 849 q 326 974 254 949 q 489 1000 397 1000 m 464 -97 q 489 -97 479 -97 q 508 -97 499 -97 q 528 -97 518 -97 q 540 -103 536 -97 q 542 -117 544 -108 q 516 -184 526 -157 q 496 -238 506 -211 q 469 -308 486 -265 q 463 -318 468 -314 q 449 -322 458 -322 q 426 -322 438 -322 q 399 -322 414 -322 q 423 -240 413 -276 q 444 -168 433 -203 q 464 -97 454 -133 z "},"Ǧ":{"ha":903,"x_min":106,"x_max":863,"o":"m 474 472 l 847 472 q 855 470 851 472 q 860 465 858 468 q 863 457 863 461 l 863 407 l 489 407 q 482 408 485 407 q 477 412 479 410 q 474 417 475 414 q 474 422 474 419 q 474 447 474 436 q 474 472 474 458 m 489 1000 q 596 993 547 1000 q 682 974 644 986 q 747 944 719 961 q 793 908 775 928 q 797 901 796 906 q 799 894 799 897 q 799 828 799 863 q 799 761 799 794 q 799 694 799 728 q 772 694 785 694 q 744 694 758 694 q 733 699 738 694 q 729 710 729 703 q 729 781 729 746 q 729 852 729 817 q 729 922 729 888 l 761 851 q 648 917 717 900 q 481 935 579 935 q 353 915 410 935 q 258 853 297 894 q 199 749 219 813 q 178 599 178 686 l 178 332 q 199 208 178 263 q 260 113 219 153 q 348 58 294 78 q 478 38 401 38 q 615 59 560 38 q 699 105 671 81 q 728 136 728 129 q 728 241 728 193 q 728 338 728 289 q 728 442 728 386 l 803 442 l 797 426 q 797 274 797 343 q 797 121 797 204 q 796 112 797 115 q 790 103 794 108 q 715 35 763 65 q 606 -11 667 6 q 481 -28 546 -28 q 322 -3 392 -28 q 204 68 253 22 q 131 179 156 114 q 106 325 106 244 l 106 606 q 131 775 106 701 q 205 899 156 849 q 326 974 254 949 q 489 1000 397 1000 m 518 1078 q 501 1078 510 1078 q 485 1078 493 1078 q 468 1078 476 1078 q 450 1083 458 1078 q 418 1107 442 1089 q 380 1142 407 1118 q 318 1195 353 1165 q 248 1256 283 1225 q 183 1311 213 1286 q 215 1310 200 1310 q 246 1311 229 1311 q 268 1309 261 1311 q 286 1297 275 1307 q 370 1231 310 1279 q 515 1115 431 1182 l 440 1142 q 485 1142 463 1142 q 529 1142 507 1142 l 454 1115 q 599 1229 540 1182 q 700 1311 657 1276 l 754 1311 q 765 1310 761 1311 q 769 1306 768 1308 q 771 1301 771 1304 q 765 1290 771 1296 q 736 1264 760 1283 q 688 1224 718 1249 q 625 1170 658 1199 q 563 1117 592 1142 q 518 1078 535 1092 z "},"Ḡ":{"ha":903,"x_min":106,"x_max":863,"o":"m 474 472 l 847 472 q 855 470 851 472 q 860 465 858 468 q 863 457 863 461 l 863 407 l 489 407 q 482 408 485 407 q 477 412 479 410 q 474 417 475 414 q 474 422 474 419 q 474 447 474 436 q 474 472 474 458 m 489 1000 q 596 993 547 1000 q 682 974 644 986 q 747 944 719 961 q 793 908 775 928 q 797 901 796 906 q 799 894 799 897 q 799 828 799 863 q 799 761 799 794 q 799 694 799 728 q 772 694 785 694 q 744 694 758 694 q 733 699 738 694 q 729 710 729 703 q 729 781 729 746 q 729 852 729 817 q 729 922 729 888 l 761 851 q 648 917 717 900 q 481 935 579 935 q 353 915 410 935 q 258 853 297 894 q 199 749 219 813 q 178 599 178 686 l 178 332 q 199 208 178 263 q 260 113 219 153 q 348 58 294 78 q 478 38 401 38 q 615 59 560 38 q 699 105 671 81 q 728 136 728 129 q 728 241 728 193 q 728 338 728 289 q 728 442 728 386 l 803 442 l 797 426 q 797 274 797 343 q 797 121 797 204 q 796 112 797 115 q 790 103 794 108 q 715 35 763 65 q 606 -11 667 6 q 481 -28 546 -28 q 322 -3 392 -28 q 204 68 253 22 q 131 179 156 114 q 106 325 106 244 l 106 606 q 131 775 106 701 q 205 899 156 849 q 326 974 254 949 q 489 1000 397 1000 m 242 1269 l 710 1269 q 721 1265 717 1269 q 725 1254 725 1261 q 725 1237 725 1246 q 725 1219 725 1228 q 725 1200 725 1210 l 257 1200 q 249 1202 253 1200 q 244 1208 246 1204 q 242 1215 242 1211 q 242 1234 242 1225 q 242 1252 242 1243 q 242 1269 242 1261 z "},"H":{"ha":903,"x_min":125,"x_max":778,"o":"m 125 972 q 152 972 139 972 q 179 972 165 972 q 190 968 186 972 q 194 957 194 964 q 194 718 194 838 q 194 478 194 599 q 194 239 194 358 q 194 0 194 119 q 167 0 181 0 q 140 0 154 0 q 133 2 136 0 q 127 8 129 4 q 125 15 125 11 q 125 288 125 151 q 125 562 125 425 q 125 835 125 699 q 125 903 125 869 q 125 972 125 938 m 175 528 l 669 528 q 692 528 681 528 q 713 528 703 528 l 743 542 l 743 463 l 190 463 q 183 464 186 463 q 178 467 181 465 q 176 472 176 469 q 175 478 175 475 l 175 528 m 778 0 q 751 0 764 0 q 724 0 738 0 q 716 2 719 0 q 710 8 713 4 q 708 15 708 11 q 708 254 708 135 q 708 494 708 374 q 708 733 708 614 q 708 972 708 853 q 735 972 722 972 q 763 972 749 972 q 768 971 765 972 q 773 967 771 969 q 776 963 775 965 q 778 957 778 960 q 778 753 778 856 q 778 548 778 650 q 778 344 778 446 q 778 139 778 242 q 778 69 778 104 q 778 0 778 35 z "},"Ĥ":{"ha":903,"x_min":125,"x_max":778,"o":"m 125 972 q 152 972 139 972 q 179 972 165 972 q 190 968 186 972 q 194 957 194 964 q 194 718 194 838 q 194 478 194 599 q 194 239 194 358 q 194 0 194 119 q 167 0 181 0 q 140 0 154 0 q 133 2 136 0 q 127 8 129 4 q 125 15 125 11 q 125 288 125 151 q 125 562 125 425 q 125 835 125 699 q 125 903 125 869 q 125 972 125 938 m 175 528 l 669 528 q 692 528 681 528 q 713 528 703 528 l 743 542 l 743 463 l 190 463 q 183 464 186 463 q 178 467 181 465 q 176 472 176 469 q 175 478 175 475 l 175 528 m 778 0 q 751 0 764 0 q 724 0 738 0 q 716 2 719 0 q 710 8 713 4 q 708 15 708 11 q 708 254 708 135 q 708 494 708 374 q 708 733 708 614 q 708 972 708 853 q 735 972 722 972 q 763 972 749 972 q 768 971 765 972 q 773 967 771 969 q 776 963 775 965 q 778 957 778 960 q 778 753 778 856 q 778 548 778 650 q 778 344 778 446 q 778 139 778 242 q 778 69 778 104 q 778 0 778 35 m 415 1311 q 432 1311 424 1311 q 449 1311 440 1311 q 465 1311 457 1311 q 485 1306 476 1311 q 515 1282 493 1301 q 553 1248 526 1272 q 615 1194 581 1224 q 685 1133 650 1164 q 750 1078 721 1103 q 719 1078 733 1079 q 688 1078 704 1078 q 665 1080 672 1078 q 647 1092 658 1082 q 563 1159 624 1111 q 418 1274 503 1207 l 493 1247 q 449 1247 471 1247 q 404 1247 426 1247 l 479 1274 q 336 1160 394 1207 q 233 1078 278 1114 l 179 1078 q 169 1079 172 1078 q 164 1083 165 1081 q 163 1088 163 1085 q 169 1099 163 1093 q 197 1125 175 1106 q 245 1165 215 1140 q 308 1219 275 1190 q 370 1272 342 1247 q 415 1311 399 1297 z "},"Ḥ":{"ha":903,"x_min":125,"x_max":778,"o":"m 394 -142 q 419 -142 407 -142 q 442 -142 431 -142 q 466 -142 454 -142 q 490 -142 478 -142 q 501 -146 497 -142 q 506 -157 506 -150 l 506 -253 q 481 -253 493 -253 q 458 -253 469 -253 q 434 -253 446 -253 q 410 -253 422 -253 q 399 -249 403 -253 q 394 -237 394 -244 l 394 -142 m 125 972 q 152 972 139 972 q 179 972 165 972 q 190 968 186 972 q 194 957 194 964 q 194 718 194 838 q 194 478 194 599 q 194 239 194 358 q 194 0 194 119 q 167 0 181 0 q 140 0 154 0 q 133 2 136 0 q 127 8 129 4 q 125 15 125 11 q 125 288 125 151 q 125 562 125 425 q 125 835 125 699 q 125 903 125 869 q 125 972 125 938 m 175 528 l 669 528 q 692 528 681 528 q 713 528 703 528 l 743 542 l 743 463 l 190 463 q 183 464 186 463 q 178 467 181 465 q 176 472 176 469 q 175 478 175 475 l 175 528 m 778 0 q 751 0 764 0 q 724 0 738 0 q 716 2 719 0 q 710 8 713 4 q 708 15 708 11 q 708 254 708 135 q 708 494 708 374 q 708 733 708 614 q 708 972 708 853 q 735 972 722 972 q 763 972 749 972 q 768 971 765 972 q 773 967 771 969 q 776 963 775 965 q 778 957 778 960 q 778 753 778 856 q 778 548 778 650 q 778 344 778 446 q 778 139 778 242 q 778 69 778 104 q 778 0 778 35 z "},"Ḫ":{"ha":903,"x_min":125,"x_max":778,"o":"m 450 -233 q 570 -193 524 -233 q 629 -68 617 -153 q 651 -68 640 -68 q 672 -68 661 -68 q 690 -74 686 -68 q 692 -99 694 -79 q 656 -198 686 -153 q 575 -270 625 -243 q 460 -297 525 -297 l 440 -297 q 325 -270 375 -297 q 245 -198 275 -243 q 208 -99 215 -153 q 210 -74 207 -79 q 228 -68 214 -68 q 249 -68 239 -68 q 271 -68 260 -68 q 330 -193 283 -153 q 450 -233 376 -233 m 125 972 q 152 972 139 972 q 179 972 165 972 q 190 968 186 972 q 194 957 194 964 q 194 718 194 838 q 194 478 194 599 q 194 239 194 358 q 194 0 194 119 q 167 0 181 0 q 140 0 154 0 q 133 2 136 0 q 127 8 129 4 q 125 15 125 11 q 125 288 125 151 q 125 562 125 425 q 125 835 125 699 q 125 903 125 869 q 125 972 125 938 m 175 528 l 669 528 q 692 528 681 528 q 713 528 703 528 l 743 542 l 743 463 l 190 463 q 183 464 186 463 q 178 467 181 465 q 176 472 176 469 q 175 478 175 475 l 175 528 m 778 0 q 751 0 764 0 q 724 0 738 0 q 716 2 719 0 q 710 8 713 4 q 708 15 708 11 q 708 254 708 135 q 708 494 708 374 q 708 733 708 614 q 708 972 708 853 q 735 972 722 972 q 763 972 749 972 q 768 971 765 972 q 773 967 771 969 q 776 963 775 965 q 778 957 778 960 q 778 753 778 856 q 778 548 778 650 q 778 344 778 446 q 778 139 778 242 q 778 69 778 104 q 778 0 778 35 z "},"I":{"ha":694,"x_min":111,"x_max":583,"o":"m 382 28 l 308 28 l 313 43 q 313 100 313 71 q 313 158 313 129 q 313 355 313 257 q 313 551 313 453 q 313 747 313 649 q 313 944 313 846 l 390 944 l 382 929 q 382 883 382 907 q 382 836 382 860 q 382 634 382 735 q 382 432 382 533 q 382 230 382 331 q 382 28 382 129 m 583 0 l 126 0 q 119 1 122 0 q 115 5 117 3 q 112 10 113 7 q 111 15 111 13 q 111 33 111 25 q 111 49 111 40 q 111 65 111 57 l 568 65 q 576 63 572 65 q 581 58 579 61 q 583 50 583 54 q 583 33 583 42 q 583 17 583 25 q 583 0 583 10 m 111 972 l 568 972 q 579 968 575 972 q 583 957 583 964 q 583 944 583 950 q 583 932 583 938 q 583 920 583 926 q 583 907 583 914 l 126 907 q 115 912 119 907 q 111 922 111 917 q 111 935 111 929 q 111 947 111 942 q 111 959 111 953 q 111 972 111 965 z "},"Ì":{"ha":694,"x_min":111,"x_max":583,"o":"m 382 28 l 308 28 l 313 43 q 313 100 313 71 q 313 158 313 129 q 313 355 313 257 q 313 551 313 453 q 313 747 313 649 q 313 944 313 846 l 390 944 l 382 929 q 382 883 382 907 q 382 836 382 860 q 382 634 382 735 q 382 432 382 533 q 382 230 382 331 q 382 28 382 129 m 583 0 l 126 0 q 119 1 122 0 q 115 5 117 3 q 112 10 113 7 q 111 15 111 13 q 111 33 111 25 q 111 49 111 40 q 111 65 111 57 l 568 65 q 576 63 572 65 q 581 58 579 61 q 583 50 583 54 q 583 33 583 42 q 583 17 583 25 q 583 0 583 10 m 111 972 l 568 972 q 579 968 575 972 q 583 957 583 964 q 583 944 583 950 q 583 932 583 938 q 583 920 583 926 q 583 907 583 914 l 126 907 q 115 912 119 907 q 111 922 111 917 q 111 935 111 929 q 111 947 111 942 q 111 959 111 953 q 111 972 111 965 m 229 1311 q 283 1231 258 1268 q 333 1156 308 1193 q 385 1078 358 1119 q 367 1078 376 1078 q 349 1078 358 1078 q 329 1078 339 1078 q 315 1081 321 1078 q 306 1089 308 1085 q 257 1149 276 1125 q 222 1194 238 1174 q 188 1237 206 1214 q 144 1290 169 1260 q 142 1304 139 1297 q 154 1311 146 1311 q 178 1311 168 1311 q 201 1311 189 1311 q 229 1311 214 1311 z "},"Í":{"ha":694,"x_min":111,"x_max":583,"o":"m 382 28 l 308 28 l 313 43 q 313 100 313 71 q 313 158 313 129 q 313 355 313 257 q 313 551 313 453 q 313 747 313 649 q 313 944 313 846 l 390 944 l 382 929 q 382 883 382 907 q 382 836 382 860 q 382 634 382 735 q 382 432 382 533 q 382 230 382 331 q 382 28 382 129 m 583 0 l 126 0 q 119 1 122 0 q 115 5 117 3 q 112 10 113 7 q 111 15 111 13 q 111 33 111 25 q 111 49 111 40 q 111 65 111 57 l 568 65 q 576 63 572 65 q 581 58 579 61 q 583 50 583 54 q 583 33 583 42 q 583 17 583 25 q 583 0 583 10 m 111 972 l 568 972 q 579 968 575 972 q 583 957 583 964 q 583 944 583 950 q 583 932 583 938 q 583 920 583 926 q 583 907 583 914 l 126 907 q 115 912 119 907 q 111 922 111 917 q 111 935 111 929 q 111 947 111 942 q 111 959 111 953 q 111 972 111 965 m 474 1310 q 499 1310 490 1310 q 516 1310 508 1310 q 538 1310 524 1310 q 550 1303 546 1310 q 547 1289 554 1296 q 504 1235 522 1258 q 470 1192 486 1213 q 435 1148 454 1172 q 386 1088 415 1124 q 377 1080 383 1083 q 363 1076 371 1076 q 345 1076 353 1076 q 330 1076 338 1076 q 314 1076 322 1076 q 368 1155 343 1118 q 419 1229 393 1192 q 474 1310 444 1267 z "},"Î":{"ha":694,"x_min":58,"x_max":646,"o":"m 382 28 l 308 28 l 313 43 q 313 100 313 71 q 313 158 313 129 q 313 355 313 257 q 313 551 313 453 q 313 747 313 649 q 313 944 313 846 l 390 944 l 382 929 q 382 883 382 907 q 382 836 382 860 q 382 634 382 735 q 382 432 382 533 q 382 230 382 331 q 382 28 382 129 m 583 0 l 126 0 q 119 1 122 0 q 115 5 117 3 q 112 10 113 7 q 111 15 111 13 q 111 33 111 25 q 111 49 111 40 q 111 65 111 57 l 568 65 q 576 63 572 65 q 581 58 579 61 q 583 50 583 54 q 583 33 583 42 q 583 17 583 25 q 583 0 583 10 m 111 972 l 568 972 q 579 968 575 972 q 583 957 583 964 q 583 944 583 950 q 583 932 583 938 q 583 920 583 926 q 583 907 583 914 l 126 907 q 115 912 119 907 q 111 922 111 917 q 111 935 111 929 q 111 947 111 942 q 111 959 111 953 q 111 972 111 965 m 311 1311 q 328 1311 319 1311 q 344 1311 336 1311 q 361 1311 353 1311 q 381 1306 372 1311 q 411 1282 389 1301 q 449 1248 422 1272 q 511 1194 476 1224 q 581 1133 546 1164 q 646 1078 617 1103 q 615 1078 629 1079 q 583 1078 600 1078 q 561 1080 568 1078 q 543 1092 554 1082 q 459 1159 519 1111 q 314 1274 399 1207 l 389 1247 q 344 1247 367 1247 q 300 1247 322 1247 l 375 1274 q 232 1160 290 1207 q 129 1078 174 1114 l 75 1078 q 65 1079 68 1078 q 60 1083 61 1081 q 58 1088 58 1085 q 65 1099 58 1093 q 93 1125 71 1106 q 141 1165 111 1140 q 204 1219 171 1190 q 266 1272 238 1247 q 311 1311 294 1297 z "},"Ï":{"ha":694,"x_min":111,"x_max":583,"o":"m 382 28 l 308 28 l 313 43 q 313 100 313 71 q 313 158 313 129 q 313 355 313 257 q 313 551 313 453 q 313 747 313 649 q 313 944 313 846 l 390 944 l 382 929 q 382 883 382 907 q 382 836 382 860 q 382 634 382 735 q 382 432 382 533 q 382 230 382 331 q 382 28 382 129 m 583 0 l 126 0 q 119 1 122 0 q 115 5 117 3 q 112 10 113 7 q 111 15 111 13 q 111 33 111 25 q 111 49 111 40 q 111 65 111 57 l 568 65 q 576 63 572 65 q 581 58 579 61 q 583 50 583 54 q 583 33 583 42 q 583 17 583 25 q 583 0 583 10 m 111 972 l 568 972 q 579 968 575 972 q 583 957 583 964 q 583 944 583 950 q 583 932 583 938 q 583 920 583 926 q 583 907 583 914 l 126 907 q 115 912 119 907 q 111 922 111 917 q 111 935 111 929 q 111 947 111 942 q 111 959 111 953 q 111 972 111 965 m 153 1233 q 201 1233 176 1233 q 249 1233 225 1233 q 257 1231 254 1233 q 262 1226 260 1229 q 264 1218 264 1224 l 264 1122 q 216 1122 240 1122 q 168 1122 192 1122 q 160 1124 164 1122 q 155 1130 157 1126 q 153 1138 153 1133 l 153 1233 m 431 1233 q 478 1233 454 1233 q 526 1233 503 1233 q 535 1231 532 1233 q 540 1226 538 1229 q 542 1218 542 1224 l 542 1122 q 494 1122 518 1122 q 446 1122 469 1122 q 438 1124 442 1122 q 433 1130 435 1126 q 431 1138 431 1133 l 431 1233 z "},"Ĩ":{"ha":694,"x_min":101,"x_max":593,"o":"m 382 28 l 308 28 l 313 43 q 313 100 313 71 q 313 158 313 129 q 313 355 313 257 q 313 551 313 453 q 313 747 313 649 q 313 944 313 846 l 390 944 l 382 929 q 382 883 382 907 q 382 836 382 860 q 382 634 382 735 q 382 432 382 533 q 382 230 382 331 q 382 28 382 129 m 583 0 l 126 0 q 119 1 122 0 q 115 5 117 3 q 112 10 113 7 q 111 15 111 13 q 111 33 111 25 q 111 49 111 40 q 111 65 111 57 l 568 65 q 576 63 572 65 q 581 58 579 61 q 583 50 583 54 q 583 33 583 42 q 583 17 583 25 q 583 0 583 10 m 111 972 l 568 972 q 579 968 575 972 q 583 957 583 964 q 583 944 583 950 q 583 932 583 938 q 583 920 583 926 q 583 907 583 914 l 126 907 q 115 912 119 907 q 111 922 111 917 q 111 935 111 929 q 111 947 111 942 q 111 959 111 953 q 111 972 111 965 m 465 1178 q 525 1194 501 1178 q 578 1242 549 1210 l 593 1242 q 593 1215 593 1229 q 593 1186 593 1201 q 592 1177 593 1182 q 583 1165 590 1172 q 535 1128 561 1143 q 467 1114 508 1114 q 401 1128 432 1114 q 342 1159 371 1142 q 286 1190 314 1176 q 229 1204 258 1204 q 169 1188 193 1204 q 117 1140 146 1172 l 101 1140 q 101 1167 101 1153 q 101 1196 101 1182 q 103 1204 101 1199 q 111 1217 104 1210 q 160 1253 133 1239 q 228 1268 186 1268 q 294 1254 263 1268 q 353 1223 325 1240 q 409 1192 382 1206 q 465 1178 436 1178 z "},"Ī":{"ha":694,"x_min":106,"x_max":589,"o":"m 382 28 l 308 28 l 313 43 q 313 100 313 71 q 313 158 313 129 q 313 355 313 257 q 313 551 313 453 q 313 747 313 649 q 313 944 313 846 l 390 944 l 382 929 q 382 883 382 907 q 382 836 382 860 q 382 634 382 735 q 382 432 382 533 q 382 230 382 331 q 382 28 382 129 m 583 0 l 126 0 q 119 1 122 0 q 115 5 117 3 q 112 10 113 7 q 111 15 111 13 q 111 33 111 25 q 111 49 111 40 q 111 65 111 57 l 568 65 q 576 63 572 65 q 581 58 579 61 q 583 50 583 54 q 583 33 583 42 q 583 17 583 25 q 583 0 583 10 m 111 972 l 568 972 q 579 968 575 972 q 583 957 583 964 q 583 944 583 950 q 583 932 583 938 q 583 920 583 926 q 583 907 583 914 l 126 907 q 115 912 119 907 q 111 922 111 917 q 111 935 111 929 q 111 947 111 942 q 111 959 111 953 q 111 972 111 965 m 106 1197 l 574 1197 q 585 1193 581 1197 q 589 1182 589 1189 q 589 1155 589 1168 q 589 1128 589 1142 l 121 1128 q 113 1130 117 1128 q 108 1135 110 1132 q 106 1143 106 1139 q 106 1170 106 1157 q 106 1197 106 1183 z "},"Ĭ":{"ha":694,"x_min":104,"x_max":590,"o":"m 382 28 l 308 28 l 313 43 q 313 100 313 71 q 313 158 313 129 q 313 355 313 257 q 313 551 313 453 q 313 747 313 649 q 313 944 313 846 l 390 944 l 382 929 q 382 883 382 907 q 382 836 382 860 q 382 634 382 735 q 382 432 382 533 q 382 230 382 331 q 382 28 382 129 m 583 0 l 126 0 q 119 1 122 0 q 115 5 117 3 q 112 10 113 7 q 111 15 111 13 q 111 33 111 25 q 111 49 111 40 q 111 65 111 57 l 568 65 q 576 63 572 65 q 581 58 579 61 q 583 50 583 54 q 583 33 583 42 q 583 17 583 25 q 583 0 583 10 m 111 972 l 568 972 q 579 968 575 972 q 583 957 583 964 q 583 944 583 950 q 583 932 583 938 q 583 920 583 926 q 583 907 583 914 l 126 907 q 115 912 119 907 q 111 922 111 917 q 111 935 111 929 q 111 947 111 942 q 111 959 111 953 q 111 972 111 965 m 526 1299 q 548 1299 538 1299 q 569 1299 558 1299 q 587 1290 583 1299 q 585 1267 590 1282 q 536 1188 569 1221 q 458 1136 503 1154 q 357 1118 413 1118 l 338 1118 q 238 1136 283 1118 q 159 1188 192 1154 q 110 1267 126 1221 q 108 1290 104 1282 q 125 1299 111 1299 q 147 1299 136 1299 q 168 1299 157 1299 q 239 1208 196 1235 q 347 1182 282 1182 q 456 1208 413 1182 q 526 1299 499 1235 z "},"Į":{"ha":694,"x_min":111,"x_max":583,"o":"m 382 28 l 308 28 l 313 43 q 313 100 313 71 q 313 158 313 129 q 313 355 313 257 q 313 551 313 453 q 313 747 313 649 q 313 944 313 846 l 390 944 l 382 929 q 382 883 382 907 q 382 836 382 860 q 382 634 382 735 q 382 432 382 533 q 382 230 382 331 q 382 28 382 129 m 583 0 l 126 0 q 119 1 122 0 q 115 5 117 3 q 112 10 113 7 q 111 15 111 13 q 111 33 111 25 q 111 49 111 40 q 111 65 111 57 l 568 65 q 576 63 572 65 q 581 58 579 61 q 583 50 583 54 q 583 33 583 42 q 583 17 583 25 q 583 0 583 10 m 111 972 l 568 972 q 579 968 575 972 q 583 957 583 964 q 583 944 583 950 q 583 932 583 938 q 583 920 583 926 q 583 907 583 914 l 126 907 q 115 912 119 907 q 111 922 111 917 q 111 935 111 929 q 111 947 111 942 q 111 959 111 953 q 111 972 111 965 m 510 26 q 540 23 522 29 q 583 0 557 17 q 581 -9 583 -6 q 568 -15 578 -12 q 411 -92 451 -46 q 371 -189 371 -137 q 398 -259 371 -236 q 464 -282 425 -282 q 518 -274 496 -282 q 563 -250 540 -267 l 579 -250 q 579 -266 579 -257 q 579 -283 579 -275 q 579 -301 579 -292 q 549 -331 579 -315 q 467 -347 518 -347 q 344 -308 389 -347 q 300 -200 300 -268 q 331 -90 300 -136 q 410 -14 363 -43 q 510 26 458 15 z "},"İ":{"ha":694,"x_min":111,"x_max":583,"o":"m 292 1233 q 316 1233 304 1233 q 340 1233 328 1233 q 363 1233 351 1233 q 388 1233 375 1233 q 399 1229 394 1233 q 403 1218 403 1225 l 403 1122 q 378 1122 390 1122 q 355 1122 367 1122 q 331 1122 343 1122 q 307 1122 319 1122 q 296 1126 300 1122 q 292 1138 292 1131 l 292 1233 m 382 28 l 308 28 l 313 43 q 313 100 313 71 q 313 158 313 129 q 313 355 313 257 q 313 551 313 453 q 313 747 313 649 q 313 944 313 846 l 390 944 l 382 929 q 382 883 382 907 q 382 836 382 860 q 382 634 382 735 q 382 432 382 533 q 382 230 382 331 q 382 28 382 129 m 583 0 l 126 0 q 119 1 122 0 q 115 5 117 3 q 112 10 113 7 q 111 15 111 13 q 111 33 111 25 q 111 49 111 40 q 111 65 111 57 l 568 65 q 576 63 572 65 q 581 58 579 61 q 583 50 583 54 q 583 33 583 42 q 583 17 583 25 q 583 0 583 10 m 111 972 l 568 972 q 579 968 575 972 q 583 957 583 964 q 583 944 583 950 q 583 932 583 938 q 583 920 583 926 q 583 907 583 914 l 126 907 q 115 912 119 907 q 111 922 111 917 q 111 935 111 929 q 111 947 111 942 q 111 959 111 953 q 111 972 111 965 z "},"Ȉ":{"ha":694,"x_min":42,"x_max":583,"o":"m 132 1310 q 186 1229 161 1267 q 236 1155 211 1192 q 288 1076 261 1118 q 270 1076 279 1076 q 251 1076 261 1076 q 232 1076 242 1076 q 217 1080 224 1076 q 208 1088 211 1083 q 160 1148 179 1124 q 124 1192 140 1172 q 90 1235 108 1213 q 47 1289 72 1258 q 45 1303 42 1296 q 57 1310 49 1310 q 81 1310 71 1310 q 104 1310 92 1310 q 132 1310 117 1310 m 368 1310 q 422 1229 397 1267 q 472 1155 447 1192 q 524 1076 497 1118 q 506 1076 515 1076 q 488 1076 497 1076 q 468 1076 478 1076 q 453 1080 460 1076 q 444 1088 447 1083 q 396 1148 415 1124 q 360 1192 376 1172 q 326 1235 344 1213 q 283 1289 308 1258 q 281 1303 278 1296 q 293 1310 285 1310 q 317 1310 307 1310 q 340 1310 328 1310 q 368 1310 351 1310 m 382 28 l 308 28 l 313 43 q 313 100 313 71 q 313 158 313 129 q 313 355 313 257 q 313 551 313 453 q 313 747 313 649 q 313 944 313 846 l 390 944 l 382 929 q 382 883 382 907 q 382 836 382 860 q 382 634 382 735 q 382 432 382 533 q 382 230 382 331 q 382 28 382 129 m 583 0 l 126 0 q 119 1 122 0 q 115 5 117 3 q 112 10 113 7 q 111 15 111 13 q 111 33 111 25 q 111 49 111 40 q 111 65 111 57 l 568 65 q 576 63 572 65 q 581 58 579 61 q 583 50 583 54 q 583 33 583 42 q 583 17 583 25 q 583 0 583 10 m 111 972 l 568 972 q 579 968 575 972 q 583 957 583 964 q 583 944 583 950 q 583 932 583 938 q 583 920 583 926 q 583 907 583 914 l 126 907 q 115 912 119 907 q 111 922 111 917 q 111 935 111 929 q 111 947 111 942 q 111 959 111 953 q 111 972 111 965 z "},"Ȋ":{"ha":694,"x_min":104,"x_max":590,"o":"m 382 28 l 308 28 l 313 43 q 313 100 313 71 q 313 158 313 129 q 313 355 313 257 q 313 551 313 453 q 313 747 313 649 q 313 944 313 846 l 390 944 l 382 929 q 382 883 382 907 q 382 836 382 860 q 382 634 382 735 q 382 432 382 533 q 382 230 382 331 q 382 28 382 129 m 583 0 l 126 0 q 119 1 122 0 q 115 5 117 3 q 112 10 113 7 q 111 15 111 13 q 111 33 111 25 q 111 49 111 40 q 111 65 111 57 l 568 65 q 576 63 572 65 q 581 58 579 61 q 583 50 583 54 q 583 33 583 42 q 583 17 583 25 q 583 0 583 10 m 111 972 l 568 972 q 579 968 575 972 q 583 957 583 964 q 583 944 583 950 q 583 932 583 938 q 583 920 583 926 q 583 907 583 914 l 126 907 q 115 912 119 907 q 111 922 111 917 q 111 935 111 929 q 111 947 111 942 q 111 959 111 953 q 111 972 111 965 m 168 1104 q 147 1104 157 1104 q 125 1104 136 1104 q 108 1113 111 1104 q 110 1136 104 1121 q 159 1216 126 1183 q 238 1267 192 1249 q 338 1285 283 1285 l 357 1285 q 458 1267 413 1285 q 536 1216 503 1249 q 585 1136 569 1183 q 587 1113 590 1121 q 569 1104 583 1104 q 548 1104 558 1104 q 526 1104 538 1104 q 456 1194 499 1168 q 347 1221 413 1221 q 239 1194 282 1221 q 168 1104 196 1168 z "},"Ḯ":{"ha":694,"x_min":111,"x_max":583,"o":"m 382 28 l 308 28 l 313 43 q 313 100 313 71 q 313 158 313 129 q 313 355 313 257 q 313 551 313 453 q 313 747 313 649 q 313 944 313 846 l 390 944 l 382 929 q 382 883 382 907 q 382 836 382 860 q 382 634 382 735 q 382 432 382 533 q 382 230 382 331 q 382 28 382 129 m 583 0 l 126 0 q 119 1 122 0 q 115 5 117 3 q 112 10 113 7 q 111 15 111 13 q 111 33 111 25 q 111 49 111 40 q 111 65 111 57 l 568 65 q 576 63 572 65 q 581 58 579 61 q 583 50 583 54 q 583 33 583 42 q 583 17 583 25 q 583 0 583 10 m 111 972 l 568 972 q 579 968 575 972 q 583 957 583 964 q 583 944 583 950 q 583 932 583 938 q 583 920 583 926 q 583 907 583 914 l 126 907 q 115 912 119 907 q 111 922 111 917 q 111 935 111 929 q 111 947 111 942 q 111 959 111 953 q 111 972 111 965 m 153 1233 q 201 1233 176 1233 q 249 1233 225 1233 q 257 1231 254 1233 q 262 1226 260 1229 q 264 1218 264 1224 l 264 1122 q 216 1122 240 1122 q 168 1122 192 1122 q 160 1124 164 1122 q 155 1130 157 1126 q 153 1138 153 1133 l 153 1233 m 431 1233 q 478 1233 454 1233 q 526 1233 503 1233 q 535 1231 532 1233 q 540 1226 538 1229 q 542 1218 542 1224 l 542 1122 q 494 1122 518 1122 q 446 1122 469 1122 q 438 1124 442 1122 q 433 1130 435 1126 q 431 1138 431 1133 l 431 1233 m 474 1500 q 499 1500 490 1500 q 516 1500 508 1500 q 538 1500 524 1500 q 550 1493 546 1500 q 547 1479 554 1486 q 504 1426 522 1449 q 470 1383 486 1403 q 435 1338 454 1363 q 386 1278 415 1314 q 377 1270 383 1274 q 363 1267 371 1267 q 345 1267 353 1267 q 330 1267 338 1267 q 314 1267 322 1267 q 368 1345 343 1308 q 419 1419 393 1382 q 474 1500 444 1457 z "},"Ỉ":{"ha":694,"x_min":111,"x_max":583,"o":"m 382 28 l 308 28 l 313 43 q 313 100 313 71 q 313 158 313 129 q 313 355 313 257 q 313 551 313 453 q 313 747 313 649 q 313 944 313 846 l 390 944 l 382 929 q 382 883 382 907 q 382 836 382 860 q 382 634 382 735 q 382 432 382 533 q 382 230 382 331 q 382 28 382 129 m 583 0 l 126 0 q 119 1 122 0 q 115 5 117 3 q 112 10 113 7 q 111 15 111 13 q 111 33 111 25 q 111 49 111 40 q 111 65 111 57 l 568 65 q 576 63 572 65 q 581 58 579 61 q 583 50 583 54 q 583 33 583 42 q 583 17 583 25 q 583 0 583 10 m 111 972 l 568 972 q 579 968 575 972 q 583 957 583 964 q 583 944 583 950 q 583 932 583 938 q 583 920 583 926 q 583 907 583 914 l 126 907 q 115 912 119 907 q 111 922 111 917 q 111 935 111 929 q 111 947 111 942 q 111 959 111 953 q 111 972 111 965 m 317 1079 q 340 1115 328 1097 q 364 1150 353 1132 q 381 1176 372 1163 q 397 1204 389 1190 q 397 1211 397 1207 q 397 1221 397 1215 q 373 1221 388 1221 q 346 1221 358 1221 q 304 1221 333 1221 q 257 1221 275 1221 l 226 1221 q 226 1242 226 1236 q 226 1264 226 1249 q 231 1275 226 1271 q 242 1279 235 1279 q 289 1279 261 1279 q 349 1279 317 1279 q 413 1279 381 1279 q 472 1279 444 1279 q 481 1278 478 1279 q 487 1273 485 1276 q 489 1264 489 1269 l 489 1226 q 474 1201 489 1225 q 438 1146 458 1178 q 406 1101 422 1124 q 378 1061 390 1079 q 359 1061 368 1061 q 341 1061 350 1061 q 321 1061 332 1061 q 311 1067 311 1061 q 317 1079 311 1072 z "},"Ị":{"ha":694,"x_min":111,"x_max":583,"o":"m 382 28 l 308 28 l 313 43 q 313 100 313 71 q 313 158 313 129 q 313 355 313 257 q 313 551 313 453 q 313 747 313 649 q 313 944 313 846 l 390 944 l 382 929 q 382 883 382 907 q 382 836 382 860 q 382 634 382 735 q 382 432 382 533 q 382 230 382 331 q 382 28 382 129 m 583 0 l 126 0 q 119 1 122 0 q 115 5 117 3 q 112 10 113 7 q 111 15 111 13 q 111 33 111 25 q 111 49 111 40 q 111 65 111 57 l 568 65 q 576 63 572 65 q 581 58 579 61 q 583 50 583 54 q 583 33 583 42 q 583 17 583 25 q 583 0 583 10 m 111 972 l 568 972 q 579 968 575 972 q 583 957 583 964 q 583 944 583 950 q 583 932 583 938 q 583 920 583 926 q 583 907 583 914 l 126 907 q 115 912 119 907 q 111 922 111 917 q 111 935 111 929 q 111 947 111 942 q 111 959 111 953 q 111 972 111 965 m 292 -142 q 316 -142 304 -142 q 340 -142 328 -142 q 363 -142 351 -142 q 388 -142 375 -142 q 399 -146 394 -142 q 403 -157 403 -150 l 403 -253 q 378 -253 390 -253 q 355 -253 367 -253 q 331 -253 343 -253 q 307 -253 319 -253 q 296 -249 300 -253 q 292 -237 292 -244 l 292 -142 z "},"J":{"ha":694,"x_min":83,"x_max":597,"o":"m 290 38 q 380 53 339 38 q 451 99 421 68 q 492 154 475 122 q 518 231 508 186 q 528 336 528 276 q 528 479 528 406 q 528 630 528 553 q 528 787 528 707 q 528 949 528 867 l 542 900 l 515 922 l 569 907 q 460 907 514 907 q 355 907 407 907 q 249 907 303 907 q 140 907 196 907 q 133 909 136 907 q 127 915 129 911 q 125 922 125 918 q 125 947 125 935 q 125 972 125 960 q 240 972 183 972 q 353 972 297 972 q 467 972 410 972 q 582 972 524 972 q 591 970 588 972 q 596 965 594 968 q 597 957 597 963 q 597 792 597 874 q 597 632 597 711 q 597 478 597 553 q 597 332 597 403 q 576 178 597 246 q 515 65 556 111 q 417 -4 475 19 q 286 -28 360 -28 q 205 -19 244 -28 q 135 4 165 -10 q 89 35 106 18 q 86 39 88 38 q 84 43 85 40 q 83 49 83 46 q 83 74 83 63 q 83 100 83 86 l 100 100 q 158 67 128 81 q 222 45 189 53 q 290 38 256 38 z "},"Ĵ":{"ha":694,"x_min":65,"x_max":653,"o":"m 290 38 q 380 53 339 38 q 451 99 421 68 q 492 154 475 122 q 518 231 508 186 q 528 336 528 276 q 528 479 528 406 q 528 630 528 553 q 528 787 528 707 q 528 949 528 867 l 542 900 l 515 922 l 569 907 q 460 907 514 907 q 355 907 407 907 q 249 907 303 907 q 140 907 196 907 q 133 909 136 907 q 127 915 129 911 q 125 922 125 918 q 125 947 125 935 q 125 972 125 960 q 240 972 183 972 q 353 972 297 972 q 467 972 410 972 q 582 972 524 972 q 591 970 588 972 q 596 965 594 968 q 597 957 597 963 q 597 792 597 874 q 597 632 597 711 q 597 478 597 553 q 597 332 597 403 q 576 178 597 246 q 515 65 556 111 q 417 -4 475 19 q 286 -28 360 -28 q 205 -19 244 -28 q 135 4 165 -10 q 89 35 106 18 q 86 39 88 38 q 84 43 85 40 q 83 49 83 46 q 83 74 83 63 q 83 100 83 86 l 100 100 q 158 67 128 81 q 222 45 189 53 q 290 38 256 38 m 318 1311 q 335 1311 326 1311 q 351 1311 343 1311 q 368 1311 360 1311 q 388 1306 379 1311 q 418 1282 396 1301 q 456 1248 429 1272 q 518 1194 483 1224 q 588 1133 553 1164 q 653 1078 624 1103 q 622 1078 636 1079 q 590 1078 607 1078 q 568 1080 575 1078 q 550 1092 561 1082 q 466 1159 526 1111 q 321 1274 406 1207 l 396 1247 q 351 1247 374 1247 q 307 1247 329 1247 l 382 1274 q 239 1160 297 1207 q 136 1078 181 1114 l 82 1078 q 72 1079 75 1078 q 67 1083 68 1081 q 65 1088 65 1085 q 72 1099 65 1093 q 100 1125 78 1106 q 148 1165 118 1140 q 211 1219 178 1190 q 273 1272 244 1247 q 318 1311 301 1297 z "},"K":{"ha":833,"x_min":125,"x_max":778,"o":"m 368 532 q 510 324 439 428 q 653 117 582 221 q 690 79 672 89 q 736 69 708 69 q 752 69 746 69 q 764 69 758 69 l 778 69 q 778 55 778 63 q 778 40 778 47 q 778 26 778 32 q 778 15 778 19 q 774 4 778 8 q 763 0 769 0 q 752 0 757 0 q 742 0 747 0 q 731 0 736 0 q 674 8 697 0 q 632 35 651 17 q 592 82 613 53 q 522 186 554 138 q 461 278 489 235 q 410 365 433 322 q 365 451 386 408 l 326 451 l 368 532 m 725 972 q 731 971 729 972 q 735 968 733 969 q 736 964 736 967 q 733 953 736 960 q 716 928 729 946 q 672 871 703 910 q 606 785 642 832 q 529 686 569 738 q 446 578 489 635 q 357 464 403 522 q 265 346 311 406 q 172 226 218 286 l 172 347 l 211 347 q 253 422 229 383 q 306 500 278 460 q 366 581 335 540 q 428 664 397 622 q 507 767 468 715 q 585 869 546 818 q 664 972 625 921 l 725 972 m 125 972 q 152 972 139 972 q 179 972 165 972 q 190 968 186 972 q 194 957 194 964 q 194 718 194 838 q 194 478 194 599 q 194 239 194 358 q 194 0 194 119 q 167 0 181 0 q 140 0 154 0 q 129 4 133 0 q 125 15 125 8 q 125 288 125 151 q 125 562 125 425 q 125 835 125 699 q 125 903 125 869 q 125 972 125 938 z "},"Ķ":{"ha":833,"x_min":125,"x_max":778,"o":"m 368 532 q 510 324 439 428 q 653 117 582 221 q 690 79 672 89 q 736 69 708 69 q 752 69 746 69 q 764 69 758 69 l 778 69 q 778 55 778 63 q 778 40 778 47 q 778 26 778 32 q 778 15 778 19 q 774 4 778 8 q 763 0 769 0 q 752 0 757 0 q 742 0 747 0 q 731 0 736 0 q 674 8 697 0 q 632 35 651 17 q 592 82 613 53 q 522 186 554 138 q 461 278 489 235 q 410 365 433 322 q 365 451 386 408 l 326 451 l 368 532 m 725 972 q 731 971 729 972 q 735 968 733 969 q 736 964 736 967 q 733 953 736 960 q 716 928 729 946 q 672 871 703 910 q 606 785 642 832 q 529 686 569 738 q 446 578 489 635 q 357 464 403 522 q 265 346 311 406 q 172 226 218 286 l 172 347 l 211 347 q 253 422 229 383 q 306 500 278 460 q 366 581 335 540 q 428 664 397 622 q 507 767 468 715 q 585 869 546 818 q 664 972 625 921 l 725 972 m 125 972 q 152 972 139 972 q 179 972 165 972 q 190 968 186 972 q 194 957 194 964 q 194 718 194 838 q 194 478 194 599 q 194 239 194 358 q 194 0 194 119 q 167 0 181 0 q 140 0 154 0 q 129 4 133 0 q 125 15 125 8 q 125 288 125 151 q 125 562 125 425 q 125 835 125 699 q 125 903 125 869 q 125 972 125 938 m 432 -97 q 457 -97 447 -97 q 476 -97 467 -97 q 496 -97 486 -97 q 508 -103 504 -97 q 510 -117 513 -108 q 484 -184 494 -157 q 464 -238 474 -211 q 438 -308 454 -265 q 431 -318 436 -314 q 417 -322 426 -322 q 394 -322 406 -322 q 367 -322 382 -322 q 391 -240 381 -276 q 412 -168 401 -203 q 432 -97 422 -133 z "},"L":{"ha":764,"x_min":125,"x_max":681,"o":"m 140 0 q 133 1 136 0 q 128 3 131 1 q 126 8 126 6 q 125 15 125 11 q 125 256 125 133 q 125 492 125 379 q 125 694 125 606 q 125 833 125 783 q 125 903 125 868 q 125 972 125 938 q 152 972 139 972 q 179 972 165 972 q 188 970 185 972 q 192 965 190 968 q 194 957 194 961 q 194 734 194 846 q 194 511 194 622 q 194 288 194 400 q 194 65 194 176 l 638 65 q 655 59 647 65 q 668 42 663 53 q 677 21 674 32 q 681 0 681 10 l 140 0 m 611 229 q 630 229 621 229 q 648 229 639 229 q 665 229 657 229 q 673 227 669 229 q 678 222 676 225 q 681 214 681 218 q 681 162 681 189 q 681 107 681 135 q 681 52 681 79 q 681 0 681 25 q 638 4 653 0 q 617 18 622 8 q 611 43 611 28 q 611 104 611 72 q 611 168 611 136 q 611 229 611 200 z "},"Ĺ":{"ha":764,"x_min":125,"x_max":681,"o":"m 140 0 q 133 1 136 0 q 128 3 131 1 q 126 8 126 6 q 125 15 125 11 q 125 256 125 133 q 125 492 125 379 q 125 694 125 606 q 125 833 125 783 q 125 903 125 868 q 125 972 125 938 q 152 972 139 972 q 179 972 165 972 q 188 970 185 972 q 192 965 190 968 q 194 957 194 961 q 194 734 194 846 q 194 511 194 622 q 194 288 194 400 q 194 65 194 176 l 638 65 q 655 59 647 65 q 668 42 663 53 q 677 21 674 32 q 681 0 681 10 l 140 0 m 611 229 q 630 229 621 229 q 648 229 639 229 q 665 229 657 229 q 673 227 669 229 q 678 222 676 225 q 681 214 681 218 q 681 162 681 189 q 681 107 681 135 q 681 52 681 79 q 681 0 681 25 q 638 4 653 0 q 617 18 622 8 q 611 43 611 28 q 611 104 611 72 q 611 168 611 136 q 611 229 611 200 m 289 1310 q 315 1310 306 1310 q 331 1310 324 1310 q 353 1310 339 1310 q 365 1303 361 1310 q 363 1289 369 1296 q 319 1235 338 1258 q 285 1192 301 1213 q 250 1148 269 1172 q 201 1088 231 1124 q 192 1080 199 1083 q 178 1076 186 1076 q 160 1076 168 1076 q 145 1076 153 1076 q 129 1076 138 1076 q 183 1155 158 1118 q 234 1229 208 1192 q 289 1310 260 1267 z "},"Ļ":{"ha":764,"x_min":125,"x_max":681,"o":"m 140 0 q 133 1 136 0 q 128 3 131 1 q 126 8 126 6 q 125 15 125 11 q 125 256 125 133 q 125 492 125 379 q 125 694 125 606 q 125 833 125 783 q 125 903 125 868 q 125 972 125 938 q 152 972 139 972 q 179 972 165 972 q 188 970 185 972 q 192 965 190 968 q 194 957 194 961 q 194 734 194 846 q 194 511 194 622 q 194 288 194 400 q 194 65 194 176 l 638 65 q 655 59 647 65 q 668 42 663 53 q 677 21 674 32 q 681 0 681 10 l 140 0 m 611 229 q 630 229 621 229 q 648 229 639 229 q 665 229 657 229 q 673 227 669 229 q 678 222 676 225 q 681 214 681 218 q 681 162 681 189 q 681 107 681 135 q 681 52 681 79 q 681 0 681 25 q 638 4 653 0 q 617 18 622 8 q 611 43 611 28 q 611 104 611 72 q 611 168 611 136 q 611 229 611 200 m 383 -97 q 408 -97 399 -97 q 428 -97 418 -97 q 447 -97 438 -97 q 460 -103 456 -97 q 461 -117 464 -108 q 435 -184 446 -157 q 415 -238 425 -211 q 389 -308 406 -265 q 383 -318 388 -314 q 368 -322 378 -322 q 345 -322 357 -322 q 318 -322 333 -322 q 342 -240 332 -276 q 363 -168 353 -203 q 383 -97 374 -133 z "},"Ľ":{"ha":764,"x_min":125,"x_max":681,"o":"m 140 0 q 133 1 136 0 q 128 3 131 1 q 126 8 126 6 q 125 15 125 11 q 125 256 125 133 q 125 492 125 379 q 125 694 125 606 q 125 833 125 783 q 125 903 125 868 q 125 972 125 938 q 152 972 139 972 q 179 972 165 972 q 188 970 185 972 q 192 965 190 968 q 194 957 194 961 q 194 734 194 846 q 194 511 194 622 q 194 288 194 400 q 194 65 194 176 l 638 65 q 655 59 647 65 q 668 42 663 53 q 677 21 674 32 q 681 0 681 10 l 140 0 m 611 229 q 630 229 621 229 q 648 229 639 229 q 665 229 657 229 q 673 227 669 229 q 678 222 676 225 q 681 214 681 218 q 681 162 681 189 q 681 107 681 135 q 681 52 681 79 q 681 0 681 25 q 638 4 653 0 q 617 18 622 8 q 611 43 611 28 q 611 104 611 72 q 611 168 611 136 q 611 229 611 200 m 569 974 q 588 967 583 974 q 589 953 592 961 q 573 885 579 910 q 560 835 567 861 q 543 763 554 810 q 538 753 542 757 q 522 749 533 749 q 501 749 508 749 q 485 749 494 749 q 496 833 492 797 q 505 901 500 868 q 514 974 510 935 q 543 974 533 974 q 569 974 553 974 z "},"Ḷ":{"ha":764,"x_min":125,"x_max":681,"o":"m 347 -142 q 372 -142 360 -142 q 395 -142 383 -142 q 419 -142 407 -142 q 443 -142 431 -142 q 454 -146 450 -142 q 458 -157 458 -150 l 458 -253 q 434 -253 446 -253 q 410 -253 422 -253 q 387 -253 399 -253 q 363 -253 375 -253 q 351 -249 356 -253 q 347 -237 347 -244 l 347 -142 m 140 0 q 133 1 136 0 q 128 3 131 1 q 126 8 126 6 q 125 15 125 11 q 125 256 125 133 q 125 492 125 379 q 125 694 125 606 q 125 833 125 783 q 125 903 125 868 q 125 972 125 938 q 152 972 139 972 q 179 972 165 972 q 188 970 185 972 q 192 965 190 968 q 194 957 194 961 q 194 734 194 846 q 194 511 194 622 q 194 288 194 400 q 194 65 194 176 l 638 65 q 655 59 647 65 q 668 42 663 53 q 677 21 674 32 q 681 0 681 10 l 140 0 m 611 229 q 630 229 621 229 q 648 229 639 229 q 665 229 657 229 q 673 227 669 229 q 678 222 676 225 q 681 214 681 218 q 681 162 681 189 q 681 107 681 135 q 681 52 681 79 q 681 0 681 25 q 638 4 653 0 q 617 18 622 8 q 611 43 611 28 q 611 104 611 72 q 611 168 611 136 q 611 229 611 200 z "},"Ḻ":{"ha":764,"x_min":125,"x_max":681,"o":"m 161 -126 l 629 -126 q 640 -131 636 -126 q 644 -142 644 -135 q 644 -159 644 -150 q 644 -177 644 -168 q 644 -196 644 -186 l 176 -196 q 169 -194 172 -196 q 163 -188 165 -192 q 161 -181 161 -185 q 161 -162 161 -171 q 161 -144 161 -153 q 161 -126 161 -135 m 140 0 q 133 1 136 0 q 128 3 131 1 q 126 8 126 6 q 125 15 125 11 q 125 256 125 133 q 125 492 125 379 q 125 694 125 606 q 125 833 125 783 q 125 903 125 868 q 125 972 125 938 q 152 972 139 972 q 179 972 165 972 q 188 970 185 972 q 192 965 190 968 q 194 957 194 961 q 194 734 194 846 q 194 511 194 622 q 194 288 194 400 q 194 65 194 176 l 638 65 q 655 59 647 65 q 668 42 663 53 q 677 21 674 32 q 681 0 681 10 l 140 0 m 611 229 q 630 229 621 229 q 648 229 639 229 q 665 229 657 229 q 673 227 669 229 q 678 222 676 225 q 681 214 681 218 q 681 162 681 189 q 681 107 681 135 q 681 52 681 79 q 681 0 681 25 q 638 4 653 0 q 617 18 622 8 q 611 43 611 28 q 611 104 611 72 q 611 168 611 136 q 611 229 611 200 z "},"M":{"ha":1111,"x_min":125,"x_max":986,"o":"m 193 0 q 167 0 179 0 q 140 0 154 0 q 133 2 136 0 q 127 8 129 4 q 125 15 125 11 q 125 220 125 118 q 125 425 125 322 q 125 631 125 528 q 125 835 125 733 q 125 903 125 869 q 125 972 125 938 q 158 972 136 972 q 200 972 179 972 q 232 972 221 972 q 242 971 238 972 q 249 965 246 969 q 254 954 251 961 q 316 813 285 886 q 379 664 347 740 q 444 509 411 588 q 510 351 476 431 q 578 194 543 272 l 510 281 l 599 281 l 529 194 q 601 358 565 274 q 673 526 638 442 q 742 690 708 610 q 807 841 776 769 q 864 972 838 913 q 897 972 875 972 q 940 972 918 972 q 971 972 961 972 q 978 970 975 972 q 984 965 982 968 q 986 957 986 963 q 986 906 986 950 q 986 793 986 863 q 986 640 986 724 q 986 467 986 556 q 986 294 986 378 q 986 142 986 210 q 986 94 986 118 q 986 47 986 71 q 986 0 986 24 q 953 0 967 0 q 932 0 939 0 q 924 2 928 0 q 919 8 921 4 q 917 15 917 11 q 917 85 917 50 q 917 156 917 121 q 917 225 917 190 q 917 333 917 279 q 917 441 917 386 q 919 553 918 496 q 921 669 919 610 q 924 793 922 729 q 928 925 926 857 l 956 889 l 869 889 l 919 938 q 852 783 888 864 q 781 617 817 701 q 710 453 744 533 q 643 299 675 372 q 583 167 611 226 q 558 167 571 167 q 532 167 544 167 q 524 169 528 167 q 515 179 519 171 q 475 272 501 211 q 415 414 449 333 q 342 584 381 494 q 266 763 304 674 q 194 929 228 851 l 244 889 l 163 889 l 182 931 q 187 797 185 861 q 190 672 189 732 q 192 554 192 611 q 192 442 192 497 q 193 333 193 386 q 193 225 193 279 q 193 113 193 169 q 193 0 193 57 z "},"Ṃ":{"ha":1111,"x_min":125,"x_max":986,"o":"m 500 -142 q 524 -142 513 -142 q 548 -142 536 -142 q 572 -142 560 -142 q 596 -142 583 -142 q 607 -146 603 -142 q 611 -157 611 -150 l 611 -253 q 587 -253 599 -253 q 563 -253 575 -253 q 540 -253 551 -253 q 515 -253 528 -253 q 504 -249 508 -253 q 500 -237 500 -244 l 500 -142 m 193 0 q 167 0 179 0 q 140 0 154 0 q 133 2 136 0 q 127 8 129 4 q 125 15 125 11 q 125 220 125 118 q 125 425 125 322 q 125 631 125 528 q 125 835 125 733 q 125 903 125 869 q 125 972 125 938 q 158 972 136 972 q 200 972 179 972 q 232 972 221 972 q 242 971 238 972 q 249 965 246 969 q 254 954 251 961 q 316 813 285 886 q 379 664 347 740 q 444 509 411 588 q 510 351 476 431 q 578 194 543 272 l 510 281 l 599 281 l 529 194 q 601 358 565 274 q 673 526 638 442 q 742 690 708 610 q 807 841 776 769 q 864 972 838 913 q 897 972 875 972 q 940 972 918 972 q 971 972 961 972 q 978 970 975 972 q 984 965 982 968 q 986 957 986 963 q 986 906 986 950 q 986 793 986 863 q 986 640 986 724 q 986 467 986 556 q 986 294 986 378 q 986 142 986 210 q 986 94 986 118 q 986 47 986 71 q 986 0 986 24 q 953 0 967 0 q 932 0 939 0 q 924 2 928 0 q 919 8 921 4 q 917 15 917 11 q 917 85 917 50 q 917 156 917 121 q 917 225 917 190 q 917 333 917 279 q 917 441 917 386 q 919 553 918 496 q 921 669 919 610 q 924 793 922 729 q 928 925 926 857 l 956 889 l 869 889 l 919 938 q 852 783 888 864 q 781 617 817 701 q 710 453 744 533 q 643 299 675 372 q 583 167 611 226 q 558 167 571 167 q 532 167 544 167 q 524 169 528 167 q 515 179 519 171 q 475 272 501 211 q 415 414 449 333 q 342 584 381 494 q 266 763 304 674 q 194 929 228 851 l 244 889 l 163 889 l 182 931 q 187 797 185 861 q 190 672 189 732 q 192 554 192 611 q 192 442 192 497 q 193 333 193 386 q 193 225 193 279 q 193 113 193 169 q 193 0 193 57 z "},"N":{"ha":903,"x_min":111,"x_max":792,"o":"m 181 0 q 153 0 167 0 q 126 0 140 0 q 119 2 122 0 q 113 8 115 4 q 111 15 111 11 q 111 206 111 111 q 111 397 111 301 q 111 587 111 492 q 111 778 111 682 q 111 875 111 826 q 111 972 111 924 q 147 972 126 972 q 188 972 168 972 q 224 972 208 972 q 233 971 229 972 q 240 967 238 969 q 246 958 243 964 q 290 871 261 929 q 360 735 319 813 q 447 566 400 657 q 542 381 493 475 q 639 194 592 286 q 726 24 686 103 l 672 72 l 750 72 l 729 38 q 725 178 726 107 q 723 321 724 249 q 722 465 722 393 q 722 608 722 538 q 722 747 722 679 q 722 860 722 804 q 722 972 722 917 q 749 972 736 972 q 776 972 763 972 q 788 968 783 972 q 792 957 792 964 q 792 776 792 867 q 792 595 792 686 q 792 414 792 504 q 792 233 792 324 q 792 117 792 175 q 792 0 792 58 q 756 0 778 0 q 713 0 735 0 q 678 0 692 0 q 665 3 669 0 q 654 17 660 7 q 551 216 608 106 q 431 449 494 326 q 301 697 367 571 q 174 943 236 824 l 221 889 l 156 889 l 174 944 q 177 790 176 865 q 178 640 178 714 q 180 496 179 567 q 181 357 181 425 q 181 222 181 289 q 180 117 179 178 q 181 0 181 56 z "},"Ñ":{"ha":903,"x_min":111,"x_max":792,"o":"m 181 0 q 153 0 167 0 q 126 0 140 0 q 119 2 122 0 q 113 8 115 4 q 111 15 111 11 q 111 206 111 111 q 111 397 111 301 q 111 587 111 492 q 111 778 111 682 q 111 875 111 826 q 111 972 111 924 q 147 972 126 972 q 188 972 168 972 q 224 972 208 972 q 233 971 229 972 q 240 967 238 969 q 246 958 243 964 q 290 871 261 929 q 360 735 319 813 q 447 566 400 657 q 542 381 493 475 q 639 194 592 286 q 726 24 686 103 l 672 72 l 750 72 l 729 38 q 725 178 726 107 q 723 321 724 249 q 722 465 722 393 q 722 608 722 538 q 722 747 722 679 q 722 860 722 804 q 722 972 722 917 q 749 972 736 972 q 776 972 763 972 q 788 968 783 972 q 792 957 792 964 q 792 776 792 867 q 792 595 792 686 q 792 414 792 504 q 792 233 792 324 q 792 117 792 175 q 792 0 792 58 q 756 0 778 0 q 713 0 735 0 q 678 0 692 0 q 665 3 669 0 q 654 17 660 7 q 551 216 608 106 q 431 449 494 326 q 301 697 367 571 q 174 943 236 824 l 221 889 l 156 889 l 174 944 q 177 790 176 865 q 178 640 178 714 q 180 496 179 567 q 181 357 181 425 q 181 222 181 289 q 180 117 179 178 q 181 0 181 56 m 604 1178 q 664 1194 640 1178 q 717 1242 688 1210 l 732 1242 q 732 1215 732 1229 q 732 1186 732 1201 q 731 1177 732 1182 q 722 1165 729 1172 q 674 1128 700 1143 q 606 1114 647 1114 q 540 1128 571 1114 q 481 1159 510 1142 q 425 1190 453 1176 q 368 1204 397 1204 q 308 1188 332 1204 q 256 1140 285 1172 l 240 1140 q 240 1167 240 1153 q 240 1196 240 1182 q 242 1204 240 1199 q 250 1217 243 1210 q 299 1253 272 1239 q 367 1268 325 1268 q 433 1254 401 1268 q 492 1223 464 1240 q 548 1192 521 1206 q 604 1178 575 1178 z "},"Ń":{"ha":903,"x_min":111,"x_max":792,"o":"m 181 0 q 153 0 167 0 q 126 0 140 0 q 119 2 122 0 q 113 8 115 4 q 111 15 111 11 q 111 206 111 111 q 111 397 111 301 q 111 587 111 492 q 111 778 111 682 q 111 875 111 826 q 111 972 111 924 q 147 972 126 972 q 188 972 168 972 q 224 972 208 972 q 233 971 229 972 q 240 967 238 969 q 246 958 243 964 q 290 871 261 929 q 360 735 319 813 q 447 566 400 657 q 542 381 493 475 q 639 194 592 286 q 726 24 686 103 l 672 72 l 750 72 l 729 38 q 725 178 726 107 q 723 321 724 249 q 722 465 722 393 q 722 608 722 538 q 722 747 722 679 q 722 860 722 804 q 722 972 722 917 q 749 972 736 972 q 776 972 763 972 q 788 968 783 972 q 792 957 792 964 q 792 776 792 867 q 792 595 792 686 q 792 414 792 504 q 792 233 792 324 q 792 117 792 175 q 792 0 792 58 q 756 0 778 0 q 713 0 735 0 q 678 0 692 0 q 665 3 669 0 q 654 17 660 7 q 551 216 608 106 q 431 449 494 326 q 301 697 367 571 q 174 943 236 824 l 221 889 l 156 889 l 174 944 q 177 790 176 865 q 178 640 178 714 q 180 496 179 567 q 181 357 181 425 q 181 222 181 289 q 180 117 179 178 q 181 0 181 56 m 613 1310 q 638 1310 629 1310 q 655 1310 647 1310 q 676 1310 663 1310 q 689 1303 685 1310 q 686 1289 693 1296 q 643 1235 661 1258 q 609 1192 625 1213 q 574 1148 593 1172 q 525 1088 554 1124 q 516 1080 522 1083 q 501 1076 510 1076 q 484 1076 492 1076 q 469 1076 476 1076 q 453 1076 461 1076 q 507 1155 482 1118 q 558 1229 532 1192 q 613 1310 583 1267 z "},"Ņ":{"ha":903,"x_min":111,"x_max":792,"o":"m 181 0 q 153 0 167 0 q 126 0 140 0 q 119 2 122 0 q 113 8 115 4 q 111 15 111 11 q 111 206 111 111 q 111 397 111 301 q 111 587 111 492 q 111 778 111 682 q 111 875 111 826 q 111 972 111 924 q 147 972 126 972 q 188 972 168 972 q 224 972 208 972 q 233 971 229 972 q 240 967 238 969 q 246 958 243 964 q 290 871 261 929 q 360 735 319 813 q 447 566 400 657 q 542 381 493 475 q 639 194 592 286 q 726 24 686 103 l 672 72 l 750 72 l 729 38 q 725 178 726 107 q 723 321 724 249 q 722 465 722 393 q 722 608 722 538 q 722 747 722 679 q 722 860 722 804 q 722 972 722 917 q 749 972 736 972 q 776 972 763 972 q 788 968 783 972 q 792 957 792 964 q 792 776 792 867 q 792 595 792 686 q 792 414 792 504 q 792 233 792 324 q 792 117 792 175 q 792 0 792 58 q 756 0 778 0 q 713 0 735 0 q 678 0 692 0 q 665 3 669 0 q 654 17 660 7 q 551 216 608 106 q 431 449 494 326 q 301 697 367 571 q 174 943 236 824 l 221 889 l 156 889 l 174 944 q 177 790 176 865 q 178 640 178 714 q 180 496 179 567 q 181 357 181 425 q 181 222 181 289 q 180 117 179 178 q 181 0 181 56 m 467 -97 q 492 -97 482 -97 q 511 -97 501 -97 q 531 -97 521 -97 q 543 -103 539 -97 q 544 -117 547 -108 q 519 -184 529 -157 q 499 -238 508 -211 q 472 -308 489 -265 q 466 -318 471 -314 q 451 -322 461 -322 q 428 -322 440 -322 q 401 -322 417 -322 q 426 -240 415 -276 q 447 -168 436 -203 q 467 -97 457 -133 z "},"Ň":{"ha":903,"x_min":111,"x_max":792,"o":"m 521 1078 q 504 1078 513 1078 q 488 1078 496 1078 q 471 1078 479 1078 q 453 1083 461 1078 q 421 1107 444 1089 q 383 1142 410 1118 q 321 1195 356 1165 q 251 1256 286 1225 q 186 1311 215 1286 q 217 1310 203 1310 q 249 1311 232 1311 q 271 1309 264 1311 q 289 1297 278 1307 q 373 1231 313 1279 q 518 1115 433 1182 l 443 1142 q 488 1142 465 1142 q 532 1142 510 1142 l 457 1115 q 601 1229 543 1182 q 703 1311 660 1276 l 757 1311 q 767 1310 764 1311 q 772 1306 771 1308 q 774 1301 774 1304 q 768 1290 774 1296 q 739 1264 763 1283 q 691 1224 721 1249 q 628 1170 661 1199 q 566 1117 594 1142 q 521 1078 538 1092 m 181 0 q 153 0 167 0 q 126 0 140 0 q 119 2 122 0 q 113 8 115 4 q 111 15 111 11 q 111 206 111 111 q 111 397 111 301 q 111 587 111 492 q 111 778 111 682 q 111 875 111 826 q 111 972 111 924 q 147 972 126 972 q 188 972 168 972 q 224 972 208 972 q 233 971 229 972 q 240 967 238 969 q 246 958 243 964 q 290 871 261 929 q 360 735 319 813 q 447 566 400 657 q 542 381 493 475 q 639 194 592 286 q 726 24 686 103 l 672 72 l 750 72 l 729 38 q 725 178 726 107 q 723 321 724 249 q 722 465 722 393 q 722 608 722 538 q 722 747 722 679 q 722 860 722 804 q 722 972 722 917 q 749 972 736 972 q 776 972 763 972 q 788 968 783 972 q 792 957 792 964 q 792 776 792 867 q 792 595 792 686 q 792 414 792 504 q 792 233 792 324 q 792 117 792 175 q 792 0 792 58 q 756 0 778 0 q 713 0 735 0 q 678 0 692 0 q 665 3 669 0 q 654 17 660 7 q 551 216 608 106 q 431 449 494 326 q 301 697 367 571 q 174 943 236 824 l 221 889 l 156 889 l 174 944 q 177 790 176 865 q 178 640 178 714 q 180 496 179 567 q 181 357 181 425 q 181 222 181 289 q 180 117 179 178 q 181 0 181 56 z "},"Ṅ":{"ha":903,"x_min":111,"x_max":792,"o":"m 431 1233 q 455 1233 443 1233 q 478 1233 467 1233 q 502 1233 490 1233 q 526 1233 514 1233 q 538 1229 533 1233 q 542 1218 542 1225 l 542 1122 q 517 1122 529 1122 q 494 1122 506 1122 q 470 1122 482 1122 q 446 1122 458 1122 q 435 1126 439 1122 q 431 1138 431 1131 l 431 1233 m 181 0 q 153 0 167 0 q 126 0 140 0 q 119 2 122 0 q 113 8 115 4 q 111 15 111 11 q 111 206 111 111 q 111 397 111 301 q 111 587 111 492 q 111 778 111 682 q 111 875 111 826 q 111 972 111 924 q 147 972 126 972 q 188 972 168 972 q 224 972 208 972 q 233 971 229 972 q 240 967 238 969 q 246 958 243 964 q 290 871 261 929 q 360 735 319 813 q 447 566 400 657 q 542 381 493 475 q 639 194 592 286 q 726 24 686 103 l 672 72 l 750 72 l 729 38 q 725 178 726 107 q 723 321 724 249 q 722 465 722 393 q 722 608 722 538 q 722 747 722 679 q 722 860 722 804 q 722 972 722 917 q 749 972 736 972 q 776 972 763 972 q 788 968 783 972 q 792 957 792 964 q 792 776 792 867 q 792 595 792 686 q 792 414 792 504 q 792 233 792 324 q 792 117 792 175 q 792 0 792 58 q 756 0 778 0 q 713 0 735 0 q 678 0 692 0 q 665 3 669 0 q 654 17 660 7 q 551 216 608 106 q 431 449 494 326 q 301 697 367 571 q 174 943 236 824 l 221 889 l 156 889 l 174 944 q 177 790 176 865 q 178 640 178 714 q 180 496 179 567 q 181 357 181 425 q 181 222 181 289 q 180 117 179 178 q 181 0 181 56 z "},"Ṇ":{"ha":903,"x_min":111,"x_max":792,"o":"m 431 -142 q 455 -142 443 -142 q 478 -142 467 -142 q 502 -142 490 -142 q 526 -142 514 -142 q 538 -146 533 -142 q 542 -157 542 -150 l 542 -253 q 517 -253 529 -253 q 494 -253 506 -253 q 470 -253 482 -253 q 446 -253 458 -253 q 435 -249 439 -253 q 431 -237 431 -244 l 431 -142 m 181 0 q 153 0 167 0 q 126 0 140 0 q 119 2 122 0 q 113 8 115 4 q 111 15 111 11 q 111 206 111 111 q 111 397 111 301 q 111 587 111 492 q 111 778 111 682 q 111 875 111 826 q 111 972 111 924 q 147 972 126 972 q 188 972 168 972 q 224 972 208 972 q 233 971 229 972 q 240 967 238 969 q 246 958 243 964 q 290 871 261 929 q 360 735 319 813 q 447 566 400 657 q 542 381 493 475 q 639 194 592 286 q 726 24 686 103 l 672 72 l 750 72 l 729 38 q 725 178 726 107 q 723 321 724 249 q 722 465 722 393 q 722 608 722 538 q 722 747 722 679 q 722 860 722 804 q 722 972 722 917 q 749 972 736 972 q 776 972 763 972 q 788 968 783 972 q 792 957 792 964 q 792 776 792 867 q 792 595 792 686 q 792 414 792 504 q 792 233 792 324 q 792 117 792 175 q 792 0 792 58 q 756 0 778 0 q 713 0 735 0 q 678 0 692 0 q 665 3 669 0 q 654 17 660 7 q 551 216 608 106 q 431 449 494 326 q 301 697 367 571 q 174 943 236 824 l 221 889 l 156 889 l 174 944 q 177 790 176 865 q 178 640 178 714 q 180 496 179 567 q 181 357 181 425 q 181 222 181 289 q 180 117 179 178 q 181 0 181 56 z "},"Ṉ":{"ha":903,"x_min":111,"x_max":792,"o":"m 244 -126 l 713 -126 q 724 -131 719 -126 q 728 -142 728 -135 q 728 -159 728 -150 q 728 -177 728 -168 q 728 -196 728 -186 l 260 -196 q 252 -194 256 -196 q 247 -188 249 -192 q 244 -181 244 -185 q 244 -162 244 -171 q 244 -144 244 -153 q 244 -126 244 -135 m 181 0 q 153 0 167 0 q 126 0 140 0 q 119 2 122 0 q 113 8 115 4 q 111 15 111 11 q 111 206 111 111 q 111 397 111 301 q 111 587 111 492 q 111 778 111 682 q 111 875 111 826 q 111 972 111 924 q 147 972 126 972 q 188 972 168 972 q 224 972 208 972 q 233 971 229 972 q 240 967 238 969 q 246 958 243 964 q 290 871 261 929 q 360 735 319 813 q 447 566 400 657 q 542 381 493 475 q 639 194 592 286 q 726 24 686 103 l 672 72 l 750 72 l 729 38 q 725 178 726 107 q 723 321 724 249 q 722 465 722 393 q 722 608 722 538 q 722 747 722 679 q 722 860 722 804 q 722 972 722 917 q 749 972 736 972 q 776 972 763 972 q 788 968 783 972 q 792 957 792 964 q 792 776 792 867 q 792 595 792 686 q 792 414 792 504 q 792 233 792 324 q 792 117 792 175 q 792 0 792 58 q 756 0 778 0 q 713 0 735 0 q 678 0 692 0 q 665 3 669 0 q 654 17 660 7 q 551 216 608 106 q 431 449 494 326 q 301 697 367 571 q 174 943 236 824 l 221 889 l 156 889 l 174 944 q 177 790 176 865 q 178 640 178 714 q 180 496 179 567 q 181 357 181 425 q 181 222 181 289 q 180 117 179 178 q 181 0 181 56 z "},"O":{"ha":903,"x_min":104,"x_max":799,"o":"m 453 1000 q 629 960 551 1000 q 753 838 707 921 q 799 626 799 756 l 799 335 q 750 127 799 207 q 622 10 701 47 q 450 -28 542 -28 q 280 10 358 -28 q 153 128 201 47 q 104 336 104 208 l 104 626 q 149 838 104 756 q 272 960 193 921 q 453 1000 350 1000 m 174 328 q 197 198 174 253 q 257 107 221 143 q 333 58 288 78 q 450 38 378 38 q 593 72 531 38 q 692 174 656 107 q 729 335 729 240 l 729 638 q 718 735 729 692 q 688 811 707 778 q 643 868 668 844 q 563 916 613 897 q 453 935 514 935 q 292 897 354 935 q 202 792 231 858 q 174 638 174 725 l 174 328 z "},"Ò":{"ha":903,"x_min":104,"x_max":799,"o":"m 453 1000 q 629 960 551 1000 q 753 838 707 921 q 799 626 799 756 l 799 335 q 750 127 799 207 q 622 10 701 47 q 450 -28 542 -28 q 280 10 358 -28 q 153 128 201 47 q 104 336 104 208 l 104 626 q 149 838 104 756 q 272 960 193 921 q 453 1000 350 1000 m 174 328 q 197 198 174 253 q 257 107 221 143 q 333 58 288 78 q 450 38 378 38 q 593 72 531 38 q 692 174 656 107 q 729 335 729 240 l 729 638 q 718 735 729 692 q 688 811 707 778 q 643 868 668 844 q 563 916 613 897 q 453 935 514 935 q 292 897 354 935 q 202 792 231 858 q 174 638 174 725 l 174 328 m 333 1311 q 388 1231 363 1268 q 438 1156 413 1193 q 489 1078 463 1119 q 472 1078 481 1078 q 453 1078 463 1078 q 433 1078 443 1078 q 419 1081 425 1078 q 410 1089 413 1085 q 361 1149 381 1125 q 326 1194 342 1174 q 292 1237 310 1214 q 249 1290 274 1260 q 247 1304 243 1297 q 258 1311 250 1311 q 283 1311 272 1311 q 306 1311 293 1311 q 333 1311 318 1311 z "},"Ó":{"ha":903,"x_min":104,"x_max":799,"o":"m 453 1000 q 629 960 551 1000 q 753 838 707 921 q 799 626 799 756 l 799 335 q 750 127 799 207 q 622 10 701 47 q 450 -28 542 -28 q 280 10 358 -28 q 153 128 201 47 q 104 336 104 208 l 104 626 q 149 838 104 756 q 272 960 193 921 q 453 1000 350 1000 m 174 328 q 197 198 174 253 q 257 107 221 143 q 333 58 288 78 q 450 38 378 38 q 593 72 531 38 q 692 174 656 107 q 729 335 729 240 l 729 638 q 718 735 729 692 q 688 811 707 778 q 643 868 668 844 q 563 916 613 897 q 453 935 514 935 q 292 897 354 935 q 202 792 231 858 q 174 638 174 725 l 174 328 m 578 1310 q 603 1310 594 1310 q 620 1310 613 1310 q 642 1310 628 1310 q 654 1303 650 1310 q 651 1289 658 1296 q 608 1235 626 1258 q 574 1192 590 1213 q 539 1148 558 1172 q 490 1088 519 1124 q 481 1080 488 1083 q 467 1076 475 1076 q 449 1076 457 1076 q 434 1076 442 1076 q 418 1076 426 1076 q 472 1155 447 1118 q 523 1229 497 1192 q 578 1310 549 1267 z "},"Ô":{"ha":903,"x_min":104,"x_max":799,"o":"m 453 1000 q 629 960 551 1000 q 753 838 707 921 q 799 626 799 756 l 799 335 q 750 127 799 207 q 622 10 701 47 q 450 -28 542 -28 q 280 10 358 -28 q 153 128 201 47 q 104 336 104 208 l 104 626 q 149 838 104 756 q 272 960 193 921 q 453 1000 350 1000 m 174 328 q 197 198 174 253 q 257 107 221 143 q 333 58 288 78 q 450 38 378 38 q 593 72 531 38 q 692 174 656 107 q 729 335 729 240 l 729 638 q 718 735 729 692 q 688 811 707 778 q 643 868 668 844 q 563 916 613 897 q 453 935 514 935 q 292 897 354 935 q 202 792 231 858 q 174 638 174 725 l 174 328 m 415 1311 q 432 1311 424 1311 q 449 1311 440 1311 q 465 1311 457 1311 q 485 1306 476 1311 q 515 1282 493 1301 q 553 1248 526 1272 q 615 1194 581 1224 q 685 1133 650 1164 q 750 1078 721 1103 q 719 1078 733 1079 q 688 1078 704 1078 q 665 1080 672 1078 q 647 1092 658 1082 q 563 1159 624 1111 q 418 1274 503 1207 l 493 1247 q 449 1247 471 1247 q 404 1247 426 1247 l 479 1274 q 336 1160 394 1207 q 233 1078 278 1114 l 179 1078 q 169 1079 172 1078 q 164 1083 165 1081 q 163 1088 163 1085 q 169 1099 163 1093 q 197 1125 175 1106 q 245 1165 215 1140 q 308 1219 275 1190 q 370 1272 342 1247 q 415 1311 399 1297 z "},"Õ":{"ha":903,"x_min":104,"x_max":799,"o":"m 453 1000 q 629 960 551 1000 q 753 838 707 921 q 799 626 799 756 l 799 335 q 750 127 799 207 q 622 10 701 47 q 450 -28 542 -28 q 280 10 358 -28 q 153 128 201 47 q 104 336 104 208 l 104 626 q 149 838 104 756 q 272 960 193 921 q 453 1000 350 1000 m 174 328 q 197 198 174 253 q 257 107 221 143 q 333 58 288 78 q 450 38 378 38 q 593 72 531 38 q 692 174 656 107 q 729 335 729 240 l 729 638 q 718 735 729 692 q 688 811 707 778 q 643 868 668 844 q 563 916 613 897 q 453 935 514 935 q 292 897 354 935 q 202 792 231 858 q 174 638 174 725 l 174 328 m 569 1178 q 629 1194 606 1178 q 682 1242 653 1210 l 697 1242 q 697 1215 697 1229 q 697 1186 697 1201 q 696 1177 697 1182 q 688 1165 694 1172 q 639 1128 665 1143 q 571 1114 613 1114 q 506 1128 536 1114 q 447 1159 475 1142 q 390 1190 418 1176 q 333 1204 363 1204 q 274 1188 297 1204 q 221 1140 250 1172 l 206 1140 q 206 1167 206 1153 q 206 1196 206 1182 q 207 1204 206 1199 q 215 1217 208 1210 q 264 1253 238 1239 q 332 1268 290 1268 q 398 1254 367 1268 q 458 1223 429 1240 q 513 1192 486 1206 q 569 1178 540 1178 z "},"Ö":{"ha":903,"x_min":104,"x_max":799,"o":"m 453 1000 q 629 960 551 1000 q 753 838 707 921 q 799 626 799 756 l 799 335 q 750 127 799 207 q 622 10 701 47 q 450 -28 542 -28 q 280 10 358 -28 q 153 128 201 47 q 104 336 104 208 l 104 626 q 149 838 104 756 q 272 960 193 921 q 453 1000 350 1000 m 174 328 q 197 198 174 253 q 257 107 221 143 q 333 58 288 78 q 450 38 378 38 q 593 72 531 38 q 692 174 656 107 q 729 335 729 240 l 729 638 q 718 735 729 692 q 688 811 707 778 q 643 868 668 844 q 563 916 613 897 q 453 935 514 935 q 292 897 354 935 q 202 792 231 858 q 174 638 174 725 l 174 328 m 257 1233 q 305 1233 281 1233 q 353 1233 329 1233 q 361 1231 358 1233 q 366 1226 364 1229 q 368 1218 368 1224 l 368 1122 q 320 1122 344 1122 q 272 1122 296 1122 q 265 1124 268 1122 q 259 1130 261 1126 q 257 1138 257 1133 l 257 1233 m 535 1233 q 583 1233 558 1233 q 631 1233 607 1233 q 639 1231 636 1233 q 644 1226 642 1229 q 646 1218 646 1224 l 646 1122 q 598 1122 622 1122 q 550 1122 574 1122 q 542 1124 546 1122 q 537 1130 539 1126 q 535 1138 535 1133 l 535 1233 z "},"Ō":{"ha":903,"x_min":104,"x_max":799,"o":"m 453 1000 q 629 960 551 1000 q 753 838 707 921 q 799 626 799 756 l 799 335 q 750 127 799 207 q 622 10 701 47 q 450 -28 542 -28 q 280 10 358 -28 q 153 128 201 47 q 104 336 104 208 l 104 626 q 149 838 104 756 q 272 960 193 921 q 453 1000 350 1000 m 174 328 q 197 198 174 253 q 257 107 221 143 q 333 58 288 78 q 450 38 378 38 q 593 72 531 38 q 692 174 656 107 q 729 335 729 240 l 729 638 q 718 735 729 692 q 688 811 707 778 q 643 868 668 844 q 563 916 613 897 q 453 935 514 935 q 292 897 354 935 q 202 792 231 858 q 174 638 174 725 l 174 328 m 210 1197 l 678 1197 q 689 1193 685 1197 q 693 1182 693 1189 q 693 1155 693 1168 q 693 1128 693 1142 l 225 1128 q 217 1130 221 1128 q 212 1135 214 1132 q 210 1143 210 1139 q 210 1170 210 1157 q 210 1197 210 1183 z "},"Ŏ":{"ha":903,"x_min":104,"x_max":799,"o":"m 453 1000 q 629 960 551 1000 q 753 838 707 921 q 799 626 799 756 l 799 335 q 750 127 799 207 q 622 10 701 47 q 450 -28 542 -28 q 280 10 358 -28 q 153 128 201 47 q 104 336 104 208 l 104 626 q 149 838 104 756 q 272 960 193 921 q 453 1000 350 1000 m 174 328 q 197 198 174 253 q 257 107 221 143 q 333 58 288 78 q 450 38 378 38 q 593 72 531 38 q 692 174 656 107 q 729 335 729 240 l 729 638 q 718 735 729 692 q 688 811 707 778 q 643 868 668 844 q 563 916 613 897 q 453 935 514 935 q 292 897 354 935 q 202 792 231 858 q 174 638 174 725 l 174 328 m 631 1299 q 652 1299 642 1299 q 674 1299 663 1299 q 691 1290 688 1299 q 689 1267 694 1282 q 640 1188 674 1221 q 562 1136 607 1154 q 461 1118 517 1118 l 442 1118 q 342 1136 388 1118 q 263 1188 296 1154 q 214 1267 231 1221 q 212 1290 208 1282 q 229 1299 215 1299 q 251 1299 240 1299 q 272 1299 261 1299 q 343 1208 300 1235 q 451 1182 386 1182 q 560 1208 517 1182 q 631 1299 603 1235 z "},"Ő":{"ha":903,"x_min":104,"x_max":853,"o":"m 453 1310 q 478 1310 469 1310 q 496 1310 488 1310 q 517 1310 504 1310 q 529 1303 525 1310 q 526 1289 533 1296 q 483 1235 501 1258 q 449 1192 465 1213 q 414 1148 433 1172 q 365 1088 394 1124 q 356 1080 363 1083 q 342 1076 350 1076 q 324 1076 332 1076 q 309 1076 317 1076 q 293 1076 301 1076 q 347 1155 322 1118 q 398 1229 372 1192 q 453 1310 424 1267 m 772 1310 q 798 1310 789 1310 q 815 1310 807 1310 q 836 1310 824 1310 q 849 1303 844 1310 q 846 1289 853 1296 q 803 1235 821 1258 q 769 1192 785 1213 q 733 1148 753 1172 q 685 1088 714 1124 q 676 1080 682 1083 q 661 1076 669 1076 q 644 1076 651 1076 q 628 1076 636 1076 q 613 1076 621 1076 q 667 1155 642 1118 q 717 1229 692 1192 q 772 1310 743 1267 m 453 1000 q 629 960 551 1000 q 753 838 707 921 q 799 626 799 756 l 799 335 q 750 127 799 207 q 622 10 701 47 q 450 -28 542 -28 q 280 10 358 -28 q 153 128 201 47 q 104 336 104 208 l 104 626 q 149 838 104 756 q 272 960 193 921 q 453 1000 350 1000 m 174 328 q 197 198 174 253 q 257 107 221 143 q 333 58 288 78 q 450 38 378 38 q 593 72 531 38 q 692 174 656 107 q 729 335 729 240 l 729 638 q 718 735 729 692 q 688 811 707 778 q 643 868 668 844 q 563 916 613 897 q 453 935 514 935 q 292 897 354 935 q 202 792 231 858 q 174 638 174 725 l 174 328 z "},"Ơ":{"ha":903,"x_min":104,"x_max":799,"o":"m 453 1000 q 629 960 551 1000 q 753 838 707 921 q 799 626 799 756 l 799 335 q 750 127 799 207 q 622 10 701 47 q 450 -28 542 -28 q 280 10 358 -28 q 153 128 201 47 q 104 336 104 208 l 104 626 q 149 838 104 756 q 272 960 193 921 q 453 1000 350 1000 m 174 328 q 197 198 174 253 q 257 107 221 143 q 333 58 288 78 q 450 38 378 38 q 593 72 531 38 q 692 174 656 107 q 729 335 729 240 l 729 638 q 718 735 729 692 q 688 811 707 778 q 643 868 668 844 q 563 916 613 897 q 453 935 514 935 q 292 897 354 935 q 202 792 231 858 q 174 638 174 725 l 174 328 m 692 1142 q 720 1142 708 1142 q 742 1142 732 1142 q 759 1136 754 1142 q 764 1119 764 1131 q 764 1091 764 1111 q 764 1040 764 1071 q 761 997 764 1014 q 751 966 758 979 q 725 938 743 953 q 685 901 707 921 q 640 863 664 882 q 640 881 640 872 q 640 899 640 890 q 640 919 640 908 q 640 943 640 931 q 655 958 647 950 q 674 979 663 965 q 688 1001 685 990 q 692 1035 692 1011 q 692 1085 692 1057 q 692 1142 692 1113 z "},"Ǫ":{"ha":903,"x_min":104,"x_max":799,"o":"m 453 1000 q 629 960 551 1000 q 753 838 707 921 q 799 626 799 756 l 799 335 q 750 127 799 207 q 622 10 701 47 q 450 -28 542 -28 q 280 10 358 -28 q 153 128 201 47 q 104 336 104 208 l 104 626 q 149 838 104 756 q 272 960 193 921 q 453 1000 350 1000 m 174 328 q 197 198 174 253 q 257 107 221 143 q 333 58 288 78 q 450 38 378 38 q 593 72 531 38 q 692 174 656 107 q 729 335 729 240 l 729 638 q 718 735 729 692 q 688 811 707 778 q 643 868 668 844 q 563 916 613 897 q 453 935 514 935 q 292 897 354 935 q 202 792 231 858 q 174 638 174 725 l 174 328 m 644 65 q 688 86 665 78 q 726 94 711 94 q 710 72 721 85 q 682 44 699 58 q 610 -33 636 6 q 574 -109 585 -71 q 564 -185 564 -147 q 590 -259 564 -236 q 657 -282 615 -282 q 711 -274 689 -282 q 756 -250 733 -267 l 772 -250 q 772 -266 772 -257 q 772 -283 772 -275 q 772 -301 772 -292 q 742 -331 772 -315 q 660 -347 711 -347 q 538 -308 583 -347 q 493 -186 493 -269 q 503 -116 493 -151 q 534 -47 514 -81 q 582 15 554 -14 q 644 65 610 44 z "},"Ȍ":{"ha":903,"x_min":104,"x_max":799,"o":"m 236 1310 q 290 1229 265 1267 q 340 1155 315 1192 q 392 1076 365 1118 q 374 1076 383 1076 q 356 1076 365 1076 q 336 1076 346 1076 q 322 1080 328 1076 q 313 1088 315 1083 q 264 1148 283 1124 q 228 1192 244 1172 q 194 1235 213 1213 q 151 1289 176 1258 q 149 1303 146 1296 q 161 1310 153 1310 q 185 1310 175 1310 q 208 1310 196 1310 q 236 1310 221 1310 m 472 1310 q 526 1229 501 1267 q 576 1155 551 1192 q 628 1076 601 1118 q 610 1076 619 1076 q 592 1076 601 1076 q 572 1076 582 1076 q 558 1080 564 1076 q 549 1088 551 1083 q 500 1148 519 1124 q 465 1192 481 1172 q 431 1235 449 1213 q 388 1289 413 1258 q 385 1303 382 1296 q 397 1310 389 1310 q 422 1310 411 1310 q 444 1310 432 1310 q 472 1310 457 1310 m 453 1000 q 629 960 551 1000 q 753 838 707 921 q 799 626 799 756 l 799 335 q 750 127 799 207 q 622 10 701 47 q 450 -28 542 -28 q 280 10 358 -28 q 153 128 201 47 q 104 336 104 208 l 104 626 q 149 838 104 756 q 272 960 193 921 q 453 1000 350 1000 m 174 328 q 197 198 174 253 q 257 107 221 143 q 333 58 288 78 q 450 38 378 38 q 593 72 531 38 q 692 174 656 107 q 729 335 729 240 l 729 638 q 718 735 729 692 q 688 811 707 778 q 643 868 668 844 q 563 916 613 897 q 453 935 514 935 q 292 897 354 935 q 202 792 231 858 q 174 638 174 725 l 174 328 z "},"Ȏ":{"ha":903,"x_min":104,"x_max":799,"o":"m 272 1104 q 251 1104 261 1104 q 229 1104 240 1104 q 212 1113 215 1104 q 214 1136 208 1121 q 263 1216 231 1183 q 342 1267 296 1249 q 442 1285 388 1285 l 461 1285 q 562 1267 517 1285 q 640 1216 607 1249 q 689 1136 674 1183 q 691 1113 694 1121 q 674 1104 688 1104 q 652 1104 663 1104 q 631 1104 642 1104 q 560 1194 603 1168 q 451 1221 517 1221 q 343 1194 386 1221 q 272 1104 300 1168 m 453 1000 q 629 960 551 1000 q 753 838 707 921 q 799 626 799 756 l 799 335 q 750 127 799 207 q 622 10 701 47 q 450 -28 542 -28 q 280 10 358 -28 q 153 128 201 47 q 104 336 104 208 l 104 626 q 149 838 104 756 q 272 960 193 921 q 453 1000 350 1000 m 174 328 q 197 198 174 253 q 257 107 221 143 q 333 58 288 78 q 450 38 378 38 q 593 72 531 38 q 692 174 656 107 q 729 335 729 240 l 729 638 q 718 735 729 692 q 688 811 707 778 q 643 868 668 844 q 563 916 613 897 q 453 935 514 935 q 292 897 354 935 q 202 792 231 858 q 174 638 174 725 l 174 328 z "},"Ȫ":{"ha":903,"x_min":104,"x_max":799,"o":"m 453 1000 q 629 960 551 1000 q 753 838 707 921 q 799 626 799 756 l 799 335 q 750 127 799 207 q 622 10 701 47 q 450 -28 542 -28 q 280 10 358 -28 q 153 128 201 47 q 104 336 104 208 l 104 626 q 149 838 104 756 q 272 960 193 921 q 453 1000 350 1000 m 174 328 q 197 198 174 253 q 257 107 221 143 q 333 58 288 78 q 450 38 378 38 q 593 72 531 38 q 692 174 656 107 q 729 335 729 240 l 729 638 q 718 735 729 692 q 688 811 707 778 q 643 868 668 844 q 563 916 613 897 q 453 935 514 935 q 292 897 354 935 q 202 792 231 858 q 174 638 174 725 l 174 328 m 257 1233 q 305 1233 281 1233 q 353 1233 329 1233 q 361 1231 358 1233 q 366 1226 364 1229 q 368 1218 368 1224 l 368 1122 q 320 1122 344 1122 q 272 1122 296 1122 q 265 1124 268 1122 q 259 1130 261 1126 q 257 1138 257 1133 l 257 1233 m 535 1233 q 583 1233 558 1233 q 631 1233 607 1233 q 639 1231 636 1233 q 644 1226 642 1229 q 646 1218 646 1224 l 646 1122 q 598 1122 622 1122 q 550 1122 574 1122 q 542 1124 546 1122 q 537 1130 539 1126 q 535 1138 535 1133 l 535 1233 m 210 1388 l 678 1388 q 689 1383 685 1388 q 693 1372 693 1379 q 693 1345 693 1358 q 693 1318 693 1332 l 225 1318 q 217 1320 221 1318 q 212 1326 214 1322 q 210 1333 210 1329 q 210 1360 210 1347 q 210 1388 210 1374 z "},"Ȭ":{"ha":903,"x_min":104,"x_max":799,"o":"m 453 1000 q 629 960 551 1000 q 753 838 707 921 q 799 626 799 756 l 799 335 q 750 127 799 207 q 622 10 701 47 q 450 -28 542 -28 q 280 10 358 -28 q 153 128 201 47 q 104 336 104 208 l 104 626 q 149 838 104 756 q 272 960 193 921 q 453 1000 350 1000 m 174 328 q 197 198 174 253 q 257 107 221 143 q 333 58 288 78 q 450 38 378 38 q 593 72 531 38 q 692 174 656 107 q 729 335 729 240 l 729 638 q 718 735 729 692 q 688 811 707 778 q 643 868 668 844 q 563 916 613 897 q 453 935 514 935 q 292 897 354 935 q 202 792 231 858 q 174 638 174 725 l 174 328 m 569 1178 q 629 1194 606 1178 q 682 1242 653 1210 l 697 1242 q 697 1215 697 1229 q 697 1186 697 1201 q 696 1177 697 1182 q 688 1165 694 1172 q 639 1128 665 1143 q 571 1114 613 1114 q 506 1128 536 1114 q 447 1159 475 1142 q 390 1190 418 1176 q 333 1204 363 1204 q 274 1188 297 1204 q 221 1140 250 1172 l 206 1140 q 206 1167 206 1153 q 206 1196 206 1182 q 207 1204 206 1199 q 215 1217 208 1210 q 264 1253 238 1239 q 332 1268 290 1268 q 398 1254 367 1268 q 458 1223 429 1240 q 513 1192 486 1206 q 569 1178 540 1178 m 210 1411 l 678 1411 q 689 1407 685 1411 q 693 1396 693 1403 q 693 1369 693 1382 q 693 1342 693 1356 l 225 1342 q 217 1344 221 1342 q 212 1349 214 1346 q 210 1357 210 1353 q 210 1384 210 1371 q 210 1411 210 1397 z "},"Ȱ":{"ha":903,"x_min":104,"x_max":799,"o":"m 396 1233 q 420 1233 408 1233 q 444 1233 432 1233 q 467 1233 456 1233 q 492 1233 479 1233 q 503 1229 499 1233 q 507 1218 507 1225 l 507 1122 q 483 1122 494 1122 q 459 1122 471 1122 q 435 1122 447 1122 q 411 1122 424 1122 q 400 1126 404 1122 q 396 1138 396 1131 l 396 1233 m 453 1000 q 629 960 551 1000 q 753 838 707 921 q 799 626 799 756 l 799 335 q 750 127 799 207 q 622 10 701 47 q 450 -28 542 -28 q 280 10 358 -28 q 153 128 201 47 q 104 336 104 208 l 104 626 q 149 838 104 756 q 272 960 193 921 q 453 1000 350 1000 m 174 328 q 197 198 174 253 q 257 107 221 143 q 333 58 288 78 q 450 38 378 38 q 593 72 531 38 q 692 174 656 107 q 729 335 729 240 l 729 638 q 718 735 729 692 q 688 811 707 778 q 643 868 668 844 q 563 916 613 897 q 453 935 514 935 q 292 897 354 935 q 202 792 231 858 q 174 638 174 725 l 174 328 m 210 1375 l 678 1375 q 689 1371 685 1375 q 693 1360 693 1367 q 693 1333 693 1346 q 693 1306 693 1319 l 225 1306 q 217 1308 221 1306 q 212 1313 214 1310 q 210 1321 210 1317 q 210 1348 210 1335 q 210 1375 210 1361 z "},"Ṍ":{"ha":903,"x_min":104,"x_max":799,"o":"m 453 1000 q 629 960 551 1000 q 753 838 707 921 q 799 626 799 756 l 799 335 q 750 127 799 207 q 622 10 701 47 q 450 -28 542 -28 q 280 10 358 -28 q 153 128 201 47 q 104 336 104 208 l 104 626 q 149 838 104 756 q 272 960 193 921 q 453 1000 350 1000 m 174 328 q 197 198 174 253 q 257 107 221 143 q 333 58 288 78 q 450 38 378 38 q 593 72 531 38 q 692 174 656 107 q 729 335 729 240 l 729 638 q 718 735 729 692 q 688 811 707 778 q 643 868 668 844 q 563 916 613 897 q 453 935 514 935 q 292 897 354 935 q 202 792 231 858 q 174 638 174 725 l 174 328 m 569 1178 q 629 1194 606 1178 q 682 1242 653 1210 l 697 1242 q 697 1215 697 1229 q 697 1186 697 1201 q 696 1177 697 1182 q 688 1165 694 1172 q 639 1128 665 1143 q 571 1114 613 1114 q 506 1128 536 1114 q 447 1159 475 1142 q 390 1190 418 1176 q 333 1204 363 1204 q 274 1188 297 1204 q 221 1140 250 1172 l 206 1140 q 206 1167 206 1153 q 206 1196 206 1182 q 207 1204 206 1199 q 215 1217 208 1210 q 264 1253 238 1239 q 332 1268 290 1268 q 398 1254 367 1268 q 458 1223 429 1240 q 513 1192 486 1206 q 569 1178 540 1178 m 578 1524 q 603 1524 594 1524 q 620 1524 613 1524 q 642 1524 628 1524 q 654 1517 650 1524 q 651 1503 658 1510 q 608 1449 626 1472 q 574 1406 590 1426 q 539 1362 558 1386 q 490 1301 519 1338 q 481 1294 488 1297 q 467 1290 475 1290 q 449 1290 457 1290 q 434 1290 442 1290 q 418 1290 426 1290 q 472 1369 447 1332 q 523 1443 497 1406 q 578 1524 549 1481 z "},"Ṏ":{"ha":903,"x_min":104,"x_max":799,"o":"m 453 1000 q 629 960 551 1000 q 753 838 707 921 q 799 626 799 756 l 799 335 q 750 127 799 207 q 622 10 701 47 q 450 -28 542 -28 q 280 10 358 -28 q 153 128 201 47 q 104 336 104 208 l 104 626 q 149 838 104 756 q 272 960 193 921 q 453 1000 350 1000 m 174 328 q 197 198 174 253 q 257 107 221 143 q 333 58 288 78 q 450 38 378 38 q 593 72 531 38 q 692 174 656 107 q 729 335 729 240 l 729 638 q 718 735 729 692 q 688 811 707 778 q 643 868 668 844 q 563 916 613 897 q 453 935 514 935 q 292 897 354 935 q 202 792 231 858 q 174 638 174 725 l 174 328 m 569 1178 q 629 1194 606 1178 q 682 1242 653 1210 l 697 1242 q 697 1215 697 1229 q 697 1186 697 1201 q 696 1177 697 1182 q 688 1165 694 1172 q 639 1128 665 1143 q 571 1114 613 1114 q 506 1128 536 1114 q 447 1159 475 1142 q 390 1190 418 1176 q 333 1204 363 1204 q 274 1188 297 1204 q 221 1140 250 1172 l 206 1140 q 206 1167 206 1153 q 206 1196 206 1182 q 207 1204 206 1199 q 215 1217 208 1210 q 264 1253 238 1239 q 332 1268 290 1268 q 398 1254 367 1268 q 458 1223 429 1240 q 513 1192 486 1206 q 569 1178 540 1178 m 257 1447 q 305 1447 281 1447 q 353 1447 329 1447 q 361 1445 358 1447 q 366 1440 364 1443 q 368 1432 368 1438 l 368 1336 q 320 1336 344 1336 q 272 1336 296 1336 q 265 1338 268 1336 q 259 1344 261 1340 q 257 1351 257 1347 l 257 1447 m 535 1447 q 583 1447 558 1447 q 631 1447 607 1447 q 639 1445 636 1447 q 644 1440 642 1443 q 646 1432 646 1438 l 646 1336 q 598 1336 622 1336 q 550 1336 574 1336 q 542 1338 546 1336 q 537 1344 539 1340 q 535 1351 535 1347 l 535 1447 z "},"Ṑ":{"ha":903,"x_min":104,"x_max":799,"o":"m 453 1000 q 629 960 551 1000 q 753 838 707 921 q 799 626 799 756 l 799 335 q 750 127 799 207 q 622 10 701 47 q 450 -28 542 -28 q 280 10 358 -28 q 153 128 201 47 q 104 336 104 208 l 104 626 q 149 838 104 756 q 272 960 193 921 q 453 1000 350 1000 m 174 328 q 197 198 174 253 q 257 107 221 143 q 333 58 288 78 q 450 38 378 38 q 593 72 531 38 q 692 174 656 107 q 729 335 729 240 l 729 638 q 718 735 729 692 q 688 811 707 778 q 643 868 668 844 q 563 916 613 897 q 453 935 514 935 q 292 897 354 935 q 202 792 231 858 q 174 638 174 725 l 174 328 m 210 1197 l 678 1197 q 689 1193 685 1197 q 693 1182 693 1189 q 693 1155 693 1168 q 693 1128 693 1142 l 225 1128 q 217 1130 221 1128 q 212 1135 214 1132 q 210 1143 210 1139 q 210 1170 210 1157 q 210 1197 210 1183 m 333 1485 q 388 1404 363 1442 q 438 1330 413 1367 q 489 1251 463 1293 q 472 1251 481 1251 q 453 1251 463 1251 q 433 1251 443 1251 q 419 1255 425 1251 q 410 1263 413 1258 q 361 1323 381 1299 q 326 1367 342 1347 q 292 1410 310 1388 q 249 1464 274 1433 q 247 1478 243 1471 q 258 1485 250 1485 q 283 1485 272 1485 q 306 1485 293 1485 q 333 1485 318 1485 z "},"Ṓ":{"ha":903,"x_min":104,"x_max":799,"o":"m 453 1000 q 629 960 551 1000 q 753 838 707 921 q 799 626 799 756 l 799 335 q 750 127 799 207 q 622 10 701 47 q 450 -28 542 -28 q 280 10 358 -28 q 153 128 201 47 q 104 336 104 208 l 104 626 q 149 838 104 756 q 272 960 193 921 q 453 1000 350 1000 m 174 328 q 197 198 174 253 q 257 107 221 143 q 333 58 288 78 q 450 38 378 38 q 593 72 531 38 q 692 174 656 107 q 729 335 729 240 l 729 638 q 718 735 729 692 q 688 811 707 778 q 643 868 668 844 q 563 916 613 897 q 453 935 514 935 q 292 897 354 935 q 202 792 231 858 q 174 638 174 725 l 174 328 m 210 1197 l 678 1197 q 689 1193 685 1197 q 693 1182 693 1189 q 693 1155 693 1168 q 693 1128 693 1142 l 225 1128 q 217 1130 221 1128 q 212 1135 214 1132 q 210 1143 210 1139 q 210 1170 210 1157 q 210 1197 210 1183 m 578 1483 q 603 1483 594 1483 q 620 1483 613 1483 q 642 1483 628 1483 q 654 1476 650 1483 q 651 1463 658 1469 q 608 1409 626 1432 q 574 1366 590 1386 q 539 1322 558 1346 q 490 1261 519 1297 q 481 1253 488 1257 q 467 1250 475 1250 q 449 1250 457 1250 q 434 1250 442 1250 q 418 1250 426 1250 q 472 1328 447 1292 q 523 1403 497 1365 q 578 1483 549 1440 z "},"Ọ":{"ha":903,"x_min":104,"x_max":799,"o":"m 453 1000 q 629 960 551 1000 q 753 838 707 921 q 799 626 799 756 l 799 335 q 750 127 799 207 q 622 10 701 47 q 450 -28 542 -28 q 280 10 358 -28 q 153 128 201 47 q 104 336 104 208 l 104 626 q 149 838 104 756 q 272 960 193 921 q 453 1000 350 1000 m 174 328 q 197 198 174 253 q 257 107 221 143 q 333 58 288 78 q 450 38 378 38 q 593 72 531 38 q 692 174 656 107 q 729 335 729 240 l 729 638 q 718 735 729 692 q 688 811 707 778 q 643 868 668 844 q 563 916 613 897 q 453 935 514 935 q 292 897 354 935 q 202 792 231 858 q 174 638 174 725 l 174 328 m 396 -142 q 420 -142 408 -142 q 444 -142 432 -142 q 467 -142 456 -142 q 492 -142 479 -142 q 503 -146 499 -142 q 507 -157 507 -150 l 507 -253 q 483 -253 494 -253 q 459 -253 471 -253 q 435 -253 447 -253 q 411 -253 424 -253 q 400 -249 404 -253 q 396 -237 396 -244 l 396 -142 z "},"Ỏ":{"ha":903,"x_min":104,"x_max":799,"o":"m 453 1000 q 629 960 551 1000 q 753 838 707 921 q 799 626 799 756 l 799 335 q 750 127 799 207 q 622 10 701 47 q 450 -28 542 -28 q 280 10 358 -28 q 153 128 201 47 q 104 336 104 208 l 104 626 q 149 838 104 756 q 272 960 193 921 q 453 1000 350 1000 m 174 328 q 197 198 174 253 q 257 107 221 143 q 333 58 288 78 q 450 38 378 38 q 593 72 531 38 q 692 174 656 107 q 729 335 729 240 l 729 638 q 718 735 729 692 q 688 811 707 778 q 643 868 668 844 q 563 916 613 897 q 453 935 514 935 q 292 897 354 935 q 202 792 231 858 q 174 638 174 725 l 174 328 m 419 1079 q 443 1115 431 1097 q 467 1150 456 1132 q 483 1176 475 1163 q 500 1204 492 1190 q 500 1211 500 1207 q 500 1221 500 1215 q 476 1221 490 1221 q 449 1221 461 1221 q 407 1221 436 1221 q 360 1221 378 1221 l 329 1221 q 329 1242 329 1236 q 329 1264 329 1249 q 333 1275 329 1271 q 344 1279 338 1279 q 392 1279 364 1279 q 451 1279 419 1279 q 515 1279 483 1279 q 575 1279 547 1279 q 584 1278 581 1279 q 590 1273 588 1276 q 592 1264 592 1269 l 592 1226 q 576 1201 592 1225 q 540 1146 561 1178 q 509 1101 525 1124 q 481 1061 493 1079 q 462 1061 471 1061 q 444 1061 453 1061 q 424 1061 435 1061 q 414 1067 414 1061 q 419 1079 414 1072 z "},"Ố":{"ha":903,"x_min":104,"x_max":832,"o":"m 453 1000 q 629 960 551 1000 q 753 838 707 921 q 799 626 799 756 l 799 335 q 750 127 799 207 q 622 10 701 47 q 450 -28 542 -28 q 280 10 358 -28 q 153 128 201 47 q 104 336 104 208 l 104 626 q 149 838 104 756 q 272 960 193 921 q 453 1000 350 1000 m 174 328 q 197 198 174 253 q 257 107 221 143 q 333 58 288 78 q 450 38 378 38 q 593 72 531 38 q 692 174 656 107 q 729 335 729 240 l 729 638 q 718 735 729 692 q 688 811 707 778 q 643 868 668 844 q 563 916 613 897 q 453 935 514 935 q 292 897 354 935 q 202 792 231 858 q 174 638 174 725 l 174 328 m 415 1311 q 432 1311 424 1311 q 449 1311 440 1311 q 465 1311 457 1311 q 485 1306 476 1311 q 515 1282 493 1301 q 553 1248 526 1272 q 615 1194 581 1224 q 685 1133 650 1164 q 750 1078 721 1103 q 719 1078 733 1079 q 688 1078 704 1078 q 665 1080 672 1078 q 647 1092 658 1082 q 563 1159 624 1111 q 418 1274 503 1207 l 493 1247 q 449 1247 471 1247 q 404 1247 426 1247 l 479 1274 q 336 1160 394 1207 q 233 1078 278 1114 l 179 1078 q 169 1079 172 1078 q 164 1083 165 1081 q 163 1088 163 1085 q 169 1099 163 1093 q 197 1125 175 1106 q 245 1165 215 1140 q 308 1219 275 1190 q 370 1272 342 1247 q 415 1311 399 1297 m 753 1468 q 778 1468 769 1468 q 796 1468 788 1468 q 817 1468 804 1468 q 828 1462 825 1468 q 826 1447 832 1456 q 789 1384 804 1410 q 759 1333 774 1358 q 724 1274 744 1308 q 715 1265 719 1268 q 700 1263 711 1263 q 683 1263 690 1263 q 667 1263 675 1263 q 651 1263 660 1263 q 687 1334 672 1304 q 717 1394 701 1364 q 753 1468 732 1425 z "},"Ồ":{"ha":903,"x_min":104,"x_max":799,"o":"m 453 1000 q 629 960 551 1000 q 753 838 707 921 q 799 626 799 756 l 799 335 q 750 127 799 207 q 622 10 701 47 q 450 -28 542 -28 q 280 10 358 -28 q 153 128 201 47 q 104 336 104 208 l 104 626 q 149 838 104 756 q 272 960 193 921 q 453 1000 350 1000 m 174 328 q 197 198 174 253 q 257 107 221 143 q 333 58 288 78 q 450 38 378 38 q 593 72 531 38 q 692 174 656 107 q 729 335 729 240 l 729 638 q 718 735 729 692 q 688 811 707 778 q 643 868 668 844 q 563 916 613 897 q 453 935 514 935 q 292 897 354 935 q 202 792 231 858 q 174 638 174 725 l 174 328 m 415 1311 q 432 1311 424 1311 q 449 1311 440 1311 q 465 1311 457 1311 q 485 1306 476 1311 q 515 1282 493 1301 q 553 1248 526 1272 q 615 1194 581 1224 q 685 1133 650 1164 q 750 1078 721 1103 q 719 1078 733 1079 q 688 1078 704 1078 q 665 1080 672 1078 q 647 1092 658 1082 q 563 1159 624 1111 q 418 1274 503 1207 l 493 1247 q 449 1247 471 1247 q 404 1247 426 1247 l 479 1274 q 336 1160 394 1207 q 233 1078 278 1114 l 179 1078 q 169 1079 172 1078 q 164 1083 165 1081 q 163 1088 163 1085 q 169 1099 163 1093 q 197 1125 175 1106 q 245 1165 215 1140 q 308 1219 275 1190 q 370 1272 342 1247 q 415 1311 399 1297 m 617 1468 q 653 1394 639 1425 q 683 1334 668 1364 q 718 1263 699 1304 q 702 1263 710 1263 q 687 1263 694 1263 q 669 1263 679 1263 q 655 1265 660 1263 q 646 1274 650 1268 q 611 1333 626 1308 q 581 1384 596 1358 q 543 1447 565 1410 q 541 1462 538 1456 q 553 1468 544 1468 q 574 1468 567 1468 q 592 1468 582 1468 q 617 1468 601 1468 z "},"Ổ":{"ha":903,"x_min":104,"x_max":825,"o":"m 453 1000 q 629 960 551 1000 q 753 838 707 921 q 799 626 799 756 l 799 335 q 750 127 799 207 q 622 10 701 47 q 450 -28 542 -28 q 280 10 358 -28 q 153 128 201 47 q 104 336 104 208 l 104 626 q 149 838 104 756 q 272 960 193 921 q 453 1000 350 1000 m 174 328 q 197 198 174 253 q 257 107 221 143 q 333 58 288 78 q 450 38 378 38 q 593 72 531 38 q 692 174 656 107 q 729 335 729 240 l 729 638 q 718 735 729 692 q 688 811 707 778 q 643 868 668 844 q 563 916 613 897 q 453 935 514 935 q 292 897 354 935 q 202 792 231 858 q 174 638 174 725 l 174 328 m 415 1311 q 432 1311 424 1311 q 449 1311 440 1311 q 465 1311 457 1311 q 485 1306 476 1311 q 515 1282 493 1301 q 553 1248 526 1272 q 615 1194 581 1224 q 685 1133 650 1164 q 750 1078 721 1103 q 719 1078 733 1079 q 688 1078 704 1078 q 665 1080 672 1078 q 647 1092 658 1082 q 563 1159 624 1111 q 418 1274 503 1207 l 493 1247 q 449 1247 471 1247 q 404 1247 426 1247 l 479 1274 q 336 1160 394 1207 q 233 1078 278 1114 l 179 1078 q 169 1079 172 1078 q 164 1083 165 1081 q 163 1088 163 1085 q 169 1099 163 1093 q 197 1125 175 1106 q 245 1165 215 1140 q 308 1219 275 1190 q 370 1272 342 1247 q 415 1311 399 1297 m 653 1253 q 676 1288 664 1271 q 700 1324 689 1306 q 717 1350 708 1336 q 733 1378 725 1364 q 733 1385 733 1381 q 733 1394 733 1389 q 709 1394 724 1394 q 682 1394 694 1394 q 640 1394 669 1394 q 593 1394 611 1394 l 563 1394 q 563 1416 563 1410 q 563 1438 563 1422 q 567 1449 563 1444 q 578 1453 571 1453 q 625 1453 597 1453 q 685 1453 653 1453 q 749 1453 717 1453 q 808 1453 781 1453 q 817 1451 814 1453 q 823 1447 821 1450 q 825 1438 825 1443 l 825 1400 q 810 1375 825 1399 q 774 1319 794 1351 q 742 1275 758 1297 q 714 1235 726 1253 q 695 1235 704 1235 q 677 1235 686 1235 q 657 1235 668 1235 q 647 1240 647 1235 q 653 1253 647 1246 z "},"Ỗ":{"ha":903,"x_min":104,"x_max":799,"o":"m 453 1000 q 629 960 551 1000 q 753 838 707 921 q 799 626 799 756 l 799 335 q 750 127 799 207 q 622 10 701 47 q 450 -28 542 -28 q 280 10 358 -28 q 153 128 201 47 q 104 336 104 208 l 104 626 q 149 838 104 756 q 272 960 193 921 q 453 1000 350 1000 m 174 328 q 197 198 174 253 q 257 107 221 143 q 333 58 288 78 q 450 38 378 38 q 593 72 531 38 q 692 174 656 107 q 729 335 729 240 l 729 638 q 718 735 729 692 q 688 811 707 778 q 643 868 668 844 q 563 916 613 897 q 453 935 514 935 q 292 897 354 935 q 202 792 231 858 q 174 638 174 725 l 174 328 m 415 1311 q 432 1311 424 1311 q 449 1311 440 1311 q 465 1311 457 1311 q 485 1306 476 1311 q 515 1282 493 1301 q 553 1248 526 1272 q 615 1194 581 1224 q 685 1133 650 1164 q 750 1078 721 1103 q 719 1078 733 1079 q 688 1078 704 1078 q 665 1080 672 1078 q 647 1092 658 1082 q 563 1159 624 1111 q 418 1274 503 1207 l 493 1247 q 449 1247 471 1247 q 404 1247 426 1247 l 479 1274 q 336 1160 394 1207 q 233 1078 278 1114 l 179 1078 q 169 1079 172 1078 q 164 1083 165 1081 q 163 1088 163 1085 q 169 1099 163 1093 q 197 1125 175 1106 q 245 1165 215 1140 q 308 1219 275 1190 q 370 1272 342 1247 q 415 1311 399 1297 m 551 1407 q 592 1416 575 1407 q 626 1454 608 1425 l 642 1454 q 642 1424 642 1442 q 642 1392 642 1407 q 640 1383 642 1388 q 632 1371 639 1379 q 599 1344 618 1351 q 553 1336 581 1336 q 496 1350 522 1336 q 445 1381 469 1364 q 398 1413 421 1399 q 350 1426 375 1426 q 310 1415 328 1426 q 276 1379 293 1403 l 261 1379 q 261 1410 261 1392 q 261 1442 261 1428 q 263 1450 261 1444 q 271 1463 264 1456 q 308 1489 289 1481 q 354 1497 328 1497 q 408 1483 383 1497 q 457 1452 433 1469 q 503 1421 481 1435 q 551 1407 526 1407 z "},"Ộ":{"ha":903,"x_min":104,"x_max":799,"o":"m 396 -142 q 420 -142 408 -142 q 444 -142 432 -142 q 467 -142 456 -142 q 492 -142 479 -142 q 503 -146 499 -142 q 507 -157 507 -150 l 507 -253 q 483 -253 494 -253 q 459 -253 471 -253 q 435 -253 447 -253 q 411 -253 424 -253 q 400 -249 404 -253 q 396 -237 396 -244 l 396 -142 m 453 1000 q 629 960 551 1000 q 753 838 707 921 q 799 626 799 756 l 799 335 q 750 127 799 207 q 622 10 701 47 q 450 -28 542 -28 q 280 10 358 -28 q 153 128 201 47 q 104 336 104 208 l 104 626 q 149 838 104 756 q 272 960 193 921 q 453 1000 350 1000 m 174 328 q 197 198 174 253 q 257 107 221 143 q 333 58 288 78 q 450 38 378 38 q 593 72 531 38 q 692 174 656 107 q 729 335 729 240 l 729 638 q 718 735 729 692 q 688 811 707 778 q 643 868 668 844 q 563 916 613 897 q 453 935 514 935 q 292 897 354 935 q 202 792 231 858 q 174 638 174 725 l 174 328 m 415 1311 q 432 1311 424 1311 q 449 1311 440 1311 q 465 1311 457 1311 q 485 1306 476 1311 q 515 1282 493 1301 q 553 1248 526 1272 q 615 1194 581 1224 q 685 1133 650 1164 q 750 1078 721 1103 q 719 1078 733 1079 q 688 1078 704 1078 q 665 1080 672 1078 q 647 1092 658 1082 q 563 1159 624 1111 q 418 1274 503 1207 l 493 1247 q 449 1247 471 1247 q 404 1247 426 1247 l 479 1274 q 336 1160 394 1207 q 233 1078 278 1114 l 179 1078 q 169 1079 172 1078 q 164 1083 165 1081 q 163 1088 163 1085 q 169 1099 163 1093 q 197 1125 175 1106 q 245 1165 215 1140 q 308 1219 275 1190 q 370 1272 342 1247 q 415 1311 399 1297 z "},"Ớ":{"ha":903,"x_min":104,"x_max":799,"o":"m 453 1000 q 629 960 551 1000 q 753 838 707 921 q 799 626 799 756 l 799 335 q 750 127 799 207 q 622 10 701 47 q 450 -28 542 -28 q 280 10 358 -28 q 153 128 201 47 q 104 336 104 208 l 104 626 q 149 838 104 756 q 272 960 193 921 q 453 1000 350 1000 m 174 328 q 197 198 174 253 q 257 107 221 143 q 333 58 288 78 q 450 38 378 38 q 593 72 531 38 q 692 174 656 107 q 729 335 729 240 l 729 638 q 718 735 729 692 q 688 811 707 778 q 643 868 668 844 q 563 916 613 897 q 453 935 514 935 q 292 897 354 935 q 202 792 231 858 q 174 638 174 725 l 174 328 m 692 1142 q 720 1142 708 1142 q 742 1142 732 1142 q 759 1136 754 1142 q 764 1119 764 1131 q 764 1091 764 1111 q 764 1040 764 1071 q 761 997 764 1014 q 751 966 758 979 q 725 938 743 953 q 685 901 707 921 q 640 863 664 882 q 640 881 640 872 q 640 899 640 890 q 640 919 640 908 q 640 943 640 931 q 655 958 647 950 q 674 979 663 965 q 688 1001 685 990 q 692 1035 692 1011 q 692 1085 692 1057 q 692 1142 692 1113 m 519 1281 q 545 1281 536 1281 q 563 1281 554 1281 q 583 1281 571 1281 q 595 1274 592 1281 q 593 1260 599 1268 q 556 1197 571 1222 q 526 1146 540 1171 q 490 1086 511 1121 q 482 1078 486 1081 q 467 1075 478 1075 q 449 1075 457 1075 q 434 1075 442 1075 q 418 1075 426 1075 q 453 1147 439 1117 q 483 1207 468 1176 q 519 1281 499 1238 z "},"Ờ":{"ha":903,"x_min":104,"x_max":799,"o":"m 453 1000 q 629 960 551 1000 q 753 838 707 921 q 799 626 799 756 l 799 335 q 750 127 799 207 q 622 10 701 47 q 450 -28 542 -28 q 280 10 358 -28 q 153 128 201 47 q 104 336 104 208 l 104 626 q 149 838 104 756 q 272 960 193 921 q 453 1000 350 1000 m 174 328 q 197 198 174 253 q 257 107 221 143 q 333 58 288 78 q 450 38 378 38 q 593 72 531 38 q 692 174 656 107 q 729 335 729 240 l 729 638 q 718 735 729 692 q 688 811 707 778 q 643 868 668 844 q 563 916 613 897 q 453 935 514 935 q 292 897 354 935 q 202 792 231 858 q 174 638 174 725 l 174 328 m 692 1142 q 720 1142 708 1142 q 742 1142 732 1142 q 759 1136 754 1142 q 764 1119 764 1131 q 764 1091 764 1111 q 764 1040 764 1071 q 761 997 764 1014 q 751 966 758 979 q 725 938 743 953 q 685 901 707 921 q 640 863 664 882 q 640 881 640 872 q 640 899 640 890 q 640 919 640 908 q 640 943 640 931 q 655 958 647 950 q 674 979 663 965 q 688 1001 685 990 q 692 1035 692 1011 q 692 1085 692 1057 q 692 1142 692 1113 m 383 1281 q 420 1207 406 1238 q 450 1147 435 1176 q 485 1075 465 1117 q 469 1075 476 1075 q 453 1075 461 1075 q 436 1075 446 1075 q 422 1078 426 1075 q 413 1086 417 1081 q 378 1146 393 1121 q 347 1197 363 1171 q 310 1260 332 1222 q 308 1274 304 1268 q 319 1281 311 1281 q 341 1281 333 1281 q 358 1281 349 1281 q 383 1281 368 1281 z "},"Ở":{"ha":903,"x_min":104,"x_max":799,"o":"m 453 1000 q 629 960 551 1000 q 753 838 707 921 q 799 626 799 756 l 799 335 q 750 127 799 207 q 622 10 701 47 q 450 -28 542 -28 q 280 10 358 -28 q 153 128 201 47 q 104 336 104 208 l 104 626 q 149 838 104 756 q 272 960 193 921 q 453 1000 350 1000 m 174 328 q 197 198 174 253 q 257 107 221 143 q 333 58 288 78 q 450 38 378 38 q 593 72 531 38 q 692 174 656 107 q 729 335 729 240 l 729 638 q 718 735 729 692 q 688 811 707 778 q 643 868 668 844 q 563 916 613 897 q 453 935 514 935 q 292 897 354 935 q 202 792 231 858 q 174 638 174 725 l 174 328 m 692 1142 q 720 1142 708 1142 q 742 1142 732 1142 q 759 1136 754 1142 q 764 1119 764 1131 q 764 1091 764 1111 q 764 1040 764 1071 q 761 997 764 1014 q 751 966 758 979 q 725 938 743 953 q 685 901 707 921 q 640 863 664 882 q 640 881 640 872 q 640 899 640 890 q 640 919 640 908 q 640 943 640 931 q 655 958 647 950 q 674 979 663 965 q 688 1001 685 990 q 692 1035 692 1011 q 692 1085 692 1057 q 692 1142 692 1113 m 419 1079 q 443 1115 431 1097 q 467 1150 456 1132 q 483 1176 475 1163 q 500 1204 492 1190 q 500 1211 500 1207 q 500 1221 500 1215 q 476 1221 490 1221 q 449 1221 461 1221 q 407 1221 436 1221 q 360 1221 378 1221 l 329 1221 q 329 1242 329 1236 q 329 1264 329 1249 q 333 1275 329 1271 q 344 1279 338 1279 q 392 1279 364 1279 q 451 1279 419 1279 q 515 1279 483 1279 q 575 1279 547 1279 q 584 1278 581 1279 q 590 1273 588 1276 q 592 1264 592 1269 l 592 1226 q 576 1201 592 1225 q 540 1146 561 1178 q 509 1101 525 1124 q 481 1061 493 1079 q 462 1061 471 1061 q 444 1061 453 1061 q 424 1061 435 1061 q 414 1067 414 1061 q 419 1079 414 1072 z "},"Ỡ":{"ha":903,"x_min":104,"x_max":799,"o":"m 453 1000 q 629 960 551 1000 q 753 838 707 921 q 799 626 799 756 l 799 335 q 750 127 799 207 q 622 10 701 47 q 450 -28 542 -28 q 280 10 358 -28 q 153 128 201 47 q 104 336 104 208 l 104 626 q 149 838 104 756 q 272 960 193 921 q 453 1000 350 1000 m 174 328 q 197 198 174 253 q 257 107 221 143 q 333 58 288 78 q 450 38 378 38 q 593 72 531 38 q 692 174 656 107 q 729 335 729 240 l 729 638 q 718 735 729 692 q 688 811 707 778 q 643 868 668 844 q 563 916 613 897 q 453 935 514 935 q 292 897 354 935 q 202 792 231 858 q 174 638 174 725 l 174 328 m 692 1142 q 720 1142 708 1142 q 742 1142 732 1142 q 759 1136 754 1142 q 764 1119 764 1131 q 764 1091 764 1111 q 764 1040 764 1071 q 761 997 764 1014 q 751 966 758 979 q 725 938 743 953 q 685 901 707 921 q 640 863 664 882 q 640 881 640 872 q 640 899 640 890 q 640 919 640 908 q 640 943 640 931 q 655 958 647 950 q 674 979 663 965 q 688 1001 685 990 q 692 1035 692 1011 q 692 1085 692 1057 q 692 1142 692 1113 m 497 1188 q 538 1197 521 1188 q 572 1235 554 1206 l 588 1235 q 588 1205 588 1222 q 588 1172 588 1188 q 586 1164 588 1168 q 578 1151 585 1160 q 545 1124 564 1132 q 499 1117 526 1117 q 442 1131 468 1117 q 391 1162 415 1144 q 344 1193 367 1179 q 296 1207 321 1207 q 256 1195 274 1207 q 222 1160 239 1183 l 207 1160 q 207 1190 207 1172 q 207 1222 207 1208 q 208 1231 207 1225 q 217 1243 210 1236 q 254 1269 235 1261 q 300 1278 274 1278 q 354 1264 329 1278 q 403 1233 379 1250 q 449 1201 426 1215 q 497 1188 472 1188 z "},"Ợ":{"ha":903,"x_min":104,"x_max":799,"o":"m 396 -142 q 420 -142 408 -142 q 444 -142 432 -142 q 467 -142 456 -142 q 492 -142 479 -142 q 503 -146 499 -142 q 507 -157 507 -150 l 507 -253 q 483 -253 494 -253 q 459 -253 471 -253 q 435 -253 447 -253 q 411 -253 424 -253 q 400 -249 404 -253 q 396 -237 396 -244 l 396 -142 m 453 1000 q 629 960 551 1000 q 753 838 707 921 q 799 626 799 756 l 799 335 q 750 127 799 207 q 622 10 701 47 q 450 -28 542 -28 q 280 10 358 -28 q 153 128 201 47 q 104 336 104 208 l 104 626 q 149 838 104 756 q 272 960 193 921 q 453 1000 350 1000 m 174 328 q 197 198 174 253 q 257 107 221 143 q 333 58 288 78 q 450 38 378 38 q 593 72 531 38 q 692 174 656 107 q 729 335 729 240 l 729 638 q 718 735 729 692 q 688 811 707 778 q 643 868 668 844 q 563 916 613 897 q 453 935 514 935 q 292 897 354 935 q 202 792 231 858 q 174 638 174 725 l 174 328 m 692 1142 q 720 1142 708 1142 q 742 1142 732 1142 q 759 1136 754 1142 q 764 1119 764 1131 q 764 1091 764 1111 q 764 1040 764 1071 q 761 997 764 1014 q 751 966 758 979 q 725 938 743 953 q 685 901 707 921 q 640 863 664 882 q 640 881 640 872 q 640 899 640 890 q 640 919 640 908 q 640 943 640 931 q 655 958 647 950 q 674 979 663 965 q 688 1001 685 990 q 692 1035 692 1011 q 692 1085 692 1057 q 692 1142 692 1113 z "},"P":{"ha":833,"x_min":42,"x_max":743,"o":"m 208 0 q 181 0 194 0 q 154 0 168 0 q 143 4 147 0 q 139 15 139 8 q 139 248 139 132 q 139 480 139 364 q 139 712 139 596 q 139 944 139 828 l 215 944 l 208 929 q 208 878 208 903 q 208 826 208 853 q 208 597 208 713 q 208 367 208 482 q 208 139 208 253 q 208 68 208 103 q 208 0 208 33 m 42 972 q 238 972 140 972 q 433 972 336 972 q 524 966 479 972 q 609 944 569 960 q 678 901 649 929 q 726 829 708 874 q 743 721 743 785 l 743 626 q 723 519 743 567 q 663 440 703 472 q 568 390 624 407 q 442 372 513 372 q 321 372 382 372 q 199 372 260 372 l 183 368 l 183 438 q 310 438 247 438 q 438 438 374 438 q 540 450 496 438 q 613 488 583 463 q 656 549 642 513 q 671 632 671 585 l 671 728 q 660 799 671 768 q 626 851 650 829 q 550 893 599 879 q 431 907 501 907 q 306 907 368 907 q 182 907 244 907 q 57 907 119 907 q 46 911 50 907 q 42 922 42 915 q 42 947 42 935 q 42 972 42 960 z "},"Q":{"ha":903,"x_min":104,"x_max":847,"o":"m 614 54 q 672 -22 643 17 q 729 -97 700 -60 q 765 -131 749 -122 q 806 -139 782 -139 q 822 -139 815 -139 q 833 -139 828 -139 l 847 -139 q 847 -166 847 -153 q 847 -193 847 -179 q 843 -204 847 -200 q 832 -208 839 -208 q 815 -208 824 -208 q 797 -208 806 -208 q 749 -201 769 -208 q 710 -179 728 -194 q 676 -142 693 -164 q 617 -61 647 -101 q 558 18 588 -21 l 614 54 m 453 1000 q 629 960 551 1000 q 753 838 707 921 q 799 626 799 756 l 799 335 q 750 127 799 207 q 622 10 701 47 q 450 -28 542 -28 q 280 10 358 -28 q 153 128 201 47 q 104 336 104 208 l 104 626 q 149 838 104 756 q 272 960 193 921 q 453 1000 350 1000 m 174 328 q 197 198 174 253 q 257 107 221 143 q 333 58 288 78 q 450 38 378 38 q 593 72 531 38 q 692 174 656 107 q 729 335 729 240 l 729 638 q 718 735 729 692 q 688 811 707 778 q 643 868 668 844 q 563 916 613 897 q 453 935 514 935 q 292 897 354 935 q 202 792 231 858 q 174 638 174 725 l 174 328 z "},"R":{"ha":833,"x_min":42,"x_max":778,"o":"m 476 461 q 565 294 521 378 q 651 126 608 210 q 690 78 671 92 q 736 65 708 65 q 752 65 746 65 q 764 65 758 65 l 778 65 q 778 40 778 51 q 778 15 778 29 q 774 4 778 8 q 763 0 769 0 q 743 0 753 0 q 722 0 733 0 q 668 11 693 0 q 623 45 643 22 q 583 103 603 68 q 499 266 542 185 q 415 428 457 347 l 476 461 m 42 972 q 242 972 142 972 q 442 972 342 972 q 558 955 507 972 q 644 905 610 938 q 697 825 679 872 q 715 718 715 778 l 715 661 q 697 556 715 603 q 643 475 678 508 q 558 424 608 442 q 442 407 507 407 q 321 407 382 407 q 199 407 260 407 l 183 394 l 183 472 q 310 472 247 472 q 438 472 374 472 q 552 494 507 472 q 620 560 597 517 q 643 667 643 604 l 643 713 q 631 794 643 757 q 594 854 619 831 q 531 893 569 879 q 438 907 493 907 q 310 907 374 907 q 184 907 247 907 q 57 907 121 907 q 46 911 50 907 q 42 922 42 915 q 42 947 42 935 q 42 972 42 960 m 208 0 q 181 0 194 0 q 154 0 168 0 q 143 4 147 0 q 139 15 139 8 q 139 248 139 132 q 139 480 139 364 q 139 712 139 596 q 139 944 139 828 l 225 944 l 208 929 q 208 769 208 849 q 208 608 208 689 q 208 452 208 531 q 208 296 208 374 q 208 139 208 218 q 208 68 208 103 q 208 0 208 33 z "},"Ŕ":{"ha":833,"x_min":42,"x_max":778,"o":"m 476 461 q 565 294 521 378 q 651 126 608 210 q 690 78 671 92 q 736 65 708 65 q 752 65 746 65 q 764 65 758 65 l 778 65 q 778 40 778 51 q 778 15 778 29 q 774 4 778 8 q 763 0 769 0 q 743 0 753 0 q 722 0 733 0 q 668 11 693 0 q 623 45 643 22 q 583 103 603 68 q 499 266 542 185 q 415 428 457 347 l 476 461 m 42 972 q 242 972 142 972 q 442 972 342 972 q 558 955 507 972 q 644 905 610 938 q 697 825 679 872 q 715 718 715 778 l 715 661 q 697 556 715 603 q 643 475 678 508 q 558 424 608 442 q 442 407 507 407 q 321 407 382 407 q 199 407 260 407 l 183 394 l 183 472 q 310 472 247 472 q 438 472 374 472 q 552 494 507 472 q 620 560 597 517 q 643 667 643 604 l 643 713 q 631 794 643 757 q 594 854 619 831 q 531 893 569 879 q 438 907 493 907 q 310 907 374 907 q 184 907 247 907 q 57 907 121 907 q 46 911 50 907 q 42 922 42 915 q 42 947 42 935 q 42 972 42 960 m 208 0 q 181 0 194 0 q 154 0 168 0 q 143 4 147 0 q 139 15 139 8 q 139 248 139 132 q 139 480 139 364 q 139 712 139 596 q 139 944 139 828 l 225 944 l 208 929 q 208 769 208 849 q 208 608 208 689 q 208 452 208 531 q 208 296 208 374 q 208 139 208 218 q 208 68 208 103 q 208 0 208 33 m 536 1310 q 562 1310 553 1310 q 578 1310 571 1310 q 600 1310 586 1310 q 613 1303 608 1310 q 610 1289 617 1296 q 567 1235 585 1258 q 533 1192 549 1213 q 497 1148 517 1172 q 449 1088 478 1124 q 440 1080 446 1083 q 425 1076 433 1076 q 408 1076 415 1076 q 392 1076 400 1076 q 376 1076 385 1076 q 431 1155 406 1118 q 481 1229 456 1192 q 536 1310 507 1267 z "},"Ŗ":{"ha":833,"x_min":42,"x_max":778,"o":"m 476 461 q 565 294 521 378 q 651 126 608 210 q 690 78 671 92 q 736 65 708 65 q 752 65 746 65 q 764 65 758 65 l 778 65 q 778 40 778 51 q 778 15 778 29 q 774 4 778 8 q 763 0 769 0 q 743 0 753 0 q 722 0 733 0 q 668 11 693 0 q 623 45 643 22 q 583 103 603 68 q 499 266 542 185 q 415 428 457 347 l 476 461 m 42 972 q 242 972 142 972 q 442 972 342 972 q 558 955 507 972 q 644 905 610 938 q 697 825 679 872 q 715 718 715 778 l 715 661 q 697 556 715 603 q 643 475 678 508 q 558 424 608 442 q 442 407 507 407 q 321 407 382 407 q 199 407 260 407 l 183 394 l 183 472 q 310 472 247 472 q 438 472 374 472 q 552 494 507 472 q 620 560 597 517 q 643 667 643 604 l 643 713 q 631 794 643 757 q 594 854 619 831 q 531 893 569 879 q 438 907 493 907 q 310 907 374 907 q 184 907 247 907 q 57 907 121 907 q 46 911 50 907 q 42 922 42 915 q 42 947 42 935 q 42 972 42 960 m 208 0 q 181 0 194 0 q 154 0 168 0 q 143 4 147 0 q 139 15 139 8 q 139 248 139 132 q 139 480 139 364 q 139 712 139 596 q 139 944 139 828 l 225 944 l 208 929 q 208 769 208 849 q 208 608 208 689 q 208 452 208 531 q 208 296 208 374 q 208 139 208 218 q 208 68 208 103 q 208 0 208 33 m 390 -97 q 415 -97 406 -97 q 435 -97 425 -97 q 454 -97 444 -97 q 467 -103 463 -97 q 468 -117 471 -108 q 442 -184 453 -157 q 422 -238 432 -211 q 396 -308 413 -265 q 390 -318 394 -314 q 375 -322 385 -322 q 352 -322 364 -322 q 325 -322 340 -322 q 349 -240 339 -276 q 370 -168 360 -203 q 390 -97 381 -133 z "}}}
